# Blender v2.79 (sub 0) OBJ File: ''
# www.blender.org
mtllib cube_rot.mtl
o cube_rot.001.part
v -16.952951 24.348732 -0.115490
v -10.108255 17.058445 -0.072292
v -17.398609 10.213683 -0.072295
v -24.243305 17.503971 -0.115493
v -16.982517 24.380213 9.884416
v -24.272875 17.535460 9.884413
v -17.428181 10.245172 9.927612
v -10.137825 17.089926 9.927615
vn 0.0048 -0.0030 -1.0000
vn 0.0049 -0.0030 -1.0000
vn -0.0010 0.0029 1.0000
vn -0.0010 0.0030 1.0000
vn 0.7302 0.6832 0.0014
vn 0.6860 -0.7276 0.0042
vn -0.7275 -0.6861 0.0014
vn -0.6847 0.7288 -0.0041
vn -0.6845 0.7290 -0.0043
usemtl Material.002
s 1
f 1//1 2//1 3//2
f 1//1 3//2 4//2
f 5//3 6//4 7//3
f 5//3 7//3 8//3
f 1//5 5//5 8//5
f 1//5 8//5 2//5
f 2//6 8//6 7//6
f 2//6 7//6 3//6
f 3//7 7//7 6//7
f 3//7 6//7 4//7
f 5//8 1//9 4//8
f 5//8 4//8 6//9
