# Blender v3.4.0 OBJ File: 'apple_tree10_sapling_05_8_2_2.blend'
# www.blender.org
o leaves.325
v 0.152078 0.177498 1.867652
v 0.184263 0.188653 1.869129
v 0.203488 0.238204 1.843944
v 0.154167 0.206814 1.850369
v 0.171304 0.227049 1.842466
v 0.201399 0.208889 1.861227
vt 0.500000 0.000000
vt 0.260000 0.333333
vt 0.260000 0.666667
vt 0.500000 1.000000
vt 0.740000 0.666667
vt 0.740000 0.333333
vn -0.2142 0.5074 0.8347
s off
mtllib leafwood.mtl
usemtl Leaves
f 1/1/1 2/2/1 6/3/1 3/4/1
f 1/1/1 3/4/1 5/5/1 4/6/1
