# Blender v3.4.0 OBJ File: 'apple_tree10_sapling_05_8_2_2.blend'
# www.blender.org
o leaves.084
v -0.243222 0.140567 0.900049
v -0.302240 0.252696 0.904268
v -0.244181 0.188602 0.879960
v -0.281609 0.167284 0.922950
v -0.301281 0.204661 0.924356
v -0.263853 0.225978 0.881367
vt 0.500000 0.000000
vt 0.500000 1.000000
vt 0.740000 0.666667
vt 0.740000 0.333333
vt 0.260000 0.333333
vt 0.260000 0.666667
vn 0.6364 0.3084 0.7070
s off
mtllib leafwood.mtl
usemtl Leaves
f 1/1/1 2/2/1 5/3/1 4/4/1
f 1/1/1 3/5/1 6/6/1 2/2/1
