# Blender v3.4.0 OBJ File: 'apple_tree10_sapling_05_8_2_2.blend'
# www.blender.org
o leaves.072
v -0.317316 -0.066415 0.808559
v -0.345177 -0.036858 0.810973
v -0.414278 -0.046732 0.803588
v -0.354096 -0.082850 0.802831
v -0.386417 -0.076289 0.801174
v -0.377498 -0.030297 0.809316
vt 0.500000 0.000000
vt 0.260000 0.333333
vt 0.260000 0.666667
vt 0.500000 1.000000
vt 0.740000 0.666667
vt 0.740000 0.333333
vn -0.0826 -0.1582 0.9840
s off
mtllib leafwood.mtl
usemtl Leaves
f 1/1/1 2/2/1 6/3/1 3/4/1
f 1/1/1 3/4/1 5/5/1 4/6/1
