# Blender v3.4.0 OBJ File: 'apple_tree10_sapling_05_8_2_2.blend'
# www.blender.org
o leaves.369
v -0.036091 0.060714 2.429531
v -0.081755 0.183727 2.440574
v -0.021824 0.112290 2.437386
v -0.080801 0.091147 2.429039
v -0.096022 0.132151 2.432720
v -0.037045 0.153294 2.441067
vt 0.500000 0.000000
vt 0.500000 1.000000
vt 0.740000 0.666667
vt 0.740000 0.333333
vt 0.260000 0.333333
vt 0.260000 0.666667
vn -0.0953 -0.1240 0.9877
s off
mtllib leafwood.mtl
usemtl Leaves
f 1/1/1 2/2/1 5/3/1 4/4/1
f 1/1/1 3/5/1 6/6/1 2/2/1
