# Blender v3.4.0 OBJ File: 'apple_tree10_sapling_05_8_2_2.blend'
# www.blender.org
o leaves.256
v 0.237465 0.148653 1.554387
v 0.284162 0.120648 1.554387
v 0.369566 0.159752 1.554387
v 0.278835 0.184056 1.554387
v 0.322868 0.187756 1.554387
v 0.328196 0.124348 1.554387
vt 0.500000 0.000000
vt 0.260000 0.333333
vt 0.260000 0.666667
vt 0.500000 1.000000
vt 0.740000 0.666667
vt 0.740000 0.333333
vn 0.0000 0.0000 1.0000
s off
mtllib leafwood.mtl
usemtl Leaves
f 1/1/1 2/2/1 6/3/1 3/4/1
f 1/1/1 3/4/1 5/5/1 4/6/1
