# Blender v3.4.0 OBJ File: 'apple_tree10_sapling_05_8_2_2.blend'
# www.blender.org
o leaves.196
v 0.007875 0.355415 1.329646
v 0.055329 0.393822 1.327065
v 0.032914 0.356937 1.330462
v 0.014473 0.379497 1.327109
v 0.030291 0.392299 1.326249
v 0.048732 0.369740 1.329602
vt 0.500000 0.000000
vt 0.500000 1.000000
vt 0.740000 0.666667
vt 0.740000 0.333333
vt 0.260000 0.333333
vt 0.260000 0.666667
vn -0.0394 0.1153 0.9925
s off
mtllib leafwood.mtl
usemtl Leaves
f 1/1/1 2/2/1 5/3/1 4/4/1
f 1/1/1 3/5/1 6/6/1 2/2/1
