# Blender v3.4.0 OBJ File: 'apple_tree10_sapling_05_8_2_2.blend'
# www.blender.org
o leaves.311
v 0.195009 0.110265 1.894394
v 0.218656 0.087950 1.930384
v 0.274894 0.124887 1.980114
v 0.224619 0.142328 1.915551
v 0.251247 0.147202 1.944124
v 0.245284 0.092824 1.958957
vt 0.500000 0.000000
vt 0.260000 0.333333
vt 0.260000 0.666667
vt 0.500000 1.000000
vt 0.740000 0.666667
vt 0.740000 0.333333
vn -0.7289 0.2534 0.6360
s off
mtllib leafwood.mtl
usemtl Leaves
f 1/1/1 2/2/1 6/3/1 3/4/1
f 1/1/1 3/4/1 5/5/1 4/6/1
