# Blender v3.4.0 OBJ File: 'apple_tree10_sapling_05_8_2_2.blend'
# www.blender.org
o leaves
v 0.228911 0.158182 0.759804
v 0.276201 0.141085 0.796402
v 0.300487 0.151374 0.839434
v 0.301769 0.189049 0.888901
v 0.254479 0.206147 0.852303
v 0.230193 0.195858 0.809271
vt 0.500000 0.000000
vt 0.260000 0.333333
vt 0.260000 0.666667
vt 0.500000 1.000000
vt 0.740000 0.666667
vt 0.740000 0.333333
vn -0.6064 -0.6249 0.4917
s off
mtllib leafwood.mtl
usemtl Leaves
f 1/1/1 2/2/1 3/3/1 4/4/1
f 1/1/1 4/4/1 5/5/1 6/6/1
