# Blender v3.4.0 OBJ File: 'apple_tree10_sapling_05_8_2_2.blend'
# www.blender.org
o leaves.309
v 0.135715 0.026489 2.004249
v 0.162579 0.023594 2.014932
v 0.191907 0.061853 2.028651
v 0.146313 0.052959 2.009834
v 0.165043 0.064747 2.017968
v 0.181310 0.035382 2.023066
vt 0.500000 0.000000
vt 0.260000 0.333333
vt 0.260000 0.666667
vt 0.500000 1.000000
vt 0.740000 0.666667
vt 0.740000 0.333333
vn -0.3734 -0.0460 0.9265
s off
mtllib leafwood.mtl
usemtl Leaves
f 1/1/1 2/2/1 6/3/1 3/4/1
f 1/1/1 3/4/1 5/5/1 4/6/1
