# Blender v3.4.0 OBJ File: 'apple_tree10_sapling_05_8_2_2.blend'
# www.blender.org
o leaves.171
v 0.183751 -0.031866 1.284415
v 0.168290 -0.063424 1.293091
v 0.192505 -0.119438 1.279858
v 0.205048 -0.058689 1.272701
v 0.207966 -0.087879 1.271181
v 0.171208 -0.092615 1.291572
vt 0.500000 0.000000
vt 0.260000 0.333333
vt 0.260000 0.666667
vt 0.500000 1.000000
vt 0.740000 0.666667
vt 0.740000 0.333333
vn 0.4848 0.0029 0.8746
s off
mtllib leafwood.mtl
usemtl Leaves
f 1/1/1 2/2/1 6/3/1 3/4/1
f 1/1/1 3/4/1 5/5/1 4/6/1
