# Blender v3.4.0 OBJ File: 'apple_tree10_sapling_05_8_2_2.blend'
# www.blender.org
o leaves.108
v 0.029929 -0.215015 0.934224
v 0.027593 -0.258420 0.942349
v -0.009578 -0.223847 0.952018
v -0.032835 -0.293371 0.973104
v -0.030500 -0.249966 0.964979
v 0.006672 -0.284539 0.955309
vt 0.500000 0.000000
vt 0.500000 1.000000
vt 0.740000 0.666667
vt 0.740000 0.333333
vt 0.260000 0.333333
vt 0.260000 0.666667
vn 0.3778 0.1507 0.9135
s off
mtllib leafwood.mtl
usemtl Leaves
f 1/1/1 4/2/1 6/3/1 2/4/1
f 1/1/1 3/5/1 5/6/1 4/2/1
