# Blender v3.4.0 OBJ File: 'apple_tree10_sapling_05_8_2_2.blend'
# www.blender.org
o leaves.014
v 0.119868 0.217283 0.662004
v 0.125085 0.239865 0.666379
v 0.102026 0.271421 0.655069
v 0.102756 0.230793 0.653006
v 0.096809 0.248839 0.650694
v 0.119137 0.257911 0.664068
vt 0.500000 0.000000
vt 0.260000 0.333333
vt 0.260000 0.666667
vt 0.500000 1.000000
vt 0.740000 0.666667
vt 0.740000 0.333333
vn -0.4972 -0.0529 0.8660
s off
mtllib leafwood.mtl
usemtl Leaves
f 1/1/1 2/2/1 6/3/1 3/4/1
f 1/1/1 3/4/1 5/5/1 4/6/1
