# Blender v3.4.0 OBJ File: 'apple_tree10_sapling_05_8_2_2.blend'
# www.blender.org
o leaves.079
v -0.237930 -0.133500 0.876597
v -0.249824 -0.151558 0.915968
v -0.281850 -0.126435 0.882824
v -0.321650 -0.149989 0.944995
v -0.277730 -0.157054 0.938767
v -0.309757 -0.131931 0.905623
vt 0.500000 0.000000
vt 0.500000 1.000000
vt 0.740000 0.666667
vt 0.740000 0.333333
vt 0.260000 0.333333
vt 0.260000 0.666667
vn 0.2041 0.8650 0.4584
s off
mtllib leafwood.mtl
usemtl Leaves
f 1/1/1 4/2/1 5/3/1 2/4/1
f 1/1/1 3/5/1 6/6/1 4/2/1
