# Blender v3.4.0 OBJ File: 'apple_tree10_sapling_05_8_2_2.blend'
# www.blender.org
o leaves.158
v -0.195486 -0.114422 1.147998
v -0.232170 -0.117396 1.168706
v -0.283715 -0.166827 1.154329
v -0.217621 -0.146384 1.131510
v -0.247031 -0.163853 1.133621
v -0.261580 -0.134864 1.170816
vt 0.500000 0.000000
vt 0.260000 0.333333
vt 0.260000 0.666667
vt 0.500000 1.000000
vt 0.740000 0.666667
vt 0.740000 0.333333
vn 0.4203 -0.6286 0.6543
s off
mtllib leafwood.mtl
usemtl Leaves
f 1/1/1 2/2/1 6/3/1 3/4/1
f 1/1/1 3/4/1 5/5/1 4/6/1
