# Blender v3.4.0 OBJ File: 'apple_tree10_sapling_05_8_2_2.blend'
# www.blender.org
o leaves.297
v 0.148701 -0.066867 1.910565
v 0.128076 -0.078377 1.883633
v 0.146738 -0.117454 1.839551
v 0.168017 -0.089081 1.890154
v 0.167362 -0.105943 1.866483
v 0.127422 -0.095240 1.859962
vt 0.500000 0.000000
vt 0.260000 0.333333
vt 0.260000 0.666667
vt 0.500000 1.000000
vt 0.740000 0.666667
vt 0.740000 0.333333
vn -0.2986 -0.7734 0.5592
s off
mtllib leafwood.mtl
usemtl Leaves
f 1/1/1 2/2/1 6/3/1 3/4/1
f 1/1/1 3/4/1 5/5/1 4/6/1
