# Blender v3.4.0 OBJ File: 'apple_tree10_sapling_05_8_2_2.blend'
# www.blender.org
o leaves.241
v 0.232336 -0.109040 1.579238
v 0.221074 -0.126398 1.595329
v 0.241648 -0.145524 1.630761
v 0.249806 -0.116005 1.597496
v 0.252911 -0.128166 1.614670
v 0.224178 -0.138559 1.612504
vt 0.500000 0.000000
vt 0.260000 0.333333
vt 0.260000 0.666667
vt 0.500000 1.000000
vt 0.740000 0.666667
vt 0.740000 0.333333
vn -0.3144 0.7470 0.5858
s off
mtllib leafwood.mtl
usemtl Leaves
f 1/1/1 2/2/1 6/3/1 3/4/1
f 1/1/1 3/4/1 5/5/1 4/6/1
