# Blender v3.4.0 OBJ File: 'apple_tree10_sapling_05_8_2_2.blend'
# www.blender.org
o leaves.152
v -0.338907 0.010631 1.111688
v -0.378473 0.037272 1.114484
v -0.454852 0.008720 1.102450
v -0.376638 -0.017284 1.102732
v -0.415286 -0.017921 1.099653
v -0.417122 0.036635 1.111405
vt 0.500000 0.000000
vt 0.260000 0.333333
vt 0.260000 0.666667
vt 0.500000 1.000000
vt 0.740000 0.666667
vt 0.740000 0.333333
vn -0.0741 -0.2124 0.9744
s off
mtllib leafwood.mtl
usemtl Leaves
f 1/1/1 2/2/1 6/3/1 3/4/1
f 1/1/1 3/4/1 5/5/1 4/6/1
