# Blender v3.4.0 OBJ File: 'apple_tree10_sapling_05_8_2_2.blend'
# www.blender.org
o leaves.182
v 0.140935 -0.103342 1.244443
v 0.105484 -0.122126 1.245277
v 0.092189 -0.182102 1.213370
v 0.143889 -0.137064 1.222893
v 0.127640 -0.163318 1.212536
v 0.089235 -0.148380 1.234919
vt 0.500000 0.000000
vt 0.260000 0.333333
vt 0.260000 0.666667
vt 0.500000 1.000000
vt 0.740000 0.666667
vt 0.740000 0.333333
vn 0.2835 -0.4986 0.8192
s off
mtllib leafwood.mtl
usemtl Leaves
f 1/1/1 2/2/1 6/3/1 3/4/1
f 1/1/1 3/4/1 5/5/1 4/6/1
