# Blender v3.4.0 OBJ File: 'apple_tree10_sapling_05_8_2_2.blend'
# www.blender.org
o leaves.215
v -0.178288 -0.098599 1.540709
v -0.207696 -0.099137 1.548864
v -0.225348 -0.115845 1.595570
v -0.180254 -0.109558 1.569128
v -0.195941 -0.115306 1.587415
v -0.223382 -0.104886 1.567151
vt 0.500000 0.000000
vt 0.260000 0.333333
vt 0.260000 0.666667
vt 0.500000 1.000000
vt 0.740000 0.666667
vt 0.740000 0.333333
vn 0.0838 0.9278 0.3636
s off
mtllib leafwood.mtl
usemtl Leaves
f 1/1/1 2/2/1 6/3/1 3/4/1
f 1/1/1 3/4/1 5/5/1 4/6/1
