# Blender v3.4.0 OBJ File: 'apple_tree10_sapling_05_8_2_2.blend'
# www.blender.org
o leaves.308
v 0.134560 0.026042 2.002459
v 0.150085 0.041655 2.025395
v 0.200789 0.029458 2.042383
v 0.163187 0.012706 2.006138
v 0.185263 0.013845 2.019447
v 0.172161 0.042794 2.038704
vt 0.500000 0.000000
vt 0.500000 1.000000
vt 0.740000 0.666667
vt 0.740000 0.333333
vt 0.260000 0.333333
vt 0.260000 0.666667
vn -0.3790 -0.6253 0.6822
s off
mtllib leafwood.mtl
usemtl Leaves
f 1/1/1 3/2/1 6/3/1 2/4/1
f 1/1/1 4/5/1 5/6/1 3/2/1
