# Blender v3.4.0 OBJ File: 'apple_tree10_sapling_05_8_2_2.blend'
# www.blender.org
o leaves.300
v 0.092331 -0.212956 1.772401
v 0.013982 -0.294568 1.732919
v 0.044660 -0.225099 1.770882
v 0.087770 -0.255222 1.747599
v 0.061654 -0.282425 1.734438
v 0.018543 -0.252302 1.757722
vt 0.500000 0.000000
vt 0.500000 1.000000
vt 0.740000 0.666667
vt 0.740000 0.333333
vt 0.260000 0.333333
vt 0.260000 0.666667
vn 0.1032 -0.5117 0.8530
vn 0.1031 -0.5117 0.8530
s off
mtllib leafwood.mtl
usemtl Leaves
f 1/1/1 2/2/1 5/3/1 4/4/1
f 1/1/2 3/5/2 6/6/2 2/2/2
