# Blender v3.4.0 OBJ File: 'apple_tree10_sapling_05_8_2_2.blend'
# www.blender.org
o leaves.331
v -0.172250 -0.130967 2.105119
v -0.200710 -0.130339 2.102362
v -0.229218 -0.170371 2.098026
v -0.181769 -0.157864 2.103146
v -0.200758 -0.170999 2.100782
v -0.219699 -0.143473 2.099998
vt 0.500000 0.000000
vt 0.260000 0.333333
vt 0.260000 0.666667
vt 0.500000 1.000000
vt 0.740000 0.666667
vt 0.740000 0.333333
vn -0.0972 -0.0385 0.9945
s off
mtllib leafwood.mtl
usemtl Leaves
f 1/1/1 2/2/1 6/3/1 3/4/1
f 1/1/1 3/4/1 5/5/1 4/6/1
