# Blender v3.4.0 OBJ File: 'apple_tree10_sapling_05_8_2_2.blend'
# www.blender.org
o leaves.023
v -0.151547 0.241242 0.698255
v -0.167668 0.258877 0.704446
v -0.209668 0.252908 0.708099
v -0.174173 0.231384 0.698626
v -0.193546 0.235273 0.701907
v -0.187042 0.262765 0.707728
vt 0.500000 0.000000
vt 0.260000 0.333333
vt 0.260000 0.666667
vt 0.500000 1.000000
vt 0.740000 0.666667
vt 0.740000 0.333333
vn 0.1170 -0.2321 0.9656
s off
mtllib leafwood.mtl
usemtl Leaves
f 1/1/1 2/2/1 6/3/1 3/4/1
f 1/1/1 3/4/1 5/5/1 4/6/1
