# Blender v3.4.0 OBJ File: 'apple_tree10_sapling_05_8_2_2.blend'
# www.blender.org
o leaves.222
v -0.062211 0.252470 1.391122
v -0.048842 0.273950 1.416146
v -0.076957 0.324210 1.437403
v -0.085411 0.278816 1.396952
v -0.090326 0.302729 1.412379
v -0.053757 0.297864 1.431573
vt 0.500000 0.000000
vt 0.260000 0.333333
vt 0.260000 0.666667
vt 0.500000 1.000000
vt 0.740000 0.666667
vt 0.740000 0.333333
vn -0.4447 -0.5483 0.7082
s off
mtllib leafwood.mtl
usemtl Leaves
f 1/1/1 2/2/1 6/3/1 3/4/1
f 1/1/1 3/4/1 5/5/1 4/6/1
