# Blender v3.4.0 OBJ File: 'apple_tree10_sapling_05_8_2_2.blend'
# www.blender.org
o leaves.212
v -0.175844 -0.089710 1.524513
v -0.221039 -0.099058 1.546793
v -0.242294 -0.174938 1.586868
v -0.174948 -0.137182 1.543802
v -0.197098 -0.165591 1.564587
v -0.243189 -0.127467 1.567579
vt 0.500000 0.000000
vt 0.260000 0.333333
vt 0.260000 0.666667
vt 0.500000 1.000000
vt 0.740000 0.666667
vt 0.740000 0.333333
vn 0.3523 0.3580 0.8647
s off
mtllib leafwood.mtl
usemtl Leaves
f 1/1/1 2/2/1 6/3/1 3/4/1
f 1/1/1 3/4/1 5/5/1 4/6/1
