# Blender v3.4.0 OBJ File: 'apple_tree10_sapling_05_8_2_2.blend'
# www.blender.org
o leaves.259
v 0.254199 0.153269 1.561965
v 0.289976 0.162494 1.564327
v 0.274427 0.122290 1.560629
v 0.338206 0.120638 1.563503
v 0.302429 0.111413 1.561141
v 0.317978 0.151617 1.564839
vt 0.500000 0.000000
vt 0.500000 1.000000
vt 0.740000 0.666667
vt 0.740000 0.333333
vt 0.260000 0.333333
vt 0.260000 0.666667
vn -0.0468 -0.0735 0.9962
s off
mtllib leafwood.mtl
usemtl Leaves
f 1/1/1 4/2/1 6/3/1 2/4/1
f 1/1/1 3/5/1 5/6/1 4/2/1
