# Blender v3.4.0 OBJ File: 'apple_tree10_sapling_05_8_2_2.blend'
# www.blender.org
o leaves.310
v 0.186474 0.109520 1.890653
v 0.233991 0.116184 1.905161
v 0.275843 0.191802 1.902357
v 0.198536 0.157711 1.883948
v 0.228325 0.185138 1.887849
v 0.263781 0.143611 1.909062
vt 0.500000 0.000000
vt 0.260000 0.333333
vt 0.260000 0.666667
vt 0.500000 1.000000
vt 0.740000 0.666667
vt 0.740000 0.333333
vn -0.3121 0.2071 0.9272
s off
mtllib leafwood.mtl
usemtl Leaves
f 1/1/1 2/2/1 6/3/1 3/4/1
f 1/1/1 3/4/1 5/5/1 4/6/1
