# Blender v3.4.0 OBJ File: 'apple_tree10_sapling_05_8_2_2.blend'
# www.blender.org
o leaves.180
v 0.143454 -0.095321 1.242490
v 0.149958 -0.145187 1.241876
v 0.098251 -0.117321 1.243855
v 0.085404 -0.203119 1.243616
v 0.078901 -0.153254 1.244230
v 0.130608 -0.181119 1.242252
vt 0.500000 0.000000
vt 0.500000 1.000000
vt 0.740000 0.666667
vt 0.740000 0.333333
vt 0.260000 0.333333
vt 0.260000 0.666667
vn 0.0340 -0.0079 0.9994
s off
mtllib leafwood.mtl
usemtl Leaves
f 1/1/1 4/2/1 6/3/1 2/4/1
f 1/1/1 3/5/1 5/6/1 4/2/1
