# Blender v3.4.0 OBJ File: 'apple_tree10_sapling_05_8_2_2.blend'
# www.blender.org
o leaves.105
v 0.103061 -0.193246 0.970959
v 0.092511 -0.218551 0.979356
v 0.119931 -0.256049 0.996343
v 0.124858 -0.209810 0.979485
v 0.130481 -0.230744 0.987946
v 0.098134 -0.239485 0.987817
vt 0.500000 0.000000
vt 0.260000 0.333333
vt 0.260000 0.666667
vt 0.500000 1.000000
vt 0.740000 0.666667
vt 0.740000 0.333333
vn -0.0983 0.3501 0.9315
s off
mtllib leafwood.mtl
usemtl Leaves
f 1/1/1 2/2/1 6/3/1 3/4/1
f 1/1/1 3/4/1 5/5/1 4/6/1
