# Blender v3.4.0 OBJ File: 'apple_tree10_sapling_05_8_2_2.blend'
# www.blender.org
o leaves.154
v -0.349762 0.014828 1.114295
v -0.371802 0.040832 1.121609
v -0.414049 0.038608 1.164352
v -0.370580 0.004678 1.140352
v -0.392009 0.012605 1.157038
v -0.393231 0.048758 1.138295
vt 0.500000 0.000000
vt 0.260000 0.333333
vt 0.260000 0.666667
vt 0.500000 1.000000
vt 0.740000 0.666667
vt 0.740000 0.333333
vn 0.6522 0.3661 0.6637
s off
mtllib leafwood.mtl
usemtl Leaves
f 1/1/1 2/2/1 6/3/1 3/4/1
f 1/1/1 3/4/1 5/5/1 4/6/1
