# Blender v3.4.0 OBJ File: 'apple_tree10_sapling_05_8_2_2.blend'
# www.blender.org
o leaves.081
v -0.241266 -0.137474 0.880858
v -0.235318 -0.173015 0.886258
v -0.269633 -0.151304 0.899073
v -0.274894 -0.211530 0.916279
v -0.246527 -0.197700 0.898065
v -0.280843 -0.175989 0.910880
vt 0.500000 0.000000
vt 0.500000 1.000000
vt 0.740000 0.666667
vt 0.740000 0.333333
vt 0.260000 0.333333
vt 0.260000 0.666667
vn 0.4548 0.2077 0.8660
s off
mtllib leafwood.mtl
usemtl Leaves
f 1/1/1 4/2/1 5/3/1 2/4/1
f 1/1/1 3/5/1 6/6/1 4/2/1
