# Blender v3.4.0 OBJ File: 'apple_tree10_sapling_05_8_2_2.blend'
# www.blender.org
o leaves.307
v 0.133340 0.025571 2.000569
v 0.242956 0.049475 2.000737
v 0.164143 0.059843 2.000157
v 0.175614 0.007235 2.001093
v 0.212153 0.015203 2.001149
v 0.200682 0.067811 2.000213
vt 0.500000 0.000000
vt 0.500000 1.000000
vt 0.740000 0.666667
vt 0.740000 0.333333
vt 0.260000 0.333333
vt 0.260000 0.666667
vn -0.0052 0.0167 0.9998
s off
mtllib leafwood.mtl
usemtl Leaves
f 1/1/1 2/2/1 6/3/1 3/4/1
f 1/1/1 4/5/1 5/6/1 2/2/1
