# Blender v3.4.0 OBJ File: 'apple_tree10_sapling_05_8_2_2.blend'
# www.blender.org
o leaves.321
v 0.148945 0.165051 1.867508
v 0.187587 0.178766 1.840363
v 0.192216 0.251348 1.796702
v 0.139151 0.208867 1.847449
v 0.153574 0.237633 1.823847
v 0.202011 0.207532 1.816761
vt 0.500000 0.000000
vt 0.260000 0.333333
vt 0.260000 0.666667
vt 0.500000 1.000000
vt 0.740000 0.666667
vt 0.740000 0.333333
vn 0.3987 0.4539 0.7969
s off
mtllib leafwood.mtl
usemtl Leaves
f 1/1/1 2/2/1 6/3/1 3/4/1
f 1/1/1 3/4/1 5/5/1 4/6/1
