# Blender v3.4.0 OBJ File: 'apple_tree10_sapling_05_8_2_2.blend'
# www.blender.org
o leaves.287
v 0.153224 -0.171266 1.808716
v 0.233208 -0.277342 1.840763
v 0.153299 -0.225236 1.824150
v 0.206471 -0.188014 1.814646
v 0.233133 -0.223372 1.825329
v 0.179961 -0.260595 1.834832
vt 0.500000 0.000000
vt 0.500000 1.000000
vt 0.740000 0.666667
vt 0.740000 0.333333
vt 0.260000 0.333333
vt 0.260000 0.666667
vn -0.0206 0.2749 0.9613
s off
mtllib leafwood.mtl
usemtl Leaves
f 1/1/1 2/2/1 5/3/1 4/4/1
f 1/1/1 3/5/1 6/6/1 2/2/1
