# Blender v3.4.0 OBJ File: 'apple_tree10_sapling_05_8_2_2.blend'
# www.blender.org
o leaves.271
v -0.252600 -0.117881 1.775223
v -0.277536 -0.092596 1.778393
v -0.326530 -0.096492 1.815369
v -0.276950 -0.128907 1.798817
v -0.301593 -0.121777 1.812199
v -0.302180 -0.085466 1.791774
vt 0.500000 0.000000
vt 0.260000 0.333333
vt 0.260000 0.666667
vt 0.500000 1.000000
vt 0.740000 0.666667
vt 0.740000 0.333333
vn 0.5238 0.4240 0.7388
s off
mtllib leafwood.mtl
usemtl Leaves
f 1/1/1 2/2/1 6/3/1 3/4/1
f 1/1/1 3/4/1 5/5/1 4/6/1
