# Blender v3.4.0 OBJ File: 'apple_tree10_sapling_05_8_2_2.blend'
# www.blender.org
o leaves.295
v 0.148676 -0.061654 1.904171
v 0.127267 -0.086076 1.935869
v 0.151020 -0.092756 2.010166
v 0.171648 -0.057966 1.943136
v 0.172429 -0.068333 1.978468
v 0.128048 -0.096443 1.971201
vt 0.500000 0.000000
vt 0.260000 0.333333
vt 0.260000 0.666667
vt 0.500000 1.000000
vt 0.740000 0.666667
vt 0.740000 0.333333
vn -0.5471 0.7999 0.2468
s off
mtllib leafwood.mtl
usemtl Leaves
f 1/1/1 2/2/1 6/3/1 3/4/1
f 1/1/1 3/4/1 5/5/1 4/6/1
