# Blender v3.4.0 OBJ File: 'apple_tree10_sapling_05_8_2_2.blend'
# www.blender.org
o leaves.040
v -0.074862 0.243823 0.730447
v -0.071508 0.268011 0.704221
v -0.112901 0.312255 0.691955
v -0.103575 0.265256 0.731013
v -0.116255 0.288067 0.718182
v -0.084188 0.290822 0.691390
vt 0.500000 0.000000
vt 0.260000 0.333333
vt 0.260000 0.666667
vt 0.500000 1.000000
vt 0.740000 0.666667
vt 0.740000 0.333333
vn 0.4728 0.6168 0.6293
s off
mtllib leafwood.mtl
usemtl Leaves
f 1/1/1 2/2/1 6/3/1 3/4/1
f 1/1/1 3/4/1 5/5/1 4/6/1
