# Blender v3.4.0 OBJ File: 'apple_tree10_sapling_05_8_2_2.blend'
# www.blender.org
o leaves.052
v 0.236003 0.139824 0.783288
v 0.357497 0.152956 0.779541
v 0.273809 0.171826 0.791555
v 0.279194 0.116576 0.772522
v 0.319692 0.120954 0.771273
v 0.314307 0.176204 0.790306
vt 0.500000 0.000000
vt 0.500000 1.000000
vt 0.740000 0.666667
vt 0.740000 0.333333
vt 0.260000 0.333333
vt 0.260000 0.666667
vn 0.0637 -0.3195 0.9454
s off
mtllib leafwood.mtl
usemtl Leaves
f 1/1/1 2/2/1 6/3/1 3/4/1
f 1/1/1 4/5/1 5/6/1 2/2/1
