# Blender v3.4.0 OBJ File: 'apple_tree10_sapling_05_8_2_2.blend'
# www.blender.org
o leaves.029
v 0.157887 0.152518 0.761720
v 0.205134 0.110281 0.752226
v 0.307334 0.120555 0.793083
v 0.210271 0.173446 0.792123
v 0.260087 0.162792 0.802577
v 0.254950 0.099627 0.762681
vt 0.500000 0.000000
vt 0.260000 0.333333
vt 0.260000 0.666667
vt 0.500000 1.000000
vt 0.740000 0.666667
vt 0.740000 0.333333
vn -0.2787 -0.4966 0.8220
s off
mtllib leafwood.mtl
usemtl Leaves
f 1/1/1 2/2/1 6/3/1 3/4/1
f 1/1/1 3/4/1 5/5/1 4/6/1
