# Blender v3.4.0 OBJ File: 'apple_tree10_sapling_05_8_2_2.blend'
# www.blender.org
o leaves.322
v 0.149753 0.168262 1.867545
v 0.178658 0.215570 1.870796
v 0.164298 0.283415 1.936892
v 0.130545 0.197722 1.910525
v 0.135393 0.236106 1.933641
v 0.183507 0.253955 1.893911
vt 0.500000 0.000000
vt 0.260000 0.333333
vt 0.260000 0.666667
vt 0.500000 1.000000
vt 0.740000 0.666667
vt 0.740000 0.333333
vn 0.6624 -0.4461 0.6018
s off
mtllib leafwood.mtl
usemtl Leaves
f 1/1/1 2/2/1 6/3/1 3/4/1
f 1/1/1 3/4/1 5/5/1 4/6/1
