# Blender v3.4.0 OBJ File: 'apple_tree10_sapling_05_8_2_2.blend'
# www.blender.org
o leaves.285
v 0.184188 0.020516 1.903592
v 0.209413 0.034495 1.899204
v 0.214469 0.084557 1.898521
v 0.179150 0.049231 1.904600
v 0.189244 0.070579 1.902909
v 0.219507 0.055842 1.897513
vt 0.500000 0.000000
vt 0.260000 0.333333
vt 0.260000 0.666667
vt 0.500000 1.000000
vt 0.740000 0.666667
vt 0.740000 0.333333
vn 0.1736 -0.0041 0.9848
s off
mtllib leafwood.mtl
usemtl Leaves
f 1/1/1 2/2/1 6/3/1 3/4/1
f 1/1/1 3/4/1 5/5/1 4/6/1
