# Blender v3.4.0 OBJ File: 'apple_tree10_sapling_05_8_2_2.blend'
# www.blender.org
o leaves.276
v -0.205650 -0.223652 1.677727
v -0.288006 -0.276529 1.735524
v -0.251430 -0.223787 1.686878
v -0.214774 -0.258768 1.707106
v -0.242226 -0.276394 1.726372
v -0.278882 -0.241413 1.706144
vt 0.500000 0.000000
vt 0.500000 1.000000
vt 0.740000 0.666667
vt 0.740000 0.333333
vt 0.260000 0.333333
vt 0.260000 0.666667
vn 0.1536 0.6103 0.7771
s off
mtllib leafwood.mtl
usemtl Leaves
f 1/1/1 2/2/1 5/3/1 4/4/1
f 1/1/1 3/5/1 6/6/1 2/2/1
