# Blender v3.4.0 OBJ File: 'apple_tree10_sapling_05_8_2_2.blend'
# www.blender.org
o leaves.074
v -0.328489 -0.070512 0.809312
v -0.359749 -0.067380 0.827372
v -0.398334 -0.114969 0.839787
v -0.343792 -0.103282 0.811569
v -0.367074 -0.118101 0.821727
v -0.383031 -0.082199 0.837530
vt 0.500000 0.000000
vt 0.260000 0.333333
vt 0.260000 0.666667
vt 0.500000 1.000000
vt 0.740000 0.666667
vt 0.740000 0.333333
vn 0.4809 -0.1653 0.8611
s off
mtllib leafwood.mtl
usemtl Leaves
f 1/1/1 2/2/1 6/3/1 3/4/1
f 1/1/1 3/4/1 5/5/1 4/6/1
