# Blender v3.4.0 OBJ File: 'apple_tree10_sapling_05_8_2_2.blend'
# www.blender.org
o leaves.315
v 0.209989 0.114166 1.899567
v 0.235275 0.119650 1.914338
v 0.253689 0.166650 1.924006
v 0.213836 0.143671 1.901088
v 0.228403 0.161166 1.909234
v 0.249842 0.137144 1.922484
vt 0.500000 0.000000
vt 0.260000 0.333333
vt 0.260000 0.666667
vt 0.500000 1.000000
vt 0.740000 0.666667
vt 0.740000 0.333333
vn -0.5078 0.0218 0.8612
s off
mtllib leafwood.mtl
usemtl Leaves
f 1/1/1 2/2/1 6/3/1 3/4/1
f 1/1/1 3/4/1 5/5/1 4/6/1
