# Blender v3.4.0 OBJ File: 'apple_tree10_sapling_05_8_2_2.blend'
# www.blender.org
o leaves.181
v 0.142283 -0.099051 1.243398
v 0.128882 -0.130444 1.229462
v 0.164667 -0.178436 1.207988
v 0.170606 -0.120582 1.233728
v 0.178067 -0.147043 1.221924
v 0.136344 -0.156905 1.217658
vt 0.500000 0.000000
vt 0.260000 0.333333
vt 0.260000 0.666667
vt 0.500000 1.000000
vt 0.740000 0.666667
vt 0.740000 0.333333
vn 0.0027 -0.4067 0.9135
s off
mtllib leafwood.mtl
usemtl Leaves
f 1/1/1 2/2/1 6/3/1 3/4/1
f 1/1/1 3/4/1 5/5/1 4/6/1
