# Blender v3.4.0 OBJ File: 'apple_tree10_sapling_05_8_2_2.blend'
# www.blender.org
o leaves.248
v -0.026620 0.286956 1.700939
v -0.017286 0.304288 1.746006
v -0.070263 0.353445 1.790437
v -0.065049 0.313949 1.715538
v -0.079596 0.336112 1.745371
v -0.031833 0.326452 1.775838
vt 0.500000 0.000000
vt 0.260000 0.333333
vt 0.260000 0.666667
vt 0.500000 1.000000
vt 0.740000 0.666667
vt 0.740000 0.333333
vn -0.4200 -0.8145 0.4002
s off
mtllib leafwood.mtl
usemtl Leaves
f 1/1/1 2/2/1 6/3/1 3/4/1
f 1/1/1 3/4/1 5/5/1 4/6/1
