# Blender v3.4.0 OBJ File: 'apple_tree10_sapling_05_8_2_2.blend'
# www.blender.org
o leaves.358
v 0.168347 0.076538 2.302253
v 0.185474 0.105947 2.295452
v 0.237204 0.121721 2.321127
v 0.197125 0.077252 2.321638
v 0.220077 0.092313 2.327929
v 0.208426 0.121008 2.301743
vt 0.500000 0.000000
vt 0.500000 1.000000
vt 0.740000 0.666667
vt 0.740000 0.333333
vt 0.260000 0.333333
vt 0.260000 0.666667
vn -0.5033 0.4620 0.7302
s off
mtllib leafwood.mtl
usemtl Leaves
f 1/1/1 3/2/1 6/3/1 2/4/1
f 1/1/1 4/5/1 5/6/1 3/2/1
