# Blender v3.4.0 OBJ File: 'apple_tree10_sapling_05_8_2_2.blend'
# www.blender.org
o leaves.351
v 0.137345 -0.166978 2.172171
v 0.136906 -0.174255 2.136506
v 0.186652 -0.168938 2.098554
v 0.170655 -0.161007 2.158758
v 0.187091 -0.161661 2.134219
v 0.153342 -0.174909 2.111967
vt 0.500000 0.000000
vt 0.260000 0.333333
vt 0.260000 0.666667
vt 0.500000 1.000000
vt 0.740000 0.666667
vt 0.740000 0.333333
vn 0.2471 -0.9500 0.1908
s off
mtllib leafwood.mtl
usemtl Leaves
f 1/1/1 2/2/1 6/3/1 3/4/1
f 1/1/1 3/4/1 5/5/1 4/6/1
