# Blender v3.4.0 OBJ File: 'apple_tree10_sapling_05_8_2_2.blend'
# www.blender.org
o leaves.048
v -0.108064 -0.247586 0.765560
v -0.149175 -0.258444 0.755895
v -0.188897 -0.311101 0.792054
v -0.120842 -0.279070 0.792887
v -0.147787 -0.300242 0.801719
v -0.176119 -0.279616 0.764726
vt 0.500000 0.000000
vt 0.260000 0.333333
vt 0.260000 0.666667
vt 0.500000 1.000000
vt 0.740000 0.666667
vt 0.740000 0.333333
vn -0.3333 0.6915 0.6409
s off
mtllib leafwood.mtl
usemtl Leaves
f 1/1/1 2/2/1 6/3/1 3/4/1
f 1/1/1 3/4/1 5/5/1 4/6/1
