# Blender v3.4.0 OBJ File: 'apple_tree10_sapling_05_8_2_2.blend'
# www.blender.org
o leaves.227
v -0.272151 0.047005 1.483573
v -0.264152 0.078236 1.504475
v -0.307195 0.108318 1.544912
v -0.303512 0.056651 1.503564
v -0.315193 0.077088 1.524010
v -0.275833 0.098673 1.524921
vt 0.500000 0.000000
vt 0.260000 0.333333
vt 0.260000 0.666667
vt 0.500000 1.000000
vt 0.740000 0.666667
vt 0.740000 0.333333
vn 0.3019 -0.5824 0.7547
vn 0.3020 -0.5824 0.7547
s off
mtllib leafwood.mtl
usemtl Leaves
f 1/1/1 2/2/1 6/3/1 3/4/1
f 1/1/2 3/4/2 5/5/2 4/6/2
