# Blender v3.4.0 OBJ File: 'apple_tree10_sapling_05_8_2_2.blend'
# www.blender.org
o leaves.062
v 0.265649 0.033188 0.838255
v 0.340331 0.021604 0.883281
v 0.294485 0.050032 0.852051
v 0.286600 0.008620 0.854476
v 0.311494 0.004759 0.869485
v 0.319379 0.046171 0.867060
vt 0.500000 0.000000
vt 0.500000 1.000000
vt 0.740000 0.666667
vt 0.740000 0.333333
vt 0.260000 0.333333
vt 0.260000 0.666667
vn -0.4944 0.1443 0.8572
s off
mtllib leafwood.mtl
usemtl Leaves
f 1/1/1 2/2/1 6/3/1 3/4/1
f 1/1/1 4/5/1 5/6/1 2/2/1
