# Blender v3.4.0 OBJ File: 'apple_tree10_sapling_05_8_2_2.blend'
# www.blender.org
o leaves.057
v 0.264006 0.159619 0.791199
v 0.291792 0.160243 0.803263
v 0.307229 0.193822 0.840220
v 0.265035 0.181797 0.811816
v 0.279443 0.193198 0.828157
v 0.306199 0.171644 0.819603
vt 0.500000 0.000000
vt 0.260000 0.333333
vt 0.260000 0.666667
vt 0.500000 1.000000
vt 0.740000 0.666667
vt 0.740000 0.333333
vn -0.2925 -0.6438 0.7071
s off
mtllib leafwood.mtl
usemtl Leaves
f 1/1/1 2/2/1 6/3/1 3/4/1
f 1/1/1 3/4/1 5/5/1 4/6/1
