# Blender v3.4.0 OBJ File: 'apple_tree10_sapling_05_8_2_2.blend'
# www.blender.org
o leaves.239
v 0.229016 -0.101382 1.573928
v 0.228232 -0.133112 1.597894
v 0.278085 -0.180092 1.601728
v 0.262513 -0.122125 1.568495
v 0.278869 -0.148362 1.577762
v 0.244588 -0.159349 1.607161
vt 0.500000 0.000000
vt 0.260000 0.333333
vt 0.260000 0.666667
vt 0.500000 1.000000
vt 0.740000 0.666667
vt 0.740000 0.333333
vn 0.4463 0.5323 0.7193
s off
mtllib leafwood.mtl
usemtl Leaves
f 1/1/1 2/2/1 6/3/1 3/4/1
f 1/1/1 3/4/1 5/5/1 4/6/1
