# Blender v3.4.0 OBJ File: 'apple_tree10_sapling_05_8_2_2.blend'
# www.blender.org
o leaves.134
v -0.170491 0.085967 1.047826
v -0.171546 0.142140 1.082883
v -0.162376 0.111926 1.048172
v -0.179309 0.097456 1.070850
v -0.179661 0.116180 1.082536
v -0.162728 0.130651 1.059858
vt 0.500000 0.000000
vt 0.500000 1.000000
vt 0.740000 0.666667
vt 0.740000 0.333333
vt 0.260000 0.333333
vt 0.260000 0.666667
vn 0.8462 -0.2706 0.4591
s off
mtllib leafwood.mtl
usemtl Leaves
f 1/1/1 2/2/1 5/3/1 4/4/1
f 1/1/1 3/5/1 6/6/1 2/2/1
