# Blender v3.4.0 OBJ File: 'apple_tree10_sapling_05_8_2_2.blend'
# www.blender.org
o leaves.246
v 0.152185 0.209331 1.467054
v 0.183437 0.201892 1.454279
v 0.215552 0.238731 1.420099
v 0.163177 0.236370 1.448525
v 0.184299 0.246170 1.432874
v 0.204559 0.211693 1.438628
vt 0.500000 0.000000
vt 0.260000 0.333333
vt 0.260000 0.666667
vt 0.500000 1.000000
vt 0.740000 0.666667
vt 0.740000 0.333333
vn 0.4263 0.3870 0.8176
s off
mtllib leafwood.mtl
usemtl Leaves
f 1/1/1 2/2/1 6/3/1 3/4/1
f 1/1/1 3/4/1 5/5/1 4/6/1
