# Blender v3.4.0 OBJ File: 'apple_tree10_sapling_05_8_2_2.blend'
# www.blender.org
o leaves.197
v -0.095515 0.311424 1.288450
v -0.077114 0.366576 1.287697
v -0.137235 0.446324 1.278382
v -0.141729 0.346205 1.282492
v -0.155636 0.391172 1.279136
v -0.091021 0.411543 1.284341
vt 0.500000 0.000000
vt 0.260000 0.333333
vt 0.260000 0.666667
vt 0.500000 1.000000
vt 0.740000 0.666667
vt 0.740000 0.333333
vn -0.0943 0.0451 0.9945
s off
mtllib leafwood.mtl
usemtl Leaves
f 1/1/1 2/2/1 6/3/1 3/4/1
f 1/1/1 3/4/1 5/5/1 4/6/1
