# Blender v3.4.0 OBJ File: 'apple_tree10_sapling_05_8_2_2.blend'
# www.blender.org
o leaves.301
v 0.091641 -0.219982 1.769536
v 0.078430 -0.239261 1.739827
v 0.107509 -0.291547 1.713897
v 0.115431 -0.248414 1.762152
v 0.120720 -0.272269 1.743605
v 0.083719 -0.263116 1.721281
vt 0.500000 0.000000
vt 0.260000 0.333333
vt 0.260000 0.666667
vt 0.500000 1.000000
vt 0.740000 0.666667
vt 0.740000 0.333333
vn -0.5183 -0.5936 0.6157
s off
mtllib leafwood.mtl
usemtl Leaves
f 1/1/1 2/2/1 6/3/1 3/4/1
f 1/1/1 3/4/1 5/5/1 4/6/1
