# Blender v3.4.0 OBJ File: 'apple_tree10_sapling_05_8_2_2.blend'
# www.blender.org
o leaves.042
v -0.050713 -0.127816 0.745462
v -0.096892 -0.139822 0.750212
v -0.126033 -0.191971 0.807424
v -0.054746 -0.158581 0.782021
v -0.079853 -0.179965 0.802675
v -0.121999 -0.161207 0.770866
vt 0.500000 0.000000
vt 0.260000 0.333333
vt 0.260000 0.666667
vt 0.500000 1.000000
vt 0.740000 0.666667
vt 0.740000 0.333333
vn -0.1343 0.7655 0.6293
s off
mtllib leafwood.mtl
usemtl Leaves
f 1/1/1 2/2/1 6/3/1 3/4/1
f 1/1/1 3/4/1 5/5/1 4/6/1
