# Blender v3.4.0 OBJ File: 'apple_tree10_sapling_05_8_2_2.blend'
# www.blender.org
o leaves.102
v 0.096519 -0.186484 0.958981
v 0.141527 -0.279015 0.992903
v 0.134769 -0.209010 0.962132
v 0.088275 -0.225645 0.978445
v 0.103278 -0.256489 0.989752
v 0.149772 -0.239853 0.973439
vt 0.500000 0.000000
vt 0.500000 1.000000
vt 0.740000 0.666667
vt 0.740000 0.333333
vt 0.260000 0.333333
vt 0.260000 0.666667
vn 0.1677 0.4102 0.8964
s off
mtllib leafwood.mtl
usemtl Leaves
f 1/1/1 2/2/1 6/3/1 3/4/1
f 1/1/1 4/5/1 5/6/1 2/2/1
