# Blender v3.4.0 OBJ File: 'apple_tree10_sapling_05_8_2_2.blend'
# www.blender.org
o leaves.144
v -0.300401 0.119459 1.084644
v -0.321024 0.158446 1.094296
v -0.341327 0.119114 1.065581
v -0.392723 0.177423 1.070526
v -0.372101 0.138435 1.060875
v -0.351798 0.177768 1.089590
vt 0.500000 0.000000
vt 0.260000 0.333333
vt 0.260000 0.666667
vt 0.500000 1.000000
vt 0.740000 0.666667
vt 0.740000 0.333333
vn -0.3827 -0.4077 0.8290
s off
mtllib leafwood.mtl
usemtl Leaves
f 1/1/1 2/2/1 6/3/1 4/4/1
f 1/1/1 4/4/1 5/5/1 3/6/1
