# Blender v3.4.0 OBJ File: 'apple_tree10_sapling_05_8_2_2.blend'
# www.blender.org
o leaves.086
v -0.253355 0.148406 0.904656
v -0.283615 0.174218 0.908691
v -0.343983 0.169009 0.875763
v -0.283514 0.136330 0.881359
v -0.313724 0.143198 0.871728
v -0.313824 0.181086 0.899060
vt 0.500000 0.000000
vt 0.260000 0.333333
vt 0.260000 0.666667
vt 0.500000 1.000000
vt 0.740000 0.666667
vt 0.740000 0.333333
vn -0.3646 -0.5454 0.7547
s off
mtllib leafwood.mtl
usemtl Leaves
f 1/1/1 2/2/1 6/3/1 3/4/1
f 1/1/1 3/4/1 5/5/1 4/6/1
