# Blender v3.4.0 OBJ File: 'apple_tree10_sapling_05_8_2_2.blend'
# www.blender.org
o leaves.047
v -0.107001 -0.245584 0.764843
v -0.130188 -0.261276 0.800768
v -0.120962 -0.332867 0.831798
v -0.093122 -0.288081 0.773554
v -0.097776 -0.317175 0.795872
v -0.134842 -0.290370 0.823087
vt 0.500000 0.000000
vt 0.260000 0.333333
vt 0.260000 0.666667
vt 0.500000 1.000000
vt 0.740000 0.666667
vt 0.740000 0.333333
vn 0.7065 0.3561 0.6116
s off
mtllib leafwood.mtl
usemtl Leaves
f 1/1/1 2/2/1 6/3/1 3/4/1
f 1/1/1 3/4/1 5/5/1 4/6/1
