# Blender v3.4.0 OBJ File: 'apple_tree10_sapling_05_8_2_2.blend'
# www.blender.org
o leaves.249
v -0.026832 0.289294 1.702910
v 0.015803 0.292231 1.735160
v 0.039358 0.367038 1.783934
v -0.025340 0.338186 1.724676
v -0.003277 0.364101 1.751684
v 0.037867 0.318146 1.762168
vt 0.500000 0.000000
vt 0.260000 0.333333
vt 0.260000 0.666667
vt 0.500000 1.000000
vt 0.740000 0.666667
vt 0.740000 0.333333
vn -0.5565 -0.3237 0.7652
s off
mtllib leafwood.mtl
usemtl Leaves
f 1/1/1 2/2/1 6/3/1 3/4/1
f 1/1/1 3/4/1 5/5/1 4/6/1
