# Blender v3.4.0 OBJ File: 'apple_tree10_sapling_05_8_2_2.blend'
# www.blender.org
o leaves.138
v -0.332215 0.036361 1.067827
v -0.370680 -0.013989 1.068655
v -0.357102 0.028778 1.067061
v -0.332972 0.010378 1.069145
v -0.345793 -0.006405 1.069421
v -0.369923 0.011994 1.067337
vt 0.500000 0.000000
vt 0.500000 1.000000
vt 0.740000 0.666667
vt 0.740000 0.333333
vt 0.260000 0.333333
vt 0.260000 0.666667
vn -0.0465 0.0520 0.9976
s off
mtllib leafwood.mtl
usemtl Leaves
f 1/1/1 2/2/1 5/3/1 4/4/1
f 1/1/1 3/5/1 6/6/1 2/2/1
