# Blender v3.4.0 OBJ File: 'apple_tree10_sapling_05_8_2_2.blend'
# www.blender.org
o leaves.162
v -0.128443 -0.196322 1.204968
v -0.144994 -0.183106 1.247962
v -0.127924 -0.234554 1.233867
v -0.152491 -0.233846 1.312807
v -0.135940 -0.247062 1.269813
v -0.153010 -0.195613 1.283909
vt 0.500000 0.000000
vt 0.260000 0.333333
vt 0.260000 0.666667
vt 0.500000 1.000000
vt 0.740000 0.666667
vt 0.740000 0.333333
vn 0.9299 0.2298 0.2873
s off
mtllib leafwood.mtl
usemtl Leaves
f 1/1/1 2/2/1 6/3/1 4/4/1
f 1/1/1 4/4/1 5/5/1 3/6/1
