# Blender v3.4.0 OBJ File: 'apple_tree10_sapling_05_8_2_2.blend'
# www.blender.org
o leaves.283
v 0.179854 0.016000 1.896973
v 0.221291 0.020056 1.891016
v 0.264994 0.060304 1.932659
v 0.195177 0.041480 1.926721
v 0.223557 0.056248 1.938617
v 0.249671 0.034824 1.902912
vt 0.500000 0.000000
vt 0.260000 0.333333
vt 0.260000 0.666667
vt 0.500000 1.000000
vt 0.740000 0.666667
vt 0.740000 0.333333
vn 0.1624 -0.7892 0.5923
s off
mtllib leafwood.mtl
usemtl Leaves
f 1/1/1 2/2/1 6/3/1 3/4/1
f 1/1/1 3/4/1 5/5/1 4/6/1
