# Blender v3.4.0 OBJ File: 'apple_tree10_sapling_05_8_2_2.blend'
# www.blender.org
o leaves.328
v -0.169236 -0.124526 2.099012
v -0.241876 -0.170315 2.166076
v -0.177228 -0.159941 2.125178
v -0.209671 -0.119637 2.117555
v -0.233884 -0.134900 2.139910
v -0.201441 -0.175204 2.147532
vt 0.500000 0.000000
vt 0.500000 1.000000
vt 0.740000 0.666667
vt 0.740000 0.333333
vt 0.260000 0.333333
vt 0.260000 0.666667
vn 0.4131 0.4790 0.7745
s off
mtllib leafwood.mtl
usemtl Leaves
f 1/1/1 2/2/1 6/3/1 3/4/1
f 1/1/1 4/5/1 5/6/1 2/2/1
