# Blender v3.4.0 OBJ File: 'apple_tree10_sapling_05_8_2_2.blend'
# www.blender.org
o leaves.242
v 0.144903 0.197444 1.475344
v 0.258624 0.263224 1.460651
v 0.167596 0.246773 1.475367
v 0.198025 0.191968 1.465526
v 0.235931 0.213895 1.460628
v 0.205503 0.268699 1.470469
vt 0.500000 0.000000
vt 0.500000 1.000000
vt 0.740000 0.666667
vt 0.740000 0.333333
vt 0.260000 0.333333
vt 0.260000 0.666667
vn 0.1732 -0.0801 0.9816
s off
mtllib leafwood.mtl
usemtl Leaves
f 1/1/1 2/2/1 6/3/1 3/4/1
f 1/1/1 4/5/1 5/6/1 2/2/1
