# Blender v3.4.0 OBJ File: 'apple_tree10_sapling_05_8_2_2.blend'
# www.blender.org
o leaves.025
v 0.053358 0.221500 0.694643
v 0.121991 0.320832 0.646091
v 0.099331 0.248483 0.698570
v 0.053140 0.260739 0.658348
v 0.076017 0.293849 0.642164
v 0.122209 0.281593 0.682386
vt 0.500000 0.000000
vt 0.500000 1.000000
vt 0.740000 0.666667
vt 0.740000 0.333333
vt 0.260000 0.333333
vt 0.260000 0.666667
vn -0.4183 0.6155 0.6679
s off
mtllib leafwood.mtl
usemtl Leaves
f 1/1/1 2/2/1 5/3/1 4/4/1
f 1/1/1 3/5/1 6/6/1 2/2/1
