# Blender v3.4.0 OBJ File: 'apple_tree10_sapling_05_8_2_2.blend'
# www.blender.org
o leaves.077
v -0.234522 -0.129441 0.872244
v -0.200354 -0.170536 0.865081
v -0.262266 -0.175549 0.875691
v -0.224886 -0.260247 0.866670
v -0.197142 -0.214138 0.863223
v -0.259054 -0.219151 0.873833
vt 0.500000 0.000000
vt 0.500000 1.000000
vt 0.740000 0.666667
vt 0.740000 0.333333
vt 0.260000 0.333333
vt 0.260000 0.666667
vn 0.1711 -0.0294 0.9848
s off
mtllib leafwood.mtl
usemtl Leaves
f 1/1/1 4/2/1 5/3/1 2/4/1
f 1/1/1 3/5/1 6/6/1 4/2/1
