# Blender v3.4.0 OBJ File: 'apple_tree10_sapling_05_8_2_2.blend'
# www.blender.org
o leaves.087
v -0.258757 0.152586 0.907112
v -0.264208 0.189782 0.887367
v -0.326372 0.228513 0.888386
v -0.298383 0.166009 0.914373
v -0.320921 0.191318 0.908131
v -0.286746 0.215091 0.881125
vt 0.500000 0.000000
vt 0.260000 0.333333
vt 0.260000 0.666667
vt 0.500000 1.000000
vt 0.740000 0.666667
vt 0.740000 0.333333
vn 0.3129 0.4807 0.8192
s off
mtllib leafwood.mtl
usemtl Leaves
f 1/1/1 2/2/1 6/3/1 3/4/1
f 1/1/1 3/4/1 5/5/1 4/6/1
