# Blender v3.4.0 OBJ File: 'apple_tree10_sapling_05_8_2_2.blend'
# www.blender.org
o leaves.060
v 0.264179 0.031110 0.839672
v 0.261164 0.000884 0.841274
v 0.270324 -0.027616 0.884371
v 0.271291 0.022186 0.867869
v 0.273339 0.002610 0.882769
v 0.263212 -0.018692 0.856173
vt 0.500000 0.000000
vt 0.260000 0.333333
vt 0.260000 0.666667
vt 0.500000 1.000000
vt 0.740000 0.666667
vt 0.740000 0.333333
vn -0.9550 0.1099 0.2756
s off
mtllib leafwood.mtl
usemtl Leaves
f 1/1/1 2/2/1 6/3/1 3/4/1
f 1/1/1 3/4/1 5/5/1 4/6/1
