# Blender v3.4.0 OBJ File: 'apple_tree10_sapling_05_8_2_2.blend'
# www.blender.org
o leaves.183
v 0.139737 -0.107155 1.245372
v 0.083523 -0.162409 1.243586
v 0.107784 -0.112088 1.243528
v 0.134214 -0.139059 1.246025
v 0.115476 -0.157476 1.245430
v 0.089046 -0.130506 1.242933
vt 0.500000 0.000000
vt 0.500000 1.000000
vt 0.740000 0.666667
vt 0.740000 0.333333
vt 0.260000 0.333333
vt 0.260000 0.666667
vn -0.0624 0.0312 0.9976
s off
mtllib leafwood.mtl
usemtl Leaves
f 1/1/1 2/2/1 5/3/1 4/4/1
f 1/1/1 3/5/1 6/6/1 2/2/1
