# Blender v3.4.0 OBJ File: 'apple_tree10_sapling_05_8_2_2.blend'
# www.blender.org
o leaves.024
v 0.052641 0.214828 0.695555
v 0.089435 0.243407 0.683057
v 0.085631 0.326480 0.680160
v 0.037840 0.260683 0.697789
v 0.048837 0.297901 0.692657
v 0.100432 0.280624 0.677926
vt 0.500000 0.000000
vt 0.260000 0.333333
vt 0.260000 0.666667
vt 0.500000 1.000000
vt 0.740000 0.666667
vt 0.740000 0.333333
vn 0.2886 0.0466 0.9563
s off
mtllib leafwood.mtl
usemtl Leaves
f 1/1/1 2/2/1 6/3/1 3/4/1
f 1/1/1 3/4/1 5/5/1 4/6/1
