# Blender v3.4.0 OBJ File: 'apple_tree10_sapling_05_8_2_2.blend'
# www.blender.org
o leaves.314
v 0.203017 0.111334 1.897705
v 0.253064 0.175471 1.893480
v 0.207992 0.142646 1.908400
v 0.231407 0.122780 1.884193
v 0.248089 0.144159 1.882785
v 0.224674 0.164025 1.906992
vt 0.500000 0.000000
vt 0.500000 1.000000
vt 0.740000 0.666667
vt 0.740000 0.333333
vt 0.260000 0.333333
vt 0.260000 0.666667
vn 0.5138 -0.3493 0.7836
s off
mtllib leafwood.mtl
usemtl Leaves
f 1/1/1 2/2/1 6/3/1 3/4/1
f 1/1/1 4/5/1 5/6/1 2/2/1
