# Blender v3.4.0 OBJ File: 'apple_tree10_sapling_05_8_2_2.blend'
# www.blender.org
o leaves.115
v 0.304992 0.041115 1.022488
v 0.339577 0.023986 1.002055
v 0.397147 0.064168 0.974743
v 0.331844 0.073613 1.011092
v 0.362562 0.081297 0.995177
v 0.370295 0.031670 0.986140
vt 0.500000 0.000000
vt 0.260000 0.333333
vt 0.260000 0.666667
vt 0.500000 1.000000
vt 0.740000 0.666667
vt 0.740000 0.333333
vn 0.4751 -0.0855 0.8758
s off
mtllib leafwood.mtl
usemtl Leaves
f 1/1/1 2/2/1 6/3/1 3/4/1
f 1/1/1 3/4/1 5/5/1 4/6/1
