# Blender v3.4.0 OBJ File: 'apple_tree10_sapling_05_8_2_2.blend'
# www.blender.org
o leaves.009
v 0.247856 0.007132 0.676836
v 0.257752 -0.034036 0.662954
v 0.328917 -0.058953 0.648027
v 0.292000 0.004243 0.671512
v 0.319020 -0.017786 0.661909
v 0.284773 -0.056064 0.653351
vt 0.500000 0.000000
vt 0.260000 0.333333
vt 0.260000 0.666667
vt 0.500000 1.000000
vt 0.740000 0.666667
vt 0.740000 0.333333
vn 0.0951 -0.2975 0.9500
s off
mtllib leafwood.mtl
usemtl Leaves
f 1/1/1 2/2/1 6/3/1 3/4/1
f 1/1/1 3/4/1 5/5/1 4/6/1
