# Blender v3.4.0 OBJ File: 'apple_tree10_sapling_05_8_2_2.blend'
# www.blender.org
o leaves.128
v 0.239226 0.108558 1.070348
v 0.248458 0.129032 1.075908
v 0.229371 0.157657 1.096141
v 0.223424 0.120816 1.081983
v 0.220139 0.137183 1.090581
v 0.245173 0.145399 1.084506
vt 0.500000 0.000000
vt 0.260000 0.333333
vt 0.260000 0.666667
vt 0.500000 1.000000
vt 0.740000 0.666667
vt 0.740000 0.333333
vn 0.3350 -0.3846 0.8602
s off
mtllib leafwood.mtl
usemtl Leaves
f 1/1/1 2/2/1 6/3/1 3/4/1
f 1/1/1 3/4/1 5/5/1 4/6/1
