# Blender v3.4.0 OBJ File: 'apple_tree10_sapling_05_8_2_2.blend'
# www.blender.org
o leaves.208
v -0.223199 0.244090 1.299611
v -0.213953 0.270636 1.294040
v -0.229878 0.298474 1.256421
v -0.236898 0.253800 1.276389
v -0.239124 0.271928 1.261992
v -0.216179 0.288764 1.279644
vt 0.500000 0.000000
vt 0.260000 0.333333
vt 0.260000 0.666667
vt 0.500000 1.000000
vt 0.740000 0.666667
vt 0.740000 0.333333
vn -0.7221 0.3737 0.5822
s off
mtllib leafwood.mtl
usemtl Leaves
f 1/1/1 2/2/1 6/3/1 3/4/1
f 1/1/1 3/4/1 5/5/1 4/6/1
