# Blender v3.4.0 OBJ File: 'apple_tree10_sapling_05_8_2_2.blend'
# www.blender.org
o leaves.266
v -0.021495 -0.289420 1.860078
v -0.022322 -0.320678 1.868571
v -0.051994 -0.297169 1.867801
v -0.068483 -0.347929 1.884402
v -0.067657 -0.316672 1.875908
v -0.037984 -0.340181 1.876679
vt 0.500000 0.000000
vt 0.500000 1.000000
vt 0.740000 0.666667
vt 0.740000 0.333333
vt 0.260000 0.333333
vt 0.260000 0.666667
vn 0.1764 0.2538 0.9511
s off
mtllib leafwood.mtl
usemtl Leaves
f 1/1/1 4/2/1 6/3/1 2/4/1
f 1/1/1 3/5/1 5/6/1 4/2/1
