# Blender v3.4.0 OBJ File: 'apple_tree10_sapling_05_8_2_2.blend'
# www.blender.org
o leaves.010
v 0.253563 0.005758 0.675257
v 0.270030 -0.016973 0.666666
v 0.307972 -0.036719 0.693769
v 0.273369 0.000172 0.696189
v 0.291506 -0.013988 0.702360
v 0.288166 -0.031132 0.672836
vt 0.500000 0.000000
vt 0.260000 0.333333
vt 0.260000 0.666667
vt 0.500000 1.000000
vt 0.740000 0.666667
vt 0.740000 0.333333
vn -0.6410 -0.6300 0.4384
s off
mtllib leafwood.mtl
usemtl Leaves
f 1/1/1 2/2/1 6/3/1 3/4/1
f 1/1/1 3/4/1 5/5/1 4/6/1
