# Blender v3.4.0 OBJ File: 'apple_tree10_sapling_05_8_2_2.blend'
# www.blender.org
o leaves.095
v -0.307224 0.030511 0.860627
v -0.301307 0.062660 0.865899
v -0.336823 0.097968 0.893369
v -0.332873 0.043333 0.877183
v -0.342740 0.065819 0.888097
v -0.311173 0.085146 0.876814
vt 0.500000 0.000000
vt 0.260000 0.333333
vt 0.260000 0.666667
vt 0.500000 1.000000
vt 0.740000 0.666667
vt 0.740000 0.333333
vn 0.4469 -0.2243 0.8660
s off
mtllib leafwood.mtl
usemtl Leaves
f 1/1/1 2/2/1 6/3/1 3/4/1
f 1/1/1 3/4/1 5/5/1 4/6/1
