# Blender v3.4.0 OBJ File: 'apple_tree10_sapling_05_8_2_2.blend'
# www.blender.org
o leaves.296
v 0.148688 -0.064260 1.907368
v 0.098819 -0.139899 1.916279
v 0.150337 -0.101426 1.911139
v 0.113793 -0.077521 1.909537
v 0.097170 -0.102733 1.912508
v 0.133714 -0.126639 1.914110
vt 0.500000 0.000000
vt 0.500000 1.000000
vt 0.740000 0.666667
vt 0.740000 0.333333
vt 0.260000 0.333333
vt 0.260000 0.666667
vn 0.0231 0.1019 0.9945
s off
mtllib leafwood.mtl
usemtl Leaves
f 1/1/1 2/2/1 6/3/1 3/4/1
f 1/1/1 4/5/1 5/6/1 2/2/1
