# Blender v3.4.0 OBJ File: 'apple_tree10_sapling_05_8_2_2.blend'
# www.blender.org
o leaves.289
v 0.163558 -0.176791 1.810162
v 0.197102 -0.205194 1.818983
v 0.260124 -0.187077 1.859978
v 0.194391 -0.155245 1.834552
v 0.226580 -0.158674 1.851157
v 0.229291 -0.208623 1.835588
vt 0.500000 0.000000
vt 0.260000 0.333333
vt 0.260000 0.666667
vt 0.500000 1.000000
vt 0.740000 0.666667
vt 0.740000 0.333333
vn -0.4632 -0.2865 0.8387
s off
mtllib leafwood.mtl
usemtl Leaves
f 1/1/1 2/2/1 6/3/1 3/4/1
f 1/1/1 3/4/1 5/5/1 4/6/1
