# Blender v3.4.0 OBJ File: 'apple_tree10_sapling_05_8_2_2.blend'
# www.blender.org
o leaves.150
v -0.328128 0.006463 1.109098
v -0.335075 0.055233 1.107284
v -0.408867 0.092607 1.087548
v -0.375006 0.015122 1.096546
v -0.401919 0.043837 1.089362
v -0.361988 0.083948 1.100100
vt 0.500000 0.000000
vt 0.260000 0.333333
vt 0.260000 0.666667
vt 0.500000 1.000000
vt 0.740000 0.666667
vt 0.740000 0.333333
vn -0.2588 -0.0009 0.9659
s off
mtllib leafwood.mtl
usemtl Leaves
f 1/1/1 2/2/1 6/3/1 3/4/1
f 1/1/1 3/4/1 5/5/1 4/6/1
