# Blender v3.4.0 OBJ File: 'apple_tree10_sapling_05_8_2_2.blend'
# www.blender.org
o leaves.186
v -0.031241 0.178575 1.290068
v 0.004336 0.216579 1.301722
v -0.010653 0.306801 1.291536
v -0.053092 0.226055 1.279392
v -0.046229 0.268797 1.279881
v 0.011199 0.259321 1.302211
vt 0.500000 0.000000
vt 0.260000 0.333333
vt 0.260000 0.666667
vt 0.500000 1.000000
vt 0.740000 0.666667
vt 0.740000 0.333333
vn -0.3554 0.0464 0.9336
s off
mtllib leafwood.mtl
usemtl Leaves
f 1/1/1 2/2/1 6/3/1 3/4/1
f 1/1/1 3/4/1 5/5/1 4/6/1
