# Blender v3.4.0 OBJ File: 'apple_tree10_sapling_05_8_2_2.blend'
# www.blender.org
o leaves.275
v -0.203625 -0.221514 1.676997
v -0.257821 -0.198908 1.673992
v -0.342947 -0.254023 1.672003
v -0.242310 -0.265793 1.676673
v -0.288751 -0.276630 1.675008
v -0.304262 -0.209744 1.672328
vt 0.500000 0.000000
vt 0.260000 0.333333
vt 0.260000 0.666667
vt 0.500000 1.000000
vt 0.740000 0.666667
vt 0.740000 0.333333
vn -0.0428 0.0301 0.9986
s off
mtllib leafwood.mtl
usemtl Leaves
f 1/1/1 2/2/1 6/3/1 3/4/1
f 1/1/1 3/4/1 5/5/1 4/6/1
