# Blender v3.4.0 OBJ File: 'apple_tree10_sapling_05_8_2_2.blend'
# www.blender.org
o leaves.190
v -0.014956 0.324331 1.316863
v 0.015793 0.369153 1.325076
v -0.009145 0.441875 1.380594
v -0.041831 0.357872 1.351137
v -0.039894 0.397053 1.372381
v 0.017730 0.408334 1.346320
vt 0.500000 0.000000
vt 0.260000 0.333333
vt 0.260000 0.666667
vt 0.500000 1.000000
vt 0.740000 0.666667
vt 0.740000 0.333333
vn 0.4399 -0.4447 0.7802
s off
mtllib leafwood.mtl
usemtl Leaves
f 1/1/1 2/2/1 6/3/1 3/4/1
f 1/1/1 3/4/1 5/5/1 4/6/1
