# Blender v3.4.0 OBJ File: 'apple_tree10_sapling_05_8_2_2.blend'
# www.blender.org
o leaves.073
v -0.322512 -0.068320 0.808909
v -0.362110 -0.067699 0.807549
v -0.399783 -0.102164 0.762100
v -0.334428 -0.091504 0.779063
v -0.360185 -0.102785 0.763460
v -0.387867 -0.078980 0.791946
vt 0.500000 0.000000
vt 0.260000 0.333333
vt 0.260000 0.666667
vt 0.500000 1.000000
vt 0.740000 0.666667
vt 0.740000 0.333333
vn -0.0336 -0.7827 0.6214
s off
mtllib leafwood.mtl
usemtl Leaves
f 1/1/1 2/2/1 6/3/1 3/4/1
f 1/1/1 3/4/1 5/5/1 4/6/1
