# Blender v3.4.0 OBJ File: 'apple_tree10_sapling_05_8_2_2.blend'
# www.blender.org
o leaves.151
v -0.333912 0.008699 1.110488
v -0.346013 0.053864 1.096038
v -0.424339 0.078239 1.076084
v -0.382095 0.009894 1.102002
v -0.412237 0.033074 1.090534
v -0.376155 0.077044 1.084570
vt 0.500000 0.000000
vt 0.260000 0.333333
vt 0.260000 0.666667
vt 0.500000 1.000000
vt 0.740000 0.666667
vt 0.740000 0.333333
vn -0.1611 0.2613 0.9517
s off
mtllib leafwood.mtl
usemtl Leaves
f 1/1/1 2/2/1 6/3/1 3/4/1
f 1/1/1 3/4/1 5/5/1 4/6/1
