# Blender v3.4.0 OBJ File: 'apple_tree10_sapling_05_8_2_2.blend'
# www.blender.org
o leaves.274
v -0.260222 -0.116851 1.789461
v -0.262615 -0.104224 1.810817
v -0.260234 -0.121920 1.849931
v -0.257837 -0.132857 1.808418
v -0.257841 -0.134546 1.828575
v -0.262619 -0.105914 1.830974
vt 0.500000 0.000000
vt 0.260000 0.333333
vt 0.260000 0.666667
vt 0.500000 1.000000
vt 0.740000 0.666667
vt 0.740000 0.333333
vn 0.9865 0.1635 0.0139
s off
mtllib leafwood.mtl
usemtl Leaves
f 1/1/1 2/2/1 6/3/1 3/4/1
f 1/1/1 3/4/1 5/5/1 4/6/1
