# Blender v3.4.0 OBJ File: 'apple_tree10_sapling_05_8_2_2.blend'
# www.blender.org
o leaves.365
v -0.000611 0.011159 2.410911
v -0.001868 -0.014141 2.443936
v 0.048784 -0.062397 2.460079
v 0.033576 -0.012579 2.410665
v 0.050041 -0.037097 2.427055
v 0.014597 -0.038659 2.460326
vt 0.500000 0.000000
vt 0.260000 0.333333
vt 0.260000 0.666667
vt 0.500000 1.000000
vt 0.740000 0.666667
vt 0.740000 0.333333
vn 0.4810 0.6871 0.5446
vn 0.4810 0.6870 0.5446
s off
mtllib leafwood.mtl
usemtl Leaves
f 1/1/1 2/2/1 6/3/1 3/4/1
f 1/1/2 3/4/2 5/5/2 4/6/2
