# Blender v3.4.0 OBJ File: 'apple_tree10_sapling_05_8_2_2.blend'
# www.blender.org
o leaves.099
v 0.053491 -0.114357 0.905863
v 0.051237 -0.154366 0.897803
v 0.107091 -0.196664 0.889881
v 0.091479 -0.129220 0.903268
v 0.109346 -0.156656 0.897941
v 0.069103 -0.181801 0.892476
vt 0.500000 0.000000
vt 0.260000 0.333333
vt 0.260000 0.666667
vt 0.500000 1.000000
vt 0.740000 0.666667
vt 0.740000 0.333333
vn -0.0101 -0.1969 0.9804
s off
mtllib leafwood.mtl
usemtl Leaves
f 1/1/1 2/2/1 6/3/1 3/4/1
f 1/1/1 3/4/1 5/5/1 4/6/1
