# Blender v3.4.0 OBJ File: 'apple_tree10_sapling_05_8_2_2.blend'
# www.blender.org
o leaves.053
v 0.241794 0.143917 0.784924
v 0.289571 0.142683 0.773319
v 0.333228 0.208651 0.742661
v 0.254974 0.188307 0.768353
v 0.285452 0.209885 0.754265
v 0.320049 0.164261 0.759232
vt 0.500000 0.000000
vt 0.260000 0.333333
vt 0.260000 0.666667
vt 0.500000 1.000000
vt 0.740000 0.666667
vt 0.740000 0.333333
vn 0.2335 0.2785 0.9316
s off
mtllib leafwood.mtl
usemtl Leaves
f 1/1/1 2/2/1 6/3/1 3/4/1
f 1/1/1 3/4/1 5/5/1 4/6/1
