# Blender v3.4.0 OBJ File: 'apple_tree10_sapling_05_8_2_2.blend'
# www.blender.org
o leaves.016
v 0.129213 0.206653 0.660896
v 0.158075 0.230065 0.668155
v 0.157978 0.294038 0.654949
v 0.119528 0.241497 0.649673
v 0.129116 0.270625 0.647691
v 0.167664 0.259194 0.666173
vt 0.500000 0.000000
vt 0.260000 0.333333
vt 0.260000 0.666667
vt 0.500000 1.000000
vt 0.740000 0.666667
vt 0.740000 0.333333
vn -0.3792 0.1865 0.9063
s off
mtllib leafwood.mtl
usemtl Leaves
f 1/1/1 2/2/1 6/3/1 3/4/1
f 1/1/1 3/4/1 5/5/1 4/6/1
