# Blender v3.4.0 OBJ File: 'apple_tree10_sapling_05_8_2_2.blend'
# www.blender.org
o leaves.112
v 0.282760 0.041911 1.020868
v 0.325160 0.009974 0.985880
v 0.337910 0.073509 1.022217
v 0.429084 0.041404 0.970410
v 0.373934 0.009805 0.969061
v 0.386685 0.073340 1.005398
vt 0.500000 0.000000
vt 0.260000 0.333333
vt 0.260000 0.666667
vt 0.500000 1.000000
vt 0.740000 0.666667
vt 0.740000 0.333333
vn 0.2772 -0.5183 0.8090
s off
mtllib leafwood.mtl
usemtl Leaves
f 1/1/1 2/2/1 5/3/1 4/4/1
f 1/1/1 4/4/1 6/5/1 3/6/1
