# Blender v3.4.0 OBJ File: 'apple_tree10_sapling_05_8_2_2.blend'
# www.blender.org
o leaves.101
v 0.094167 -0.184053 0.954676
v 0.072034 -0.222100 0.971210
v 0.088980 -0.257896 1.041993
v 0.112842 -0.195235 0.996353
v 0.111113 -0.219850 1.025459
v 0.070305 -0.246714 1.000316
vt 0.500000 0.000000
vt 0.260000 0.333333
vt 0.260000 0.666667
vt 0.500000 1.000000
vt 0.740000 0.666667
vt 0.740000 0.333333
vn -0.6681 0.5872 0.4569
s off
mtllib leafwood.mtl
usemtl Leaves
f 1/1/1 2/2/1 6/3/1 3/4/1
f 1/1/1 3/4/1 5/5/1 4/6/1
