# Blender v3.4.0 OBJ File: 'apple_tree10_sapling_05_8_2_2.blend'
# www.blender.org
o leaves.013
v 0.122728 0.207711 0.663388
v 0.143687 0.231466 0.672026
v 0.132605 0.286889 0.668288
v 0.108354 0.236740 0.658017
v 0.111647 0.263133 0.659651
v 0.146979 0.257859 0.673659
vt 0.500000 0.000000
vt 0.260000 0.333333
vt 0.260000 0.666667
vt 0.500000 1.000000
vt 0.740000 0.666667
vt 0.740000 0.333333
vn -0.3700 -0.0113 0.9290
s off
mtllib leafwood.mtl
usemtl Leaves
f 1/1/1 2/2/1 6/3/1 3/4/1
f 1/1/1 3/4/1 5/5/1 4/6/1
