# Blender v3.4.0 OBJ File: 'apple_tree10_sapling_05_8_2_2.blend'
# www.blender.org
o leaves.039
v -0.075471 0.240536 0.728236
v -0.084771 0.312466 0.773161
v -0.058822 0.263727 0.748559
v -0.098321 0.265300 0.737863
v -0.101421 0.289276 0.752838
v -0.061922 0.287703 0.763534
vt 0.500000 0.000000
vt 0.500000 1.000000
vt 0.740000 0.666667
vt 0.740000 0.333333
vt 0.260000 0.333333
vt 0.260000 0.666667
vn -0.2404 -0.5364 0.8090
s off
mtllib leafwood.mtl
usemtl Leaves
f 1/1/1 2/2/1 5/3/1 4/4/1
f 1/1/1 3/5/1 6/6/1 2/2/1
