# Blender v3.4.0 OBJ File: 'apple_tree10_sapling_05_8_2_2.blend'
# www.blender.org
o leaves.143
v -0.298000 0.117793 1.082531
v -0.290792 0.172904 1.065378
v -0.348973 0.137837 1.062949
v -0.363648 0.230526 1.027429
v -0.370855 0.175415 1.044582
v -0.312675 0.210482 1.047011
vt 0.500000 0.000000
vt 0.260000 0.333333
vt 0.260000 0.666667
vt 0.500000 1.000000
vt 0.740000 0.666667
vt 0.740000 0.333333
vn -0.2292 0.3165 0.9205
s off
mtllib leafwood.mtl
usemtl Leaves
f 1/1/1 2/2/1 6/3/1 4/4/1
f 1/1/1 4/4/1 5/5/1 3/6/1
