# Blender v3.4.0 OBJ File: 'apple_tree10_sapling_05_8_2_2.blend'
# www.blender.org
o leaves.245
v 0.150384 0.206391 1.469104
v 0.186351 0.210802 1.450366
v 0.223714 0.270430 1.449458
v 0.163304 0.244672 1.474746
v 0.187747 0.266019 1.468197
v 0.210794 0.232149 1.443817
vt 0.500000 0.000000
vt 0.260000 0.333333
vt 0.260000 0.666667
vt 0.500000 1.000000
vt 0.740000 0.666667
vt 0.740000 0.333333
vn 0.4703 -0.2820 0.8363
s off
mtllib leafwood.mtl
usemtl Leaves
f 1/1/1 2/2/1 6/3/1 3/4/1
f 1/1/1 3/4/1 5/5/1 4/6/1
