# Blender v3.4.0 OBJ File: 'apple_tree10_sapling_05_8_2_2.blend'
# www.blender.org
o leaves.131
v -0.168671 0.079728 1.044598
v -0.195760 0.092043 1.027994
v -0.244142 0.061012 1.015676
v -0.191895 0.054936 1.041921
v -0.217053 0.048698 1.032280
v -0.220918 0.085804 1.018354
vt 0.500000 0.000000
vt 0.260000 0.333333
vt 0.260000 0.666667
vt 0.500000 1.000000
vt 0.740000 0.666667
vt 0.740000 0.333333
vn -0.4037 0.2843 0.8696
s off
mtllib leafwood.mtl
usemtl Leaves
f 1/1/1 2/2/1 6/3/1 3/4/1
f 1/1/1 3/4/1 5/5/1 4/6/1
