# Blender v3.4.0 OBJ File: 'apple_tree10_sapling_05_8_2_2.blend'
# www.blender.org
o leaves.236
v 0.223966 -0.089731 1.565848
v 0.228002 -0.137870 1.578328
v 0.301353 -0.182829 1.575825
v 0.271522 -0.103657 1.560020
v 0.297317 -0.134690 1.563345
v 0.253798 -0.168903 1.581653
vt 0.500000 0.000000
vt 0.260000 0.333333
vt 0.260000 0.666667
vt 0.500000 1.000000
vt 0.740000 0.666667
vt 0.740000 0.333333
vn 0.1925 0.2613 0.9459
s off
mtllib leafwood.mtl
usemtl Leaves
f 1/1/1 2/2/1 6/3/1 3/4/1
f 1/1/1 3/4/1 5/5/1 4/6/1
