# Blender v3.4.0 OBJ File: 'apple_tree10_sapling_05_8_2_2.blend'
# www.blender.org
o leaves.363
v -0.003623 0.014550 2.407591
v 0.013710 -0.017807 2.438660
v 0.069434 -0.000951 2.497760
v 0.027748 0.036573 2.436635
v 0.052101 0.031406 2.466691
v 0.038062 -0.022974 2.468716
vt 0.500000 0.000000
vt 0.260000 0.333333
vt 0.260000 0.666667
vt 0.500000 1.000000
vt 0.740000 0.666667
vt 0.740000 0.333333
vn -0.7404 0.2149 0.6369
s off
mtllib leafwood.mtl
usemtl Leaves
f 1/1/1 2/2/1 6/3/1 3/4/1
f 1/1/1 3/4/1 5/5/1 4/6/1
