# Blender v3.4.0 OBJ File: 'apple_tree10_sapling_05_8_2_2.blend'
# www.blender.org
o leaves.204
v -0.216265 0.234290 1.302518
v -0.314836 0.277741 1.234595
v -0.231407 0.270807 1.268263
v -0.266837 0.226741 1.291491
v -0.299694 0.241225 1.268849
v -0.264264 0.285291 1.245622
vt 0.500000 0.000000
vt 0.500000 1.000000
vt 0.740000 0.666667
vt 0.740000 0.333333
vt 0.260000 0.333333
vt 0.260000 0.666667
vn -0.2548 0.6033 0.7557
s off
mtllib leafwood.mtl
usemtl Leaves
f 1/1/1 2/2/1 5/3/1 4/4/1
f 1/1/1 3/5/1 6/6/1 2/2/1
