# Blender v3.4.0 OBJ File: 'apple_tree10_sapling_05_8_2_2.blend'
# www.blender.org
o leaves.303
v 0.090261 -0.234035 1.763806
v 0.088895 -0.309914 1.764745
v 0.105726 -0.259724 1.755278
v 0.073885 -0.258932 1.772960
v 0.073430 -0.284225 1.773273
v 0.105271 -0.285017 1.755590
vt 0.500000 0.000000
vt 0.500000 1.000000
vt 0.740000 0.666667
vt 0.740000 0.333333
vt 0.260000 0.333333
vt 0.260000 0.666667
vn 0.4855 0.0021 0.8742
s off
mtllib leafwood.mtl
usemtl Leaves
f 1/1/1 2/2/1 6/3/1 3/4/1
f 1/1/1 4/5/1 5/6/1 2/2/1
