# Blender v3.4.0 OBJ File: 'apple_tree10_sapling_05_8_2_2.blend'
# www.blender.org
o leaves.036
v -0.077326 0.230536 0.721507
v -0.126769 0.335592 0.822985
v -0.128547 0.260539 0.743600
v -0.059067 0.270571 0.767067
v -0.075548 0.305589 0.800893
v -0.145027 0.295558 0.777426
vt 0.500000 0.000000
vt 0.500000 1.000000
vt 0.740000 0.666667
vt 0.740000 0.333333
vt 0.260000 0.333333
vt 0.260000 0.666667
vn -0.1268 -0.7194 0.6830
s off
mtllib leafwood.mtl
usemtl Leaves
f 1/1/1 2/2/1 6/3/1 3/4/1
f 1/1/1 4/5/1 5/6/1 2/2/1
