# Blender v3.4.0 OBJ File: 'apple_tree10_sapling_05_8_2_2.blend'
# www.blender.org
o leaves.114
v 0.297686 0.041377 1.021956
v 0.387467 0.021945 0.980146
v 0.317973 0.016204 0.996007
v 0.337253 0.053594 1.020031
v 0.367180 0.047117 1.006095
v 0.347900 0.009727 0.982070
vt 0.500000 0.000000
vt 0.500000 1.000000
vt 0.740000 0.666667
vt 0.740000 0.333333
vt 0.260000 0.333333
vt 0.260000 0.666667
vn 0.2242 -0.6060 0.7632
s off
mtllib leafwood.mtl
usemtl Leaves
f 1/1/1 2/2/1 5/3/1 4/4/1
f 1/1/1 3/5/1 6/6/1 2/2/1
