# Blender v3.4.0 OBJ File: 'apple_tree10_sapling_05_8_2_2.blend'
# www.blender.org
o leaves.054
v 0.247347 0.147843 0.786493
v 0.288597 0.173115 0.794065
v 0.291958 0.256707 0.805717
v 0.235838 0.195146 0.791737
v 0.250708 0.231434 0.798145
v 0.303467 0.209403 0.800473
vt 0.500000 0.000000
vt 0.260000 0.333333
vt 0.260000 0.666667
vt 0.500000 1.000000
vt 0.740000 0.666667
vt 0.740000 0.333333
vn -0.0992 -0.1335 0.9861
s off
mtllib leafwood.mtl
usemtl Leaves
f 1/1/1 2/2/1 6/3/1 3/4/1
f 1/1/1 3/4/1 5/5/1 4/6/1
