# Blender v3.4.0 OBJ File: 'apple_tree10_sapling_05_8_2_2.blend'
# www.blender.org
o leaves.147
v -0.306982 0.124026 1.090437
v -0.308189 0.156166 1.091371
v -0.355062 0.185752 1.094275
v -0.337828 0.133036 1.092062
v -0.353854 0.153612 1.093342
v -0.324216 0.176741 1.092650
vt 0.500000 0.000000
vt 0.260000 0.333333
vt 0.260000 0.666667
vt 0.500000 1.000000
vt 0.740000 0.666667
vt 0.740000 0.333333
vn 0.0446 -0.0273 0.9986
s off
mtllib leafwood.mtl
usemtl Leaves
f 1/1/1 2/2/1 6/3/1 3/4/1
f 1/1/1 3/4/1 5/5/1 4/6/1
