# Blender v3.4.0 OBJ File: 'apple_tree10_sapling_05_8_2_2.blend'
# www.blender.org
o leaves.140
v -0.334022 0.052359 1.059382
v -0.361172 0.061360 1.033995
v -0.412840 0.023008 1.019435
v -0.359418 0.023790 1.058138
v -0.385690 0.014007 1.044822
v -0.387445 0.051577 1.020679
vt 0.500000 0.000000
vt 0.260000 0.333333
vt 0.260000 0.666667
vt 0.500000 1.000000
vt 0.740000 0.666667
vt 0.740000 0.333333
vn -0.5309 0.4404 0.7240
s off
mtllib leafwood.mtl
usemtl Leaves
f 1/1/1 2/2/1 6/3/1 3/4/1
f 1/1/1 3/4/1 5/5/1 4/6/1
