# Blender v3.4.0 OBJ File: 'apple_tree10_sapling_05_8_2_2.blend'
# www.blender.org
o leaves.205
v -0.218119 0.236910 1.301741
v -0.234443 0.273719 1.281226
v -0.309075 0.283429 1.260900
v -0.262431 0.231114 1.295029
v -0.292750 0.246621 1.281416
v -0.264762 0.289225 1.267612
vt 0.500000 0.000000
vt 0.260000 0.333333
vt 0.260000 0.666667
vt 0.500000 1.000000
vt 0.740000 0.666667
vt 0.740000 0.333333
vn -0.1889 0.4128 0.8910
s off
mtllib leafwood.mtl
usemtl Leaves
f 1/1/1 2/2/1 6/3/1 3/4/1
f 1/1/1 3/4/1 5/5/1 4/6/1
