# Blender v3.4.0 OBJ File: 'apple_tree10_sapling_05_8_2_2.blend'
# www.blender.org
o leaves.172
v 0.184668 -0.032414 1.287619
v 0.198085 -0.058686 1.297163
v 0.237633 -0.083627 1.271192
v 0.206561 -0.040285 1.267123
v 0.224216 -0.057356 1.261648
v 0.215740 -0.075757 1.291687
vt 0.500000 0.000000
vt 0.260000 0.333333
vt 0.260000 0.666667
vt 0.500000 1.000000
vt 0.740000 0.666667
vt 0.740000 0.333333
vn 0.6730 0.5308 0.5150
s off
mtllib leafwood.mtl
usemtl Leaves
f 1/1/1 2/2/1 6/3/1 3/4/1
f 1/1/1 3/4/1 5/5/1 4/6/1
