# Blender v3.4.0 OBJ File: 'apple_tree10_sapling_05_8_2_2.blend'
# www.blender.org
o leaves.063
v 0.273510 0.032782 0.841232
v 0.286742 0.010993 0.832183
v 0.328047 -0.003429 0.848410
v 0.296636 0.030429 0.855066
v 0.314815 0.018359 0.857458
v 0.304921 -0.001077 0.834576
vt 0.500000 0.000000
vt 0.260000 0.333333
vt 0.260000 0.666667
vt 0.500000 1.000000
vt 0.740000 0.666667
vt 0.740000 0.333333
vn -0.4650 -0.5654 0.6813
s off
mtllib leafwood.mtl
usemtl Leaves
f 1/1/1 2/2/1 6/3/1 3/4/1
f 1/1/1 3/4/1 5/5/1 4/6/1
