# Blender v3.4.0 OBJ File: 'apple_tree10_sapling_05_8_2_2.blend'
# www.blender.org
o leaves.165
v -0.121171 -0.201525 1.200978
v -0.136640 -0.245115 1.205406
v -0.089553 -0.309034 1.216431
v -0.084623 -0.229609 1.206851
v -0.074083 -0.265445 1.212002
v -0.126101 -0.280951 1.210557
vt 0.500000 0.000000
vt 0.260000 0.333333
vt 0.260000 0.666667
vt 0.500000 1.000000
vt 0.740000 0.666667
vt 0.740000 0.333333
vn -0.0643 0.1234 0.9903
s off
mtllib leafwood.mtl
usemtl Leaves
f 1/1/1 2/2/1 6/3/1 3/4/1
f 1/1/1 3/4/1 5/5/1 4/6/1
