# Blender v3.4.0 OBJ File: 'apple_tree10_sapling_05_8_2_2.blend'
# www.blender.org
o leaves.089
v -0.268678 0.160262 0.911623
v -0.284474 0.180753 0.911213
v -0.327788 0.179035 0.900561
v -0.292289 0.152286 0.904658
v -0.311992 0.158544 0.900971
v -0.304178 0.187011 0.907526
vt 0.500000 0.000000
vt 0.260000 0.333333
vt 0.260000 0.666667
vt 0.500000 1.000000
vt 0.740000 0.666667
vt 0.740000 0.333333
vn -0.2299 -0.1580 0.9603
s off
mtllib leafwood.mtl
usemtl Leaves
f 1/1/1 2/2/1 6/3/1 3/4/1
f 1/1/1 3/4/1 5/5/1 4/6/1
