# Blender v3.4.0 OBJ File: 'apple_tree10_sapling_05_8_2_2.blend'
# www.blender.org
o leaves.090
v -0.286364 0.009573 0.843046
v -0.308237 0.045022 0.877579
v -0.372246 0.023381 0.941971
v -0.321745 -0.016670 0.874462
v -0.350372 -0.012068 0.907438
v -0.336864 0.049624 0.910554
vt 0.500000 0.000000
vt 0.260000 0.333333
vt 0.260000 0.666667
vt 0.500000 1.000000
vt 0.740000 0.666667
vt 0.740000 0.333333
vn 0.7275 -0.1926 0.6585
s off
mtllib leafwood.mtl
usemtl Leaves
f 1/1/1 2/2/1 6/3/1 3/4/1
f 1/1/1 3/4/1 5/5/1 4/6/1
