# Blender v3.4.0 OBJ File: 'apple_tree10_sapling_05_8_2_2.blend'
# www.blender.org
o leaves.130
v -0.162876 0.077757 1.043031
v -0.152569 0.113769 1.065540
v -0.197806 0.173560 1.073381
v -0.196469 0.105615 1.040755
v -0.208113 0.137549 1.050872
v -0.164213 0.145703 1.075657
vt 0.500000 0.000000
vt 0.260000 0.333333
vt 0.260000 0.666667
vt 0.500000 1.000000
vt 0.740000 0.666667
vt 0.740000 0.333333
vn -0.3915 -0.4046 0.8265
s off
mtllib leafwood.mtl
usemtl Leaves
f 1/1/1 2/2/1 6/3/1 3/4/1
f 1/1/1 3/4/1 5/5/1 4/6/1
