# Blender v3.4.0 OBJ File: 'apple_tree10_sapling_05_8_2_2.blend'
# www.blender.org
o leaves.035
v 0.169411 0.154392 0.770420
v 0.194229 0.151365 0.775338
v 0.226605 0.163144 0.748039
v 0.182722 0.163255 0.750580
v 0.201787 0.166172 0.743120
v 0.213294 0.154282 0.767878
vt 0.500000 0.000000
vt 0.260000 0.333333
vt 0.260000 0.666667
vt 0.500000 1.000000
vt 0.740000 0.666667
vt 0.740000 0.333333
vn 0.0268 0.9059 0.4226
s off
mtllib leafwood.mtl
usemtl Leaves
f 1/1/1 2/2/1 6/3/1 3/4/1
f 1/1/1 3/4/1 5/5/1 4/6/1
