# Blender v3.4.0 OBJ File: 'apple_tree10_sapling_05_8_2_2.blend'
# www.blender.org
o leaves.058
v 0.252150 0.037246 0.830063
v 0.287242 0.006789 0.843370
v 0.366746 0.028819 0.855436
v 0.293456 0.062085 0.833672
v 0.331654 0.059276 0.842130
v 0.325441 0.003980 0.851828
vt 0.500000 0.000000
vt 0.260000 0.333333
vt 0.260000 0.666667
vt 0.500000 1.000000
vt 0.740000 0.666667
vt 0.740000 0.333333
vn -0.1988 0.1909 0.9613
s off
mtllib leafwood.mtl
usemtl Leaves
f 1/1/1 2/2/1 6/3/1 3/4/1
f 1/1/1 3/4/1 5/5/1 4/6/1
