# Blender v3.4.0 OBJ File: 'apple_tree10_sapling_05_8_2_2.blend'
# www.blender.org
o leaves.064
v -0.172062 0.134081 0.914583
v -0.126098 0.170491 0.901081
v -0.104285 0.258634 0.951371
v -0.172841 0.180707 0.952610
v -0.150248 0.222224 0.964873
v -0.103506 0.212008 0.913344
vt 0.500000 0.000000
vt 0.260000 0.333333
vt 0.260000 0.666667
vt 0.500000 1.000000
vt 0.740000 0.666667
vt 0.740000 0.333333
vn 0.5866 -0.5060 0.6324
s off
mtllib leafwood.mtl
usemtl Leaves
f 1/1/1 2/2/1 6/3/1 3/4/1
f 1/1/1 3/4/1 5/5/1 4/6/1
