# Blender v3.4.0 OBJ File: 'apple_tree10_sapling_05_8_2_2.blend'
# www.blender.org
o leaves.142
v -0.295770 0.116245 1.080568
v -0.385088 0.217407 1.104082
v -0.349567 0.127858 1.092262
v -0.301518 0.172074 1.084549
v -0.331291 0.205794 1.092388
v -0.379340 0.161578 1.100100
vt 0.500000 0.000000
vt 0.500000 1.000000
vt 0.740000 0.666667
vt 0.740000 0.333333
vt 0.260000 0.333333
vt 0.260000 0.666667
vn 0.2021 -0.0490 0.9781
s off
mtllib leafwood.mtl
usemtl Leaves
f 1/1/1 2/2/1 6/3/1 3/4/1
f 1/1/1 4/5/1 5/6/1 2/2/1
