# Blender v3.4.0 OBJ File: 'apple_tree10_sapling_05_8_2_2.blend'
# www.blender.org
o leaves.357
v 0.166033 0.075372 2.299666
v 0.198777 0.051383 2.290402
v 0.266087 0.064507 2.311747
v 0.199991 0.092117 2.316984
v 0.233342 0.088495 2.321011
v 0.232129 0.047762 2.294429
vt 0.500000 0.000000
vt 0.260000 0.333333
vt 0.260000 0.666667
vt 0.500000 1.000000
vt 0.740000 0.666667
vt 0.740000 0.333333
vn -0.1583 -0.5363 0.8290
s off
mtllib leafwood.mtl
usemtl Leaves
f 1/1/1 2/2/1 6/3/1 3/4/1
f 1/1/1 3/4/1 5/5/1 4/6/1
