# Blender v3.4.0 OBJ File: 'apple_tree10_sapling_05_8_2_2.blend'
# www.blender.org
o leaves.193
v -0.003593 0.339801 1.323225
v -0.014889 0.384343 1.331273
v 0.035190 0.365600 1.320644
v 0.037638 0.445313 1.331426
v 0.048933 0.400771 1.323378
v -0.001145 0.419514 1.334007
vt 0.500000 0.000000
vt 0.500000 1.000000
vt 0.740000 0.666667
vt 0.740000 0.333333
vt 0.260000 0.333333
vt 0.260000 0.666667
vn 0.1563 -0.1371 0.9781
s off
mtllib leafwood.mtl
usemtl Leaves
f 1/1/1 4/2/1 6/3/1 2/4/1
f 1/1/1 3/5/1 5/6/1 4/2/1
