# Blender v3.4.0 OBJ File: 'apple_tree10_sapling_05_8_2_2.blend'
# www.blender.org
o leaves.338
v -0.244539 -0.069934 2.041259
v -0.288158 -0.089957 2.027242
v -0.310804 -0.172048 2.040946
v -0.245097 -0.117987 2.055068
v -0.267185 -0.152025 2.054964
v -0.310246 -0.123996 2.027137
vt 0.500000 0.000000
vt 0.260000 0.333333
vt 0.260000 0.666667
vt 0.500000 1.000000
vt 0.740000 0.666667
vt 0.740000 0.333333
vn -0.4007 0.2573 0.8793
s off
mtllib leafwood.mtl
usemtl Leaves
f 1/1/1 2/2/1 6/3/1 3/4/1
f 1/1/1 3/4/1 5/5/1 4/6/1
