# Blender v3.4.0 OBJ File: 'apple_tree10_sapling_05_8_2_2.blend'
# www.blender.org
o leaves.340
v -0.251821 -0.072693 2.042258
v -0.283044 -0.099724 2.064255
v -0.354827 -0.074170 2.090889
v -0.289269 -0.046646 2.052682
v -0.323604 -0.047139 2.068892
v -0.317379 -0.100216 2.080466
vt 0.500000 0.000000
vt 0.500000 1.000000
vt 0.740000 0.666667
vt 0.740000 0.333333
vt 0.260000 0.333333
vt 0.260000 0.666667
vn 0.4116 0.2400 0.8792
s off
mtllib leafwood.mtl
usemtl Leaves
f 1/1/1 3/2/1 6/3/1 2/4/1
f 1/1/1 4/5/1 5/6/1 3/2/1
