# Blender v3.4.0 OBJ File: 'apple_tree10_sapling_05_8_2_2.blend'
# www.blender.org
o leaves.137
v -0.327612 0.041345 1.064883
v -0.350129 0.022514 1.073237
v -0.347258 -0.030021 1.071345
v -0.318192 0.012600 1.060837
v -0.324741 -0.011189 1.062991
v -0.356678 -0.001275 1.075390
vt 0.500000 0.000000
vt 0.260000 0.333333
vt 0.260000 0.666667
vt 0.500000 1.000000
vt 0.740000 0.666667
vt 0.740000 0.333333
vn 0.3581 -0.0140 0.9336
s off
mtllib leafwood.mtl
usemtl Leaves
f 1/1/1 2/2/1 6/3/1 3/4/1
f 1/1/1 3/4/1 5/5/1 4/6/1
