# Blender v3.4.0 OBJ File: 'apple_tree10_sapling_05_8_2_2.blend'
# www.blender.org
o leaves.329
v -0.170241 -0.126673 2.101047
v -0.206048 -0.143635 2.100473
v -0.220566 -0.202230 2.068401
v -0.167983 -0.160081 2.079857
v -0.184758 -0.185267 2.068975
v -0.222823 -0.168821 2.089591
vt 0.500000 0.000000
vt 0.260000 0.333333
vt 0.260000 0.666667
vt 0.500000 1.000000
vt 0.740000 0.666667
vt 0.740000 0.333333
vn 0.2285 -0.5104 0.8290
s off
mtllib leafwood.mtl
usemtl Leaves
f 1/1/1 2/2/1 6/3/1 3/4/1
f 1/1/1 3/4/1 5/5/1 4/6/1
