# Blender v3.4.0 OBJ File: 'apple_tree10_sapling_05_8_2_2.blend'
# www.blender.org
o leaves.049
v -0.109128 -0.249587 0.766276
v -0.144543 -0.260932 0.749620
v -0.184402 -0.313838 0.773137
v -0.123896 -0.281076 0.787506
v -0.148987 -0.302493 0.789793
v -0.169634 -0.282349 0.751907
vt 0.500000 0.000000
vt 0.260000 0.333333
vt 0.260000 0.666667
vt 0.500000 1.000000
vt 0.740000 0.666667
vt 0.740000 0.333333
vn -0.4860 0.6337 0.6018
vn -0.4861 0.6337 0.6018
s off
mtllib leafwood.mtl
usemtl Leaves
f 1/1/1 2/2/1 6/3/1 3/4/1
f 1/1/2 3/4/2 5/5/2 4/6/2
