# Blender v3.4.0 OBJ File: 'apple_tree10_sapling_05_8_2_2.blend'
# www.blender.org
o leaves.012
v 0.125589 0.198138 0.664772
v 0.129741 0.242621 0.673861
v 0.069383 0.292757 0.679211
v 0.083966 0.216734 0.665309
v 0.065230 0.248274 0.670122
v 0.111005 0.274161 0.678674
vt 0.500000 0.000000
vt 0.260000 0.333333
vt 0.260000 0.666667
vt 0.500000 1.000000
vt 0.740000 0.666667
vt 0.740000 0.333333
vn -0.0736 -0.1930 0.9784
s off
mtllib leafwood.mtl
usemtl Leaves
f 1/1/1 2/2/1 6/3/1 3/4/1
f 1/1/1 3/4/1 5/5/1 4/6/1
