# Blender v3.4.0 OBJ File: 'apple_tree10_sapling_05_8_2_2.blend'
# www.blender.org
o leaves.034
v 0.167477 0.154078 0.768960
v 0.186090 0.122941 0.773385
v 0.246928 0.119761 0.789594
v 0.201831 0.162336 0.778291
v 0.228315 0.150897 0.785169
v 0.212574 0.111502 0.780263
vt 0.500000 0.000000
vt 0.260000 0.333333
vt 0.260000 0.666667
vt 0.500000 1.000000
vt 0.740000 0.666667
vt 0.740000 0.333333
vn -0.2583 -0.0171 0.9659
s off
mtllib leafwood.mtl
usemtl Leaves
f 1/1/1 2/2/1 6/3/1 3/4/1
f 1/1/1 3/4/1 5/5/1 4/6/1
