# Blender v3.4.0 OBJ File: 'apple_tree10_sapling_05_8_2_2.blend'
# www.blender.org
o leaves.327
v -0.168188 -0.122287 2.096889
v -0.201833 -0.259201 2.114854
v -0.147059 -0.176706 2.096530
v -0.211747 -0.159144 2.109225
v -0.222962 -0.204782 2.115213
v -0.158274 -0.222344 2.102519
vt 0.500000 0.000000
vt 0.500000 1.000000
vt 0.740000 0.666667
vt 0.740000 0.333333
vt 0.260000 0.333333
vt 0.260000 0.666667
vn 0.2118 0.0758 0.9744
s off
mtllib leafwood.mtl
usemtl Leaves
f 1/1/1 2/2/1 6/3/1 3/4/1
f 1/1/1 4/5/1 5/6/1 2/2/1
