# Blender v3.4.0 OBJ File: 'apple_tree10_sapling_05_8_2_2.blend'
# www.blender.org
o leaves.110
v 0.024485 -0.221826 0.936669
v -0.009740 -0.229405 0.928945
v 0.022256 -0.256500 0.927658
v -0.030196 -0.285206 0.911567
v -0.027967 -0.250531 0.920577
v 0.004029 -0.277627 0.919291
vt 0.500000 0.000000
vt 0.260000 0.333333
vt 0.260000 0.666667
vt 0.500000 1.000000
vt 0.740000 0.666667
vt 0.740000 0.333333
vn -0.1633 -0.2383 0.9574
s off
mtllib leafwood.mtl
usemtl Leaves
f 1/1/1 2/2/1 5/3/1 4/4/1
f 1/1/1 4/4/1 6/5/1 3/6/1
