# Blender v3.4.0 OBJ File: 'apple_tree10_sapling_05_8_2_2.blend'
# www.blender.org
o leaves.339
v -0.248403 -0.071398 2.041789
v -0.331142 -0.160279 2.074116
v -0.254566 -0.122048 2.049580
v -0.297400 -0.080002 2.055550
v -0.324980 -0.109629 2.066325
v -0.282146 -0.151675 2.060356
vt 0.500000 0.000000
vt 0.500000 1.000000
vt 0.740000 0.666667
vt 0.740000 0.333333
vt 0.260000 0.333333
vt 0.260000 0.666667
vn 0.2493 0.1175 0.9613
s off
mtllib leafwood.mtl
usemtl Leaves
f 1/1/1 2/2/1 6/3/1 3/4/1
f 1/1/1 4/5/1 5/6/1 2/2/1
