# Blender v3.4.0 OBJ File: 'apple_tree10_sapling_05_8_2_2.blend'
# www.blender.org
o leaves.173
v 0.198520 0.102680 1.169209
v 0.188885 0.146730 1.125870
v 0.247425 0.141664 1.169335
v 0.257424 0.227232 1.104390
v 0.267059 0.183181 1.147728
v 0.208520 0.188247 1.104264
vt 0.500000 0.000000
vt 0.500000 1.000000
vt 0.740000 0.666667
vt 0.740000 0.333333
vt 0.260000 0.333333
vt 0.260000 0.666667
vn -0.4570 0.5710 0.6820
s off
mtllib leafwood.mtl
usemtl Leaves
f 1/1/1 4/2/1 6/3/1 2/4/1
f 1/1/1 3/5/1 5/6/1 4/2/1
