# Blender v3.4.0 OBJ File: 'apple_tree10_sapling_05_8_2_2.blend'
# www.blender.org
o leaves.231
v 0.267709 0.020271 1.482324
v 0.279023 -0.007664 1.439897
v 0.350428 0.006460 1.387348
v 0.311542 0.038999 1.461434
v 0.339115 0.034395 1.429775
v 0.306596 -0.012268 1.408238
vt 0.500000 0.000000
vt 0.260000 0.333333
vt 0.260000 0.666667
vt 0.500000 1.000000
vt 0.740000 0.666667
vt 0.740000 0.333333
vn 0.5365 -0.6320 0.5592
s off
mtllib leafwood.mtl
usemtl Leaves
f 1/1/1 2/2/1 6/3/1 3/4/1
f 1/1/1 3/4/1 5/5/1 4/6/1
