# Blender v3.4.0 OBJ File: 'apple_tree10_sapling_05_8_2_2.blend'
# www.blender.org
o leaves.003
v 0.244226 0.164693 0.772978
v 0.260815 0.179142 0.800475
v 0.270626 0.238706 0.807262
v 0.245236 0.199586 0.768337
v 0.254037 0.224257 0.779765
v 0.269615 0.203813 0.811903
vt 0.500000 0.000000
vt 0.260000 0.333333
vt 0.260000 0.666667
vt 0.500000 1.000000
vt 0.740000 0.666667
vt 0.740000 0.333333
vn -0.8728 0.0891 0.4798
s off
mtllib leafwood.mtl
usemtl Leaves
f 1/1/1 2/2/1 6/3/1 3/4/1
f 1/1/1 3/4/1 5/5/1 4/6/1
