# Blender v3.4.0 OBJ File: 'apple_tree10_sapling_05_8_2_2.blend'
# www.blender.org
o leaves.135
v -0.314864 0.054062 1.057311
v -0.357075 0.079335 1.074758
v -0.438971 0.042636 1.082181
v -0.355390 0.021171 1.056444
v -0.396759 0.017363 1.064734
v -0.398444 0.075527 1.083048
vt 0.500000 0.000000
vt 0.260000 0.333333
vt 0.260000 0.666667
vt 0.500000 1.000000
vt 0.740000 0.666667
vt 0.740000 0.333333
vn 0.2136 -0.2878 0.9336
s off
mtllib leafwood.mtl
usemtl Leaves
f 1/1/1 2/2/1 6/3/1 3/4/1
f 1/1/1 3/4/1 5/5/1 4/6/1
