# Blender v3.4.0 OBJ File: 'apple_tree10_sapling_05_8_2_2.blend'
# www.blender.org
o leaves.117
v 0.319605 0.040593 1.023554
v 0.342092 0.030173 1.021835
v 0.378346 0.051824 1.014529
v 0.336279 0.058499 1.019256
v 0.355860 0.062243 1.016248
v 0.361672 0.033917 1.018827
vt 0.500000 0.000000
vt 0.260000 0.333333
vt 0.260000 0.666667
vt 0.500000 1.000000
vt 0.740000 0.666667
vt 0.740000 0.333333
vn 0.1291 0.1161 0.9848
s off
mtllib leafwood.mtl
usemtl Leaves
f 1/1/1 2/2/1 6/3/1 3/4/1
f 1/1/1 3/4/1 5/5/1 4/6/1
