# Blender v3.4.0 OBJ File: 'apple_tree10_sapling_05_8_2_2.blend'
# www.blender.org
o leaves.217
v -0.071273 0.241901 1.381573
v -0.029479 0.280163 1.381265
v -0.037647 0.371247 1.415788
v -0.090650 0.289870 1.404691
v -0.079441 0.332985 1.416095
v -0.018270 0.323279 1.392670
vt 0.500000 0.000000
vt 0.260000 0.333333
vt 0.260000 0.666667
vt 0.500000 1.000000
vt 0.740000 0.666667
vt 0.740000 0.333333
vn 0.2953 -0.3153 0.9019
s off
mtllib leafwood.mtl
usemtl Leaves
f 1/1/1 2/2/1 6/3/1 3/4/1
f 1/1/1 3/4/1 5/5/1 4/6/1
