# Blender v3.4.0 OBJ File: 'apple_tree10_sapling_05_8_2_2.blend'
# www.blender.org
o leaves.224
v -0.260962 0.038889 1.473228
v -0.247240 0.063394 1.431649
v -0.301266 0.085402 1.367708
v -0.301553 0.045393 1.444460
v -0.314988 0.060897 1.409287
v -0.260675 0.078898 1.396476
vt 0.500000 0.000000
vt 0.260000 0.333333
vt 0.260000 0.666667
vt 0.500000 1.000000
vt 0.740000 0.666667
vt 0.740000 0.333333
vn -0.1820 0.8722 0.4540
s off
mtllib leafwood.mtl
usemtl Leaves
f 1/1/1 2/2/1 6/3/1 3/4/1
f 1/1/1 3/4/1 5/5/1 4/6/1
