# Blender v3.4.0 OBJ File: 'apple_tree10_sapling_05_8_2_2.blend'
# www.blender.org
o leaves.234
v 0.276833 0.021750 1.482674
v 0.305281 0.005568 1.499179
v 0.351974 0.036533 1.528487
v 0.298479 0.047787 1.496711
v 0.323526 0.052715 1.511982
v 0.330328 0.010496 1.514450
vt 0.500000 0.000000
vt 0.260000 0.333333
vt 0.260000 0.666667
vt 0.500000 1.000000
vt 0.740000 0.666667
vt 0.740000 0.333333
vn -0.5155 -0.0330 0.8562
s off
mtllib leafwood.mtl
usemtl Leaves
f 1/1/1 2/2/1 6/3/1 3/4/1
f 1/1/1 3/4/1 5/5/1 4/6/1
