# Blender v3.4.0 OBJ File: 'apple_tree10_sapling_05_8_2_2.blend'
# www.blender.org
o leaves.294
v 0.148664 -0.059047 1.900973
v 0.148845 -0.088431 1.933847
v 0.200538 -0.090285 1.989611
v 0.183066 -0.050488 1.927191
v 0.200357 -0.060901 1.956737
v 0.166136 -0.098844 1.963392
vt 0.500000 0.000000
vt 0.260000 0.333333
vt 0.260000 0.666667
vt 0.500000 1.000000
vt 0.740000 0.666667
vt 0.740000 0.333333
vn -0.5704 0.6108 0.5491
s off
mtllib leafwood.mtl
usemtl Leaves
f 1/1/1 2/2/1 6/3/1 3/4/1
f 1/1/1 3/4/1 5/5/1 4/6/1
