# Blender v3.4.0 OBJ File: 'apple_tree10_sapling_05_8_2_2.blend'
# www.blender.org
o leaves.179
v 0.144811 -0.091003 1.241438
v 0.100090 -0.095579 1.233016
v 0.134632 -0.135589 1.240935
v 0.062462 -0.164747 1.228051
v 0.107182 -0.160171 1.236473
v 0.072641 -0.120161 1.228554
vt 0.500000 0.000000
vt 0.260000 0.333333
vt 0.260000 0.666667
vt 0.500000 1.000000
vt 0.740000 0.666667
vt 0.740000 0.333333
vn -0.1881 0.0319 0.9816
s off
mtllib leafwood.mtl
usemtl Leaves
f 1/1/1 2/2/1 6/3/1 4/4/1
f 1/1/1 4/4/1 5/5/1 3/6/1
