# Blender v3.4.0 OBJ File: 'apple_tree10_sapling_05_8_2_2.blend'
# www.blender.org
o leaves.120
v 0.229011 -0.110001 0.963714
v 0.253238 -0.138375 0.989960
v 0.322131 -0.120210 1.023369
v 0.266864 -0.088433 0.977237
v 0.297904 -0.091836 0.997123
v 0.284277 -0.141779 1.009846
vt 0.500000 0.000000
vt 0.260000 0.333333
vt 0.260000 0.666667
vt 0.500000 1.000000
vt 0.740000 0.666667
vt 0.740000 0.333333
vn -0.4813 0.3374 0.8090
s off
mtllib leafwood.mtl
usemtl Leaves
f 1/1/1 2/2/1 6/3/1 3/4/1
f 1/1/1 3/4/1 5/5/1 4/6/1
