# Blender v3.4.0 OBJ File: 'apple_tree10_sapling_05_8_2_2.blend'
# www.blender.org
o leaves.132
v -0.174043 0.079867 1.045230
v -0.203879 0.083989 1.048540
v -0.238200 0.045624 1.057622
v -0.186978 0.052916 1.050181
v -0.208363 0.041502 1.054312
v -0.225265 0.072575 1.052670
vt 0.500000 0.000000
vt 0.260000 0.333333
vt 0.260000 0.666667
vt 0.500000 1.000000
vt 0.740000 0.666667
vt 0.740000 0.333333
vn 0.1259 0.1205 0.9847
s off
mtllib leafwood.mtl
usemtl Leaves
f 1/1/1 2/2/1 6/3/1 3/4/1
f 1/1/1 3/4/1 5/5/1 4/6/1
