# Blender v3.4.0 OBJ File: 'apple_tree10_sapling_05_8_2_2.blend'
# www.blender.org
o leaves.187
v -0.031119 0.183176 1.291978
v 0.015586 0.255683 1.304848
v -0.031995 0.216275 1.305640
v 0.000894 0.198416 1.286896
v 0.016463 0.222585 1.291186
v -0.016427 0.240444 1.309930
vt 0.500000 0.000000
vt 0.500000 1.000000
vt 0.740000 0.666667
vt 0.740000 0.333333
vt 0.260000 0.333333
vt 0.260000 0.666667
vn 0.3094 -0.3558 0.8819
s off
mtllib leafwood.mtl
usemtl Leaves
f 1/1/1 2/2/1 6/3/1 3/4/1
f 1/1/1 4/5/1 5/6/1 2/2/1
