# Blender v3.4.0 OBJ File: 'apple_tree10_sapling_05_8_2_2.blend'
# www.blender.org
o leaves.088
v -0.263559 0.156301 0.909295
v -0.255496 0.186184 0.911981
v -0.289482 0.227319 0.906980
v -0.288903 0.173764 0.905066
v -0.297545 0.197437 0.904294
v -0.264137 0.209857 0.911210
vt 0.500000 0.000000
vt 0.260000 0.333333
vt 0.260000 0.666667
vt 0.500000 1.000000
vt 0.740000 0.666667
vt 0.740000 0.333333
vn -0.1893 -0.0371 0.9812
s off
mtllib leafwood.mtl
usemtl Leaves
f 1/1/1 2/2/1 6/3/1 3/4/1
f 1/1/1 3/4/1 5/5/1 4/6/1
