# Blender v3.4.0 OBJ File: 'apple_tree10_sapling_05_8_2_2.blend'
# www.blender.org
o leaves.320
v 0.102640 -0.144646 1.923589
v 0.109476 -0.201893 1.927527
v 0.117159 -0.162710 1.918460
v 0.092679 -0.164746 1.931344
v 0.094957 -0.183829 1.932657
v 0.119437 -0.181792 1.919773
vt 0.500000 0.000000
vt 0.500000 1.000000
vt 0.740000 0.666667
vt 0.740000 0.333333
vt 0.260000 0.333333
vt 0.260000 0.666667
vn 0.4551 0.1151 0.8829
vn 0.4552 0.1151 0.8829
s off
mtllib leafwood.mtl
usemtl Leaves
f 1/1/1 2/2/1 6/3/1 3/4/1
f 1/1/2 4/5/2 5/6/2 2/2/2
