# Blender v3.4.0 OBJ File: 'apple_tree10_sapling_05_8_2_2.blend'
# www.blender.org
o leaves.243
v 0.146781 0.200510 1.473206
v 0.175404 0.263141 1.352794
v 0.123890 0.227297 1.428433
v 0.188755 0.215478 1.437704
v 0.198296 0.236354 1.397567
v 0.133431 0.248174 1.388296
vt 0.500000 0.000000
vt 0.500000 1.000000
vt 0.740000 0.666667
vt 0.740000 0.333333
vt 0.260000 0.333333
vt 0.260000 0.666667
vn 0.0912 0.8744 0.4765
s off
mtllib leafwood.mtl
usemtl Leaves
f 1/1/1 2/2/1 6/3/1 3/4/1
f 1/1/1 4/5/1 5/6/1 2/2/1
