# Blender v3.4.0 OBJ File: 'apple_tree10_sapling_05_8_2_2.blend'
# www.blender.org
o leaves.367
v 0.002421 0.007744 2.414254
v 0.024367 0.017960 2.425570
v 0.020865 -0.011522 2.415892
v 0.063005 -0.005833 2.433685
v 0.044562 0.013434 2.432047
v 0.041059 -0.016048 2.422369
vt 0.500000 0.000000
vt 0.500000 1.000000
vt 0.740000 0.666667
vt 0.740000 0.333333
vt 0.260000 0.333333
vt 0.260000 0.666667
vn -0.3467 -0.2551 0.9026
s off
mtllib leafwood.mtl
usemtl Leaves
f 1/1/1 4/2/1 5/3/1 2/4/1
f 1/1/1 3/5/1 6/6/1 4/2/1
