# Blender v3.4.0 OBJ File: 'apple_tree10_sapling_05_8_2_2.blend'
# www.blender.org
o leaves.261
v -0.016622 -0.264415 1.833965
v -0.029439 -0.321198 1.834968
v 0.038843 -0.394835 1.836176
v 0.033171 -0.294580 1.834436
v 0.051660 -0.338053 1.835173
v -0.010951 -0.364671 1.835705
vt 0.500000 0.000000
vt 0.260000 0.333333
vt 0.260000 0.666667
vt 0.500000 1.000000
vt 0.740000 0.666667
vt 0.740000 0.333333
vn 0.0011 0.0174 0.9998
s off
mtllib leafwood.mtl
usemtl Leaves
f 1/1/1 2/2/1 6/3/1 3/4/1
f 1/1/1 3/4/1 5/5/1 4/6/1
