# Blender v3.4.0 OBJ File: 'apple_tree10_sapling_05_8_2_2.blend'
# www.blender.org
o leaves.286
v 0.186355 0.022774 1.906902
v 0.199766 0.010837 1.923246
v 0.189602 0.037163 1.926185
v 0.211342 0.026453 1.960343
v 0.208094 0.012063 1.941059
v 0.197931 0.038389 1.943999
vt 0.500000 0.000000
vt 0.260000 0.333333
vt 0.260000 0.666667
vt 0.500000 1.000000
vt 0.740000 0.666667
vt 0.740000 0.333333
vn -0.8325 -0.3677 0.4145
s off
mtllib leafwood.mtl
usemtl Leaves
f 1/1/1 2/2/1 5/3/1 4/4/1
f 1/1/1 4/4/1 6/5/1 3/6/1
