# Blender v3.4.0 OBJ File: 'apple_tree10_sapling_05_8_2_2.blend'
# www.blender.org
o leaves.226
v -0.268474 0.044338 1.480174
v -0.278919 0.083997 1.492533
v -0.342881 0.102266 1.524702
v -0.307633 0.043298 1.497500
v -0.332435 0.062607 1.512342
v -0.303722 0.103306 1.507376
vt 0.500000 0.000000
vt 0.260000 0.333333
vt 0.260000 0.666667
vt 0.500000 1.000000
vt 0.740000 0.666667
vt 0.740000 0.333333
vn 0.4023 -0.1741 0.8988
s off
mtllib leafwood.mtl
usemtl Leaves
f 1/1/1 2/2/1 6/3/1 3/4/1
f 1/1/1 3/4/1 5/5/1 4/6/1
