# Blender v3.4.0 OBJ File: 'apple_tree10_sapling_05_8_2_2.blend'
# www.blender.org
o leaves.148
v -0.309243 0.125595 1.092427
v -0.316499 0.151751 1.090018
v -0.349823 0.172585 1.115809
v -0.329040 0.130766 1.110425
v -0.342567 0.146429 1.118219
v -0.330025 0.167414 1.097812
vt 0.500000 0.000000
vt 0.260000 0.333333
vt 0.260000 0.666667
vt 0.500000 1.000000
vt 0.740000 0.666667
vt 0.740000 0.333333
vn 0.6861 0.2532 0.6820
s off
mtllib leafwood.mtl
usemtl Leaves
f 1/1/1 2/2/1 6/3/1 3/4/1
f 1/1/1 3/4/1 5/5/1 4/6/1
