# Blender v3.4.0 OBJ File: 'apple_tree10_sapling_05_8_2_2.blend'
# www.blender.org
o leaves.210
v -0.174124 -0.083455 1.513114
v -0.188299 -0.091463 1.567841
v -0.127653 -0.127956 1.636335
v -0.128968 -0.105115 1.540535
v -0.113478 -0.119949 1.581609
v -0.172809 -0.106296 1.608915
vt 0.500000 0.000000
vt 0.260000 0.333333
vt 0.260000 0.666667
vt 0.500000 1.000000
vt 0.740000 0.666667
vt 0.740000 0.333333
vn 0.3124 0.9250 0.2163
s off
mtllib leafwood.mtl
usemtl Leaves
f 1/1/1 2/2/1 6/3/1 3/4/1
f 1/1/1 3/4/1 5/5/1 4/6/1
