# Blender v3.4.0 OBJ File: 'apple_tree10_sapling_05_8_2_2.blend'
# www.blender.org
o leaves.163
v -0.128661 -0.196494 1.205222
v -0.154299 -0.192970 1.203922
v -0.182952 -0.203477 1.236581
v -0.139217 -0.204672 1.227428
v -0.157314 -0.207000 1.237881
v -0.172396 -0.195298 1.214375
vt 0.500000 0.000000
vt 0.260000 0.333333
vt 0.260000 0.666667
vt 0.500000 1.000000
vt 0.740000 0.666667
vt 0.740000 0.333333
vn 0.1062 0.9156 0.3877
s off
mtllib leafwood.mtl
usemtl Leaves
f 1/1/1 2/2/1 6/3/1 3/4/1
f 1/1/1 3/4/1 5/5/1 4/6/1
