# Blender v3.4.0 OBJ File: 'apple_tree10_sapling_05_8_2_2.blend'
# www.blender.org
o leaves.343
v -0.092086 0.092335 2.101968
v -0.050222 0.114186 2.114289
v -0.043491 0.195099 2.136549
v -0.101553 0.138993 2.112701
v -0.085354 0.173248 2.124228
v -0.034024 0.148441 2.125816
vt 0.500000 0.000000
vt 0.260000 0.333333
vt 0.260000 0.666667
vt 0.500000 1.000000
vt 0.740000 0.666667
vt 0.740000 0.333333
vn -0.1507 -0.2506 0.9563
s off
mtllib leafwood.mtl
usemtl Leaves
f 1/1/1 2/2/1 6/3/1 3/4/1
f 1/1/1 3/4/1 5/5/1 4/6/1
