# Blender v3.4.0 OBJ File: 'apple_tree10_sapling_05_8_2_2.blend'
# www.blender.org
o leaves.270
v -0.250264 -0.118196 1.770859
v -0.271704 -0.078949 1.862316
v -0.271332 -0.124541 1.806418
v -0.243489 -0.085686 1.796272
v -0.250636 -0.072604 1.826757
v -0.278479 -0.111459 1.836904
vt 0.500000 0.000000
vt 0.500000 1.000000
vt 0.740000 0.666667
vt 0.740000 0.333333
vt 0.260000 0.333333
vt 0.260000 0.666667
vn 0.7943 -0.4681 0.3871
s off
mtllib leafwood.mtl
usemtl Leaves
f 1/1/1 2/2/1 6/3/1 3/4/1
f 1/1/1 4/5/1 5/6/1 2/2/1
