# Blender v3.4.0 OBJ File: 'apple_tree10_sapling_05_8_2_2.blend'
# www.blender.org
o leaves.253
v -0.027687 0.298712 1.710849
v -0.003895 0.326628 1.708615
v -0.018440 0.387173 1.720490
v -0.045314 0.329770 1.719510
v -0.042232 0.359257 1.722724
v -0.000813 0.356115 1.711829
vt 0.500000 0.000000
vt 0.260000 0.333333
vt 0.260000 0.666667
vt 0.500000 1.000000
vt 0.740000 0.666667
vt 0.740000 0.333333
vn 0.2430 -0.1302 0.9613
s off
mtllib leafwood.mtl
usemtl Leaves
f 1/1/1 2/2/1 6/3/1 3/4/1
f 1/1/1 3/4/1 5/5/1 4/6/1
