# Blender v3.4.0 OBJ File: 'apple_tree10_sapling_05_8_2_2.blend'
# www.blender.org
o leaves.230
v 0.264538 0.019757 1.482202
v 0.319019 -0.011086 1.494881
v 0.419492 0.027790 1.471737
v 0.313359 0.055955 1.462546
v 0.365010 0.058633 1.459058
v 0.370670 -0.008409 1.491393
vt 0.500000 0.000000
vt 0.260000 0.333333
vt 0.260000 0.666667
vt 0.500000 1.000000
vt 0.740000 0.666667
vt 0.740000 0.333333
vn 0.0381 0.4367 0.8988
s off
mtllib leafwood.mtl
usemtl Leaves
f 1/1/1 2/2/1 6/3/1 3/4/1
f 1/1/1 3/4/1 5/5/1 4/6/1
