# Blender v3.4.0 OBJ File: 'apple_tree10_sapling_05_8_2_2.blend'
# www.blender.org
o leaves.238
v 0.227357 -0.097553 1.571272
v 0.193468 -0.127772 1.592149
v 0.212267 -0.201525 1.632637
v 0.251185 -0.136648 1.591305
v 0.246155 -0.171305 1.611760
v 0.188438 -0.162430 1.612604
vt 0.500000 0.000000
vt 0.260000 0.333333
vt 0.260000 0.666667
vt 0.500000 1.000000
vt 0.740000 0.666667
vt 0.740000 0.333333
vn 0.0890 0.4966 0.8634
s off
mtllib leafwood.mtl
usemtl Leaves
f 1/1/1 2/2/1 6/3/1 3/4/1
f 1/1/1 3/4/1 5/5/1 4/6/1
