# Blender v3.4.0 OBJ File: 'apple_tree10_sapling_05_8_2_2.blend'
# www.blender.org
o leaves.111
v 0.021763 -0.225231 0.937891
v 0.003467 -0.242959 0.939839
v 0.010956 -0.285907 0.946318
v 0.032854 -0.247954 0.941561
v 0.029252 -0.268179 0.944370
v -0.000135 -0.263184 0.942648
vt 0.500000 0.000000
vt 0.260000 0.333333
vt 0.260000 0.666667
vt 0.500000 1.000000
vt 0.740000 0.666667
vt 0.740000 0.333333
vn -0.0336 0.1434 0.9891
s off
mtllib leafwood.mtl
usemtl Leaves
f 1/1/1 2/2/1 6/3/1 3/4/1
f 1/1/1 3/4/1 5/5/1 4/6/1
