# Blender v3.4.0 OBJ File: 'apple_tree10_sapling_05_8_2_2.blend'
# www.blender.org
o leaves.129
v -0.157695 0.074526 1.040915
v -0.179608 0.108772 1.085478
v -0.276812 0.102594 1.122105
v -0.215194 0.058992 1.050478
v -0.254900 0.068348 1.077542
v -0.219314 0.118128 1.112542
vt 0.500000 0.000000
vt 0.260000 0.333333
vt 0.260000 0.666667
vt 0.500000 1.000000
vt 0.740000 0.666667
vt 0.740000 0.333333
vn 0.2955 -0.6818 0.6692
s off
mtllib leafwood.mtl
usemtl Leaves
f 1/1/1 2/2/1 6/3/1 3/4/1
f 1/1/1 3/4/1 5/5/1 4/6/1
