# Blender v3.4.0 OBJ File: 'apple_tree10_sapling_05_8_2_2.blend'
# www.blender.org
o leaves.146
v -0.304861 0.122554 1.088570
v -0.311152 0.162631 1.092663
v -0.371370 0.195286 1.076701
v -0.342909 0.130965 1.076565
v -0.365079 0.155209 1.072609
v -0.333322 0.186875 1.088706
vt 0.500000 0.000000
vt 0.260000 0.333333
vt 0.260000 0.666667
vt 0.500000 1.000000
vt 0.740000 0.666667
vt 0.740000 0.333333
vn -0.3270 -0.1467 0.9336
s off
mtllib leafwood.mtl
usemtl Leaves
f 1/1/1 2/2/1 6/3/1 3/4/1
f 1/1/1 3/4/1 5/5/1 4/6/1
