# Blender v3.4.0 OBJ File: 'apple_tree10_sapling_05_8_2_2.blend'
# www.blender.org
o leaves.118
v 0.224658 -0.107741 0.964085
v 0.232130 -0.162419 0.957657
v 0.314140 -0.208466 0.976088
v 0.276841 -0.120213 0.978515
v 0.306669 -0.153788 0.982516
v 0.261957 -0.195994 0.961658
vt 0.500000 0.000000
vt 0.260000 0.333333
vt 0.260000 0.666667
vt 0.500000 1.000000
vt 0.740000 0.666667
vt 0.740000 0.333333
vn -0.2969 -0.1514 0.9428
s off
mtllib leafwood.mtl
usemtl Leaves
f 1/1/1 2/2/1 6/3/1 3/4/1
f 1/1/1 3/4/1 5/5/1 4/6/1
