# Blender v3.4.0 OBJ File: 'apple_tree10_sapling_05_8_2_2.blend'
# www.blender.org
o leaves.371
v -0.037147 0.063300 2.436758
v -0.028697 0.089974 2.447803
v -0.054660 0.134313 2.440533
v -0.057273 0.083967 2.428229
v -0.063110 0.107639 2.429488
v -0.034534 0.113645 2.449062
vt 0.500000 0.000000
vt 0.260000 0.333333
vt 0.260000 0.666667
vt 0.500000 1.000000
vt 0.740000 0.666667
vt 0.740000 0.333333
vn -0.5311 -0.1750 0.8290
s off
mtllib leafwood.mtl
usemtl Leaves
f 1/1/1 2/2/1 6/3/1 3/4/1
f 1/1/1 3/4/1 5/5/1 4/6/1
