# Blender v3.4.0 OBJ File: 'apple_tree10_sapling_05_8_2_2.blend'
# www.blender.org
o leaves.235
v 0.279874 0.022243 1.482791
v 0.290348 0.000409 1.473919
v 0.321366 -0.001499 1.442085
v 0.297062 0.028248 1.464526
v 0.310893 0.020334 1.450957
v 0.304178 -0.007505 1.460350
vt 0.500000 0.000000
vt 0.260000 0.333333
vt 0.260000 0.666667
vt 0.500000 1.000000
vt 0.740000 0.666667
vt 0.740000 0.333333
vn 0.7167 0.0615 0.6947
s off
mtllib leafwood.mtl
usemtl Leaves
f 1/1/1 2/2/1 6/3/1 3/4/1
f 1/1/1 3/4/1 5/5/1 4/6/1
