# Blender v3.4.0 OBJ File: 'apple_tree10_sapling_05_8_2_2.blend'
# www.blender.org
o leaves.175
v 0.205484 0.110969 1.164290
v 0.237711 0.104523 1.147884
v 0.286178 0.145325 1.146809
v 0.227054 0.140319 1.169042
v 0.253951 0.151771 1.163215
v 0.264609 0.115975 1.142057
vt 0.500000 0.000000
vt 0.260000 0.333333
vt 0.260000 0.666667
vt 0.500000 1.000000
vt 0.740000 0.666667
vt 0.740000 0.333333
vn 0.3524 -0.3962 0.8478
s off
mtllib leafwood.mtl
usemtl Leaves
f 1/1/1 2/2/1 6/3/1 3/4/1
f 1/1/1 3/4/1 5/5/1 4/6/1
