# Blender v3.4.0 OBJ File: 'apple_tree10_sapling_05_8_2_2.blend'
# www.blender.org
o leaves.342
v -0.259153 -0.075470 2.043264
v -0.283125 -0.083464 2.046439
v -0.301588 -0.116269 2.023785
v -0.263471 -0.094675 2.027103
v -0.277616 -0.108274 2.020611
v -0.297270 -0.097064 2.039946
vt 0.500000 0.000000
vt 0.260000 0.333333
vt 0.260000 0.666667
vt 0.500000 1.000000
vt 0.740000 0.666667
vt 0.740000 0.333333
vn 0.3091 -0.6520 0.6923
vn 0.3091 -0.6521 0.6923
s off
mtllib leafwood.mtl
usemtl Leaves
f 1/1/1 2/2/1 6/3/1 3/4/1
f 1/1/2 3/4/2 5/5/2 4/6/2
