# Blender v3.4.0 OBJ File: 'apple_tree10_sapling_05_8_2_2.blend'
# www.blender.org
o leaves.334
v -0.145085 0.058707 2.126163
v -0.216713 0.070646 2.237746
v -0.190347 0.041923 2.151851
v -0.147575 0.083450 2.174864
v -0.171451 0.087430 2.212059
v -0.214223 0.045902 2.189045
vt 0.500000 0.000000
vt 0.500000 1.000000
vt 0.740000 0.666667
vt 0.740000 0.333333
vt 0.260000 0.333333
vt 0.260000 0.666667
vn 0.5124 -0.7547 0.4097
s off
mtllib leafwood.mtl
usemtl Leaves
f 1/1/1 2/2/1 6/3/1 3/4/1
f 1/1/1 4/5/1 5/6/1 2/2/1
