# Blender v3.4.0 OBJ File: 'apple_tree10_sapling_05_8_2_2.blend'
# www.blender.org
o leaves.002
v 0.239888 0.161732 0.767990
v 0.281618 0.141661 0.774784
v 0.335920 0.166467 0.829135
v 0.262179 0.184960 0.801961
v 0.294190 0.186538 0.822342
v 0.313629 0.143239 0.795165
vt 0.500000 0.000000
vt 0.260000 0.333333
vt 0.260000 0.666667
vt 0.500000 1.000000
vt 0.740000 0.666667
vt 0.740000 0.333333
vn -0.4042 -0.6095 0.6820
s off
mtllib leafwood.mtl
usemtl Leaves
f 1/1/1 2/2/1 6/3/1 3/4/1
f 1/1/1 3/4/1 5/5/1 4/6/1
