# Blender v3.4.0 OBJ File: 'apple_tree10_sapling_05_8_2_2.blend'
# www.blender.org
o leaves.191
v -0.011177 0.329476 1.318979
v -0.010918 0.379265 1.326164
v 0.030665 0.348349 1.298398
v 0.051976 0.432469 1.298886
v 0.010133 0.413596 1.319467
v 0.051716 0.382680 1.291701
vt 0.500000 0.000000
vt 0.500000 1.000000
vt 0.740000 0.666667
vt 0.740000 0.333333
vt 0.260000 0.333333
vt 0.260000 0.666667
vn 0.4835 -0.1275 0.8660
s off
mtllib leafwood.mtl
usemtl Leaves
f 1/1/1 4/2/1 5/3/1 2/4/1
f 1/1/1 3/5/1 6/6/1 4/2/1
