# Blender v3.4.0 OBJ File: 'apple_tree10_sapling_05_8_2_2.blend'
# www.blender.org
o leaves.316
v 0.095213 -0.133680 1.922813
v 0.133049 -0.160812 1.937905
v 0.127536 -0.241865 1.960891
v 0.078926 -0.178671 1.933106
v 0.089700 -0.214733 1.945799
v 0.143824 -0.196874 1.950597
vt 0.500000 0.000000
vt 0.500000 1.000000
vt 0.740000 0.666667
vt 0.740000 0.333333
vt 0.260000 0.333333
vt 0.260000 0.666667
vn -0.1759 0.2796 0.9438
vn -0.1760 0.2796 0.9438
s off
mtllib leafwood.mtl
usemtl Leaves
f 1/1/1 3/2/1 6/3/1 2/4/1
f 1/1/2 4/5/2 5/6/2 3/2/2
