# Blender v3.4.0 OBJ File: 'apple_tree10_sapling_05_8_2_2.blend'
# www.blender.org
o leaves.345
v -0.085097 0.104778 2.103815
v -0.027819 0.160216 2.077218
v -0.080759 0.135793 2.089301
v -0.051249 0.110723 2.100597
v -0.032156 0.129202 2.091731
v -0.061666 0.154272 2.080435
vt 0.500000 0.000000
vt 0.500000 1.000000
vt 0.740000 0.666667
vt 0.740000 0.333333
vt 0.260000 0.333333
vt 0.260000 0.666667
vn 0.0120 0.4224 0.9063
vn 0.0120 0.4225 0.9063
s off
mtllib leafwood.mtl
usemtl Leaves
f 1/1/1 2/2/1 6/3/1 3/4/1
f 1/1/2 4/5/2 5/6/2 2/2/2
