# Blender v3.4.0 OBJ File: 'apple_tree10_sapling_05_8_2_2.blend'
# www.blender.org
o leaves.281
v 0.175427 0.011388 1.890213
v 0.208055 0.023027 1.942235
v 0.180862 0.096740 2.016066
v 0.146423 0.056650 1.922094
v 0.148235 0.085101 1.964045
v 0.209866 0.051478 1.984186
vt 0.500000 0.000000
vt 0.260000 0.333333
vt 0.260000 0.666667
vt 0.500000 1.000000
vt 0.740000 0.666667
vt 0.740000 0.333333
vn -0.5354 -0.6881 0.4898
s off
mtllib leafwood.mtl
usemtl Leaves
f 1/1/1 2/2/1 6/3/1 3/4/1
f 1/1/1 3/4/1 5/5/1 4/6/1
