# Blender v3.4.0 OBJ File: 'apple_tree10_sapling_05_8_2_2.blend'
# www.blender.org
o leaves.050
v -0.110192 -0.251589 0.766993
v -0.114444 -0.329470 0.761190
v -0.096598 -0.277530 0.753789
v -0.126621 -0.277569 0.776328
v -0.128039 -0.303530 0.774394
v -0.098015 -0.303490 0.751855
vt 0.500000 0.000000
vt 0.500000 1.000000
vt 0.740000 0.666667
vt 0.740000 0.333333
vt 0.260000 0.333333
vt 0.260000 0.666667
vn 0.5979 -0.0920 0.7963
s off
mtllib leafwood.mtl
usemtl Leaves
f 1/1/1 2/2/1 6/3/1 3/4/1
f 1/1/1 4/5/1 5/6/1 2/2/1
