# Blender v3.4.0 OBJ File: 'apple_tree10_sapling_05_8_2_2.blend'
# www.blender.org
o leaves.092
v -0.294980 0.018222 0.850308
v -0.297250 0.061291 0.857288
v -0.354810 0.104974 0.835871
v -0.332597 0.032988 0.833703
v -0.352540 0.061906 0.828890
v -0.317193 0.090208 0.852476
vt 0.500000 0.000000
vt 0.260000 0.333333
vt 0.260000 0.666667
vt 0.500000 1.000000
vt 0.740000 0.666667
vt 0.740000 0.333333
vn -0.4520 -0.1659 0.8765
s off
mtllib leafwood.mtl
usemtl Leaves
f 1/1/1 2/2/1 6/3/1 3/4/1
f 1/1/1 3/4/1 5/5/1 4/6/1
