# Blender v3.4.0 OBJ File: 'apple_tree10_sapling_05_8_2_2.blend'
# www.blender.org
o leaves.221
v -0.055089 0.253214 1.392372
v -0.034695 0.243126 1.396083
v -0.000281 0.255560 1.380509
v -0.038944 0.264867 1.380752
v -0.020675 0.265649 1.376797
v -0.016426 0.243908 1.392129
vt 0.500000 0.000000
vt 0.260000 0.333333
vt 0.260000 0.666667
vt 0.500000 1.000000
vt 0.740000 0.666667
vt 0.740000 0.333333
vn 0.1468 0.5891 0.7946
s off
mtllib leafwood.mtl
usemtl Leaves
f 1/1/1 2/2/1 6/3/1 3/4/1
f 1/1/1 3/4/1 5/5/1 4/6/1
