# Blender v3.4.0 OBJ File: 'apple_tree10_sapling_05_8_2_2.blend'
# www.blender.org
o leaves.066
v -0.170925 0.137185 0.917911
v -0.202607 0.152678 0.932268
v -0.161334 0.168533 0.937281
v -0.204061 0.207446 0.968501
v -0.172379 0.191954 0.954144
v -0.213653 0.176098 0.949131
vt 0.500000 0.000000
vt 0.500000 1.000000
vt 0.740000 0.666667
vt 0.740000 0.333333
vt 0.260000 0.333333
vt 0.260000 0.666667
vn 0.1091 -0.5464 0.8304
s off
mtllib leafwood.mtl
usemtl Leaves
f 1/1/1 4/2/1 6/3/1 2/4/1
f 1/1/1 3/5/1 5/6/1 4/2/1
