# Blender v3.4.0 OBJ File: 'apple_tree10_sapling_05_8_2_2.blend'
# www.blender.org
o leaves.038
v -0.076081 0.237250 0.726025
v -0.032673 0.239409 0.732512
v 0.003013 0.298061 0.764644
v -0.066759 0.275631 0.745284
v -0.040394 0.295902 0.758157
v -0.006309 0.259679 0.745385
vt 0.500000 0.000000
vt 0.260000 0.333333
vt 0.260000 0.666667
vt 0.500000 1.000000
vt 0.740000 0.666667
vt 0.740000 0.333333
vn -0.1133 -0.4235 0.8988
s off
mtllib leafwood.mtl
usemtl Leaves
f 1/1/1 2/2/1 6/3/1 3/4/1
f 1/1/1 3/4/1 5/5/1 4/6/1
