# Blender v3.4.0 OBJ File: 'apple_tree10_sapling_05_8_2_2.blend'
# www.blender.org
o leaves.031
v 0.161848 0.153162 0.764710
v 0.206626 0.154906 0.775393
v 0.173823 0.197291 0.770323
v 0.246977 0.221971 0.789153
v 0.235002 0.177842 0.783541
v 0.202199 0.220227 0.778471
vt 0.500000 0.000000
vt 0.260000 0.333333
vt 0.260000 0.666667
vt 0.500000 1.000000
vt 0.740000 0.666667
vt 0.740000 0.333333
vn -0.2294 -0.0613 0.9714
s off
mtllib leafwood.mtl
usemtl Leaves
f 1/1/1 2/2/1 5/3/1 4/4/1
f 1/1/1 4/4/1 6/5/1 3/6/1
