# Blender v3.4.0 OBJ File: 'apple_tree10_sapling_05_8_2_2.blend'
# www.blender.org
o leaves.364
v -0.002025 0.012751 2.409353
v -0.003766 -0.030630 2.432619
v 0.016712 -0.042236 2.514263
v 0.012207 0.019473 2.456027
v 0.018452 0.001144 2.490997
v 0.002480 -0.048958 2.467589
vt 0.500000 0.000000
vt 0.260000 0.333333
vt 0.260000 0.666667
vt 0.500000 1.000000
vt 0.740000 0.666667
vt 0.740000 0.333333
vn -0.9479 0.1792 0.2632
s off
mtllib leafwood.mtl
usemtl Leaves
f 1/1/1 2/2/1 6/3/1 3/4/1
f 1/1/1 3/4/1 5/5/1 4/6/1
