# Blender v3.4.0 OBJ File: 'apple_tree10_sapling_05_8_2_2.blend'
# www.blender.org
o leaves.273
v -0.257675 -0.117195 1.784704
v -0.286314 -0.113423 1.783572
v -0.319681 -0.150483 1.783895
v -0.270373 -0.143159 1.785297
v -0.291042 -0.154255 1.785027
v -0.306983 -0.124519 1.783302
vt 0.500000 0.000000
vt 0.260000 0.333333
vt 0.260000 0.666667
vt 0.500000 1.000000
vt 0.740000 0.666667
vt 0.740000 0.333333
vn -0.0343 0.0396 0.9986
s off
mtllib leafwood.mtl
usemtl Leaves
f 1/1/1 2/2/1 6/3/1 3/4/1
f 1/1/1 3/4/1 5/5/1 4/6/1
