# Blender v3.4.0 OBJ File: 'apple_tree10_sapling_05_8_2_2.blend'
# www.blender.org
o leaves.098
v 0.052296 -0.111080 0.904692
v 0.075482 -0.149064 0.899657
v 0.025672 -0.145488 0.915320
v 0.047140 -0.219668 0.913082
v 0.023954 -0.181684 0.918117
v 0.073763 -0.185260 0.902454
vt 0.500000 0.000000
vt 0.500000 1.000000
vt 0.740000 0.666667
vt 0.740000 0.333333
vt 0.260000 0.333333
vt 0.260000 0.666667
vn 0.3033 0.0591 0.9511
s off
mtllib leafwood.mtl
usemtl Leaves
f 1/1/1 4/2/1 6/3/1 2/4/1
f 1/1/1 3/5/1 5/6/1 4/2/1
