# Blender v3.4.0 OBJ File: 'apple_tree10_sapling_05_8_2_2.blend'
# www.blender.org
o leaves.299
v 0.093051 -0.205629 1.775389
v 0.058008 -0.242485 1.772594
v 0.074088 -0.327579 1.787429
v 0.115452 -0.250073 1.786210
v 0.109131 -0.290723 1.790223
v 0.051688 -0.283135 1.776607
vt 0.500000 0.000000
vt 0.260000 0.333333
vt 0.260000 0.666667
vt 0.500000 1.000000
vt 0.740000 0.666667
vt 0.740000 0.333333
vn -0.2126 0.1287 0.9686
s off
mtllib leafwood.mtl
usemtl Leaves
f 1/1/1 2/2/1 6/3/1 3/4/1
f 1/1/1 3/4/1 5/5/1 4/6/1
