# Blender v3.4.0 OBJ File: 'apple_tree10_sapling_05_8_2_2.blend'
# www.blender.org
o leaves.335
v -0.146338 0.059678 2.127697
v -0.214679 0.128553 2.091095
v -0.184694 0.064107 2.109711
v -0.153542 0.101166 2.121281
v -0.176322 0.124124 2.109080
v -0.207475 0.087065 2.097510
vt 0.500000 0.000000
vt 0.500000 1.000000
vt 0.740000 0.666667
vt 0.740000 0.333333
vt 0.260000 0.333333
vt 0.260000 0.666667
vn -0.4172 0.0677 0.9063
s off
mtllib leafwood.mtl
usemtl Leaves
f 1/1/1 2/2/1 6/3/1 3/4/1
f 1/1/1 4/5/1 5/6/1 2/2/1
