# Blender v3.4.0 OBJ File: 'apple_tree10_sapling_05_8_2_2.blend'
# www.blender.org
o leaves.076
v -0.339466 -0.074537 0.810053
v -0.365568 -0.070021 0.808448
v -0.394167 -0.092904 0.780987
v -0.349832 -0.091298 0.792279
v -0.368066 -0.097421 0.782591
v -0.383802 -0.076143 0.798760
vt 0.500000 0.000000
vt 0.260000 0.333333
vt 0.260000 0.666667
vt 0.500000 1.000000
vt 0.740000 0.666667
vt 0.740000 0.333333
vn -0.1604 -0.6697 0.7251
s off
mtllib leafwood.mtl
usemtl Leaves
f 1/1/1 2/2/1 6/3/1 3/4/1
f 1/1/1 3/4/1 5/5/1 4/6/1
