# Blender v3.4.0 OBJ File: 'apple_tree10_sapling_05_8_2_2.blend'
# www.blender.org
o leaves.304
v 0.089571 -0.241061 1.760941
v 0.062335 -0.249957 1.757531
v 0.089075 -0.261369 1.740451
v 0.047974 -0.284869 1.725090
v 0.075209 -0.275972 1.728500
v 0.048470 -0.264560 1.745580
vt 0.500000 0.000000
vt 0.260000 0.333333
vt 0.260000 0.666667
vt 0.500000 1.000000
vt 0.740000 0.666667
vt 0.740000 0.333333
vn 0.1432 -0.7047 0.6949
s off
mtllib leafwood.mtl
usemtl Leaves
f 1/1/1 2/2/1 6/3/1 4/4/1
f 1/1/1 4/4/1 5/5/1 3/6/1
