# Blender v3.4.0 OBJ File: 'apple_tree10_sapling_05_8_2_2.blend'
# www.blender.org
o leaves.370
v -0.036594 0.061944 2.432970
v -0.017425 0.092509 2.432081
v -0.042118 0.149423 2.426922
v -0.059445 0.089699 2.429827
v -0.061286 0.118859 2.427811
v -0.019267 0.121668 2.430065
vt 0.500000 0.000000
vt 0.260000 0.333333
vt 0.260000 0.666667
vt 0.500000 1.000000
vt 0.740000 0.666667
vt 0.740000 0.333333
vn -0.0578 0.0652 0.9962
s off
mtllib leafwood.mtl
usemtl Leaves
f 1/1/1 2/2/1 6/3/1 3/4/1
f 1/1/1 3/4/1 5/5/1 4/6/1
