# Blender v3.4.0 OBJ File: 'apple_tree10_sapling_05_8_2_2.blend'
# www.blender.org
o leaves.097
v 0.051088 -0.107769 0.903508
v 0.036625 -0.129541 0.946768
v 0.083452 -0.188926 0.990158
v 0.087127 -0.140101 0.918015
v 0.097915 -0.167153 0.946899
v 0.047413 -0.156594 0.975651
vt 0.500000 0.000000
vt 0.260000 0.333333
vt 0.260000 0.666667
vt 0.500000 1.000000
vt 0.740000 0.666667
vt 0.740000 0.333333
vn 0.4469 0.7301 0.5169
s off
mtllib leafwood.mtl
usemtl Leaves
f 1/1/1 2/2/1 6/3/1 3/4/1
f 1/1/1 3/4/1 5/5/1 4/6/1
