# Blender v3.4.0 OBJ File: 'apple_tree10_sapling_05_8_2_2.blend'
# www.blender.org
o leaves.018
v -0.129635 0.222040 0.695516
v -0.199441 0.347108 0.713194
v -0.125625 0.280771 0.688558
v -0.180181 0.246688 0.714260
v -0.203450 0.288377 0.720153
v -0.148894 0.322461 0.694450
vt 0.500000 0.000000
vt 0.500000 1.000000
vt 0.740000 0.666667
vt 0.740000 0.333333
vt 0.260000 0.333333
vt 0.260000 0.666667
vn 0.3818 0.0830 0.9205
s off
mtllib leafwood.mtl
usemtl Leaves
f 1/1/1 2/2/1 5/3/1 4/4/1
f 1/1/1 3/5/1 6/6/1 2/2/1
