# Blender v3.4.0 OBJ File: 'apple_tree10_sapling_05_8_2_2.blend'
# www.blender.org
o leaves.223
v -0.061585 0.254208 1.392615
v -0.042339 0.248726 1.413050
v -0.038224 0.274236 1.455079
v -0.065257 0.273043 1.413824
v -0.057470 0.279719 1.434645
v -0.034553 0.255402 1.433871
vt 0.500000 0.000000
vt 0.260000 0.333333
vt 0.260000 0.666667
vt 0.500000 1.000000
vt 0.740000 0.666667
vt 0.740000 0.333333
vn -0.6460 -0.6229 0.4413
s off
mtllib leafwood.mtl
usemtl Leaves
f 1/1/1 2/2/1 6/3/1 3/4/1
f 1/1/1 3/4/1 5/5/1 4/6/1
