# Blender v3.4.0 OBJ File: 'apple_tree10_sapling_05_8_2_2.blend'
# www.blender.org
o leaves.326
v 0.152853 0.180577 1.867687
v 0.164598 0.206584 1.862743
v 0.132720 0.197628 1.855743
v 0.140270 0.245165 1.842355
v 0.128525 0.219157 1.847299
v 0.160404 0.228114 1.854298
vt 0.500000 0.000000
vt 0.260000 0.333333
vt 0.260000 0.666667
vt 0.500000 1.000000
vt 0.740000 0.666667
vt 0.740000 0.333333
vn -0.2845 0.3015 0.9100
s off
mtllib leafwood.mtl
usemtl Leaves
f 1/1/1 2/2/1 6/3/1 4/4/1
f 1/1/1 4/4/1 5/5/1 3/6/1
