# Blender v3.4.0 OBJ File: 'apple_tree1_sapling_05_8_2_2.blend'
# www.blender.org
o leaves.008
v 0.145349 0.147720 0.843641
v 0.171113 0.129340 0.870995
v 0.193870 0.162008 0.930364
v 0.151932 0.175625 0.874102
v 0.168105 0.180387 0.903009
v 0.187287 0.134103 0.899903
vt 0.500000 0.000000
vt 0.250000 0.333333
vt 0.250000 0.666667
vt 0.500000 1.000000
vt 0.750000 0.666667
vt 0.750000 0.333333
vn -0.7877 -0.3600 0.5000
s off
mtllib leafwood.mtl
usemtl Leaves
f 1/1/1 2/2/1 6/3/1 3/4/1
f 1/1/1 3/4/1 5/5/1 4/6/1
