# Blender v3.4.0 OBJ File: 'apple_tree1_sapling_05_8_2_2.blend'
# www.blender.org
o leaves.011
v 0.197502 0.193648 0.858400
v 0.223074 0.187896 0.839771
v 0.251324 0.228045 0.815087
v 0.207812 0.222332 0.848154
v 0.225752 0.233797 0.833716
v 0.241014 0.199362 0.825333
vt 0.500000 0.000000
vt 0.250000 0.333333
vt 0.250000 0.666667
vt 0.500000 1.000000
vt 0.750000 0.666667
vt 0.750000 0.333333
vn 0.5977 0.0705 0.7986
s off
mtllib leafwood.mtl
usemtl Leaves
f 1/1/1 2/2/1 6/3/1 3/4/1
f 1/1/1 3/4/1 5/5/1 4/6/1
