# Blender v3.4.0 OBJ File: 'apple_tree1_sapling_05_8_2_2.blend'
# www.blender.org
o leaves.256
v -0.111748 -0.193425 2.226120
v -0.150184 -0.201512 2.213878
v -0.171078 -0.265866 2.194788
v -0.112864 -0.233632 2.217473
v -0.132641 -0.257779 2.207029
v -0.169961 -0.225659 2.203434
vt 0.500000 0.000000
vt 0.250000 0.333333
vt 0.250000 0.666667
vt 0.500000 1.000000
vt 0.750000 0.666667
vt 0.750000 0.333333
vn -0.2599 -0.1961 0.9455
s off
mtllib leafwood.mtl
usemtl Leaves
f 1/1/1 2/2/1 6/3/1 3/4/1
f 1/1/1 3/4/1 5/5/1 4/6/1
