# Blender v3.4.0 OBJ File: 'apple_tree1_sapling_05_8_2_2.blend'
# www.blender.org
o leaves.187
v -0.085977 -0.291454 1.449291
v -0.101204 -0.304316 1.428921
v -0.081537 -0.335844 1.397444
v -0.067790 -0.308185 1.435096
v -0.066310 -0.322982 1.417814
v -0.099724 -0.319112 1.411639
vt 0.500000 0.000000
vt 0.500000 1.000000
vt 0.750000 0.666667
vt 0.750000 0.333333
vt 0.250000 0.333333
vt 0.250000 0.666667
vn 0.2030 0.7523 -0.6267
s off
mtllib leafwood.mtl
usemtl Leaves
f 1/1/1 3/2/1 6/3/1 2/4/1
f 1/1/1 4/5/1 5/6/1 3/2/1
