# Blender v3.4.0 OBJ File: 'apple_tree1_sapling_05_8_2_2.blend'
# www.blender.org
o leaves.144
v 0.058924 0.095734 1.313141
v 0.073612 0.149487 1.314977
v 0.009676 0.220070 1.317595
v 0.011404 0.124872 1.314274
v -0.005012 0.166317 1.315759
v 0.057196 0.190932 1.316461
vt 0.500000 0.000000
vt 0.250000 0.333333
vt 0.250000 0.666667
vt 0.500000 1.000000
vt 0.750000 0.666667
vt 0.750000 0.333333
vn 0.0025 -0.0348 0.9994
s off
mtllib leafwood.mtl
usemtl Leaves
f 1/1/1 2/2/1 6/3/1 3/4/1
f 1/1/1 3/4/1 5/5/1 4/6/1
