# Blender v3.4.0 OBJ File: 'apple_tree1_sapling_05_8_2_2.blend'
# www.blender.org
o leaves.258
v -0.140285 -0.230661 2.329422
v -0.213891 -0.242211 2.313186
v -0.159899 -0.247458 2.310911
v -0.169741 -0.221564 2.337109
v -0.194277 -0.225414 2.331697
v -0.184435 -0.251308 2.305499
vt 0.500000 0.000000
vt 0.500000 1.000000
vt 0.750000 0.666667
vt 0.750000 0.333333
vt 0.250000 0.333333
vt 0.250000 0.666667
vn -0.0405 -0.7182 0.6947
s off
mtllib leafwood.mtl
usemtl Leaves
f 1/1/1 2/2/1 6/3/1 3/4/1
f 1/1/1 4/5/1 5/6/1 2/2/1
