# Blender v3.4.0 OBJ File: 'apple_tree1_sapling_05_8_2_2.blend'
# www.blender.org
o leaves.247
v -0.025614 0.285847 2.066845
v -0.053959 0.378519 2.089356
v -0.014237 0.325611 2.064043
v -0.055888 0.307864 2.084655
v -0.065336 0.338755 2.092159
v -0.023685 0.356502 2.071547
vt 0.500000 0.000000
vt 0.500000 1.000000
vt 0.750000 0.666667
vt 0.750000 0.333333
vt 0.250000 0.333333
vt 0.250000 0.666667
vn -0.4667 0.0714 -0.8815
s off
mtllib leafwood.mtl
usemtl Leaves
f 1/1/1 2/2/1 6/3/1 3/4/1
f 1/1/1 4/5/1 5/6/1 2/2/1
