# Blender v3.4.0 OBJ File: 'apple_tree1_sapling_05_8_2_2.blend'
# www.blender.org
o leaves.132
v 0.167948 -0.156805 1.307581
v 0.235916 -0.175070 1.401061
v 0.212451 -0.171323 1.321209
v 0.168756 -0.154464 1.356273
v 0.191412 -0.160552 1.387433
v 0.235107 -0.177411 1.352369
vt 0.500000 0.000000
vt 0.500000 1.000000
vt 0.750000 0.666667
vt 0.750000 0.333333
vt 0.250000 0.333333
vt 0.250000 0.666667
vn 0.3238 0.9448 -0.0508
s off
mtllib leafwood.mtl
usemtl Leaves
f 1/1/1 2/2/1 6/3/1 3/4/1
f 1/1/1 4/5/1 5/6/1 2/2/1
