# Blender v3.4.0 OBJ File: 'apple_tree1_sapling_05_8_2_2.blend'
# www.blender.org
o leaves.244
v 0.118906 0.253826 2.148967
v 0.148485 0.233472 2.159845
v 0.149029 0.275666 2.144150
v 0.208460 0.256054 2.158058
v 0.178337 0.234215 2.162875
v 0.178880 0.276408 2.147180
vt 0.500000 0.000000
vt 0.500000 1.000000
vt 0.750000 0.666667
vt 0.750000 0.333333
vt 0.250000 0.333333
vt 0.250000 0.666667
vn 0.1033 -0.3479 -0.9318
s off
mtllib leafwood.mtl
usemtl Leaves
f 1/1/1 4/2/1 5/3/1 2/4/1
f 1/1/1 3/5/1 6/6/1 4/2/1
