# Blender v3.4.0 OBJ File: 'apple_tree1_sapling_05_8_2_2.blend'
# www.blender.org
o leaves.055
v 0.280680 0.198224 1.026199
v 0.313493 0.192355 1.019691
v 0.345276 0.154927 1.050629
v 0.290931 0.175228 1.048994
v 0.312463 0.160796 1.057137
v 0.335025 0.177923 1.027835
vt 0.500000 0.000000
vt 0.250000 0.333333
vt 0.250000 0.666667
vt 0.500000 1.000000
vt 0.750000 0.666667
vt 0.750000 0.333333
vn -0.2560 -0.7357 -0.6271
s off
mtllib leafwood.mtl
usemtl Leaves
f 1/1/1 2/2/1 6/3/1 3/4/1
f 1/1/1 3/4/1 5/5/1 4/6/1
