# Blender v3.4.0 OBJ File: 'apple_tree1_sapling_05_8_2_2.blend'
# www.blender.org
o leaves.137
v 0.126023 -0.041440 1.228123
v 0.156695 -0.012397 1.260030
v 0.198924 0.062540 1.232029
v 0.143951 -0.001163 1.198819
v 0.168252 0.033497 1.200121
v 0.180995 0.022263 1.261333
vt 0.500000 0.000000
vt 0.250000 0.333333
vt 0.250000 0.666667
vt 0.500000 1.000000
vt 0.750000 0.666667
vt 0.750000 0.333333
vn -0.7940 0.5467 0.2657
s off
mtllib leafwood.mtl
usemtl Leaves
f 1/1/1 2/2/1 6/3/1 3/4/1
f 1/1/1 3/4/1 5/5/1 4/6/1
