# Blender v3.4.0 OBJ File: 'apple_tree1_sapling_05_8_2_2.blend'
# www.blender.org
o leaves.133
v 0.181702 -0.191174 1.345168
v 0.168384 -0.233046 1.344779
v 0.131920 -0.264406 1.402441
v 0.161832 -0.198123 1.383739
v 0.145238 -0.222534 1.402830
v 0.151790 -0.257457 1.363870
vt 0.500000 0.000000
vt 0.250000 0.333333
vt 0.250000 0.666667
vt 0.500000 1.000000
vt 0.750000 0.666667
vt 0.750000 0.333333
vn -0.8728 0.2813 -0.3989
s off
mtllib leafwood.mtl
usemtl Leaves
f 1/1/1 2/2/1 6/3/1 3/4/1
f 1/1/1 3/4/1 5/5/1 4/6/1
