# Blender v3.4.0 OBJ File: 'apple_tree1_sapling_05_8_2_2.blend'
# www.blender.org
o leaves.031
v -0.101802 -0.073601 0.867746
v -0.132491 -0.084602 0.909610
v -0.137701 -0.167544 0.945867
v -0.095045 -0.125228 0.877963
v -0.107012 -0.156543 0.904003
v -0.144458 -0.115916 0.935650
vt 0.500000 0.000000
vt 0.250000 0.333333
vt 0.250000 0.666667
vt 0.500000 1.000000
vt 0.750000 0.666667
vt 0.750000 0.333333
vn 0.7581 0.2207 0.6137
s off
mtllib leafwood.mtl
usemtl Leaves
f 1/1/1 2/2/1 6/3/1 3/4/1
f 1/1/1 3/4/1 5/5/1 4/6/1
