# Blender v3.4.0 OBJ File: 'apple_tree1_sapling_05_8_2_2.blend'
# www.blender.org
o leaves.190
v 0.130226 0.017764 1.551439
v 0.169881 0.033992 1.520833
v 0.196756 0.119810 1.517812
v 0.134923 0.069567 1.559627
v 0.157100 0.103582 1.548418
v 0.192058 0.068007 1.509624
vt 0.500000 0.000000
vt 0.250000 0.333333
vt 0.250000 0.666667
vt 0.500000 1.000000
vt 0.750000 0.666667
vt 0.750000 0.333333
vn 0.6456 -0.1760 0.7431
s off
mtllib leafwood.mtl
usemtl Leaves
f 1/1/1 2/2/1 6/3/1 3/4/1
f 1/1/1 3/4/1 5/5/1 4/6/1
