# Blender v3.4.0 OBJ File: 'apple_tree1_sapling_05_8_2_2.blend'
# www.blender.org
o leaves.089
v 0.173948 -0.122991 1.125814
v 0.170338 -0.159065 1.145253
v 0.225856 -0.194680 1.169557
v 0.212162 -0.134710 1.135537
v 0.229465 -0.158606 1.150118
v 0.187641 -0.182961 1.159834
vt 0.500000 0.000000
vt 0.250000 0.333333
vt 0.250000 0.666667
vt 0.500000 1.000000
vt 0.750000 0.666667
vt 0.750000 0.333333
vn -0.0757 0.4789 0.8746
s off
mtllib leafwood.mtl
usemtl Leaves
f 1/1/1 2/2/1 6/3/1 3/4/1
f 1/1/1 3/4/1 5/5/1 4/6/1
