# Blender v3.4.0 OBJ File: 'apple_tree1_sapling_05_8_2_2.blend'
# www.blender.org
o leaves.001
v 0.028548 0.033077 0.823778
v 0.040254 -0.018814 0.825170
v 0.125716 -0.049797 0.822975
v 0.081620 0.029719 0.821852
v 0.114010 0.002094 0.821584
v 0.072644 -0.046439 0.824902
vt 0.500000 0.000000
vt 0.250000 0.333333
vt 0.250000 0.666667
vt 0.500000 1.000000
vt 0.750000 0.666667
vt 0.750000 0.333333
vn 0.0385 0.0355 0.9986
s off
mtllib leafwood.mtl
usemtl Leaves
f 1/1/1 2/2/1 6/3/1 3/4/1
f 1/1/1 3/4/1 5/5/1 4/6/1
