# Blender v3.4.0 OBJ File: 'apple_tree1_sapling_05_8_2_2.blend'
# www.blender.org
o leaves.200
v 0.282272 0.062150 1.717103
v 0.268516 0.040957 1.737316
v 0.303891 0.038481 1.721500
v 0.294068 -0.005145 1.754018
v 0.307823 0.016049 1.733805
v 0.272448 0.018525 1.749621
vt 0.500000 0.000000
vt 0.500000 1.000000
vt 0.750000 0.666667
vt 0.750000 0.333333
vt 0.250000 0.333333
vt 0.250000 0.666667
vn -0.3833 -0.4950 -0.7798
s off
mtllib leafwood.mtl
usemtl Leaves
f 1/1/1 4/2/1 6/3/1 2/4/1
f 1/1/1 3/5/1 5/6/1 4/2/1
