# Blender v3.4.0 OBJ File: 'apple_tree1_sapling_05_8_2_2.blend'
# www.blender.org
o leaves.205
v -0.187238 0.070536 1.708864
v -0.228412 0.082027 1.725102
v -0.267889 0.037024 1.775321
v -0.199831 0.036704 1.736932
v -0.226715 0.025533 1.759084
v -0.255295 0.070856 1.747254
vt 0.500000 0.000000
vt 0.250000 0.333333
vt 0.250000 0.666667
vt 0.500000 1.000000
vt 0.750000 0.666667
vt 0.750000 0.333333
vn 0.4343 0.4738 0.7660
s off
mtllib leafwood.mtl
usemtl Leaves
f 1/1/1 2/2/1 6/3/1 3/4/1
f 1/1/1 3/4/1 5/5/1 4/6/1
