# Blender v3.4.0 OBJ File: 'apple_tree1_sapling_05_8_2_2.blend'
# www.blender.org
o leaves.241
v -0.002186 0.144240 1.981246
v 0.006272 0.189384 1.968613
v 0.046853 0.241376 2.016322
v 0.022048 0.163852 2.017263
v 0.038394 0.196231 2.028955
v 0.022619 0.221763 1.980305
vt 0.500000 0.000000
vt 0.250000 0.333333
vt 0.250000 0.666667
vt 0.500000 1.000000
vt 0.750000 0.666667
vt 0.750000 0.333333
vn 0.8601 -0.2804 -0.4261
s off
mtllib leafwood.mtl
usemtl Leaves
f 1/1/1 2/2/1 6/3/1 3/4/1
f 1/1/1 3/4/1 5/5/1 4/6/1
