# Blender v3.4.0 OBJ File: 'apple_tree1_sapling_05_8_2_2.blend'
# www.blender.org
o leaves.099
v 0.055020 0.070591 1.084029
v 0.105656 0.068066 1.086662
v 0.155855 0.138757 1.089595
v 0.071607 0.118559 1.085107
v 0.105219 0.141281 1.086962
v 0.139268 0.090788 1.088517
vt 0.500000 0.000000
vt 0.250000 0.333333
vt 0.250000 0.666667
vt 0.500000 1.000000
vt 0.750000 0.666667
vt 0.750000 0.333333
vn -0.0522 -0.0044 0.9986
vn -0.0521 -0.0044 0.9986
s off
mtllib leafwood.mtl
usemtl Leaves
f 1/1/1 2/2/1 6/3/1 3/4/1
f 1/1/2 3/4/2 5/5/2 4/6/2
