# Blender v3.4.0 OBJ File: 'apple_tree1_sapling_05_8_2_2.blend'
# www.blender.org
o leaves.047
v 0.207559 0.124914 0.916973
v 0.227789 0.089087 0.906743
v 0.299684 0.085906 0.898405
v 0.248746 0.134735 0.914824
v 0.279454 0.121733 0.908635
v 0.258497 0.076084 0.900554
vt 0.500000 0.000000
vt 0.250000 0.333333
vt 0.250000 0.666667
vt 0.500000 1.000000
vt 0.750000 0.666667
vt 0.750000 0.333333
vn 0.1028 -0.2190 0.9703
s off
mtllib leafwood.mtl
usemtl Leaves
f 1/1/1 2/2/1 6/3/1 3/4/1
f 1/1/1 3/4/1 5/5/1 4/6/1
