# Blender v3.4.0 OBJ File: 'apple_tree1_sapling_05_8_2_2.blend'
# www.blender.org
o leaves.110
v 0.172904 0.283428 1.110590
v 0.177273 0.371946 1.110936
v 0.152234 0.314025 1.111083
v 0.196487 0.311843 1.110329
v 0.197943 0.341350 1.110444
v 0.153690 0.343531 1.111198
vt 0.500000 0.000000
vt 0.500000 1.000000
vt 0.750000 0.666667
vt 0.750000 0.333333
vt 0.250000 0.333333
vt 0.250000 0.666667
vn 0.0168 -0.0047 0.9998
s off
mtllib leafwood.mtl
usemtl Leaves
f 1/1/1 2/2/1 6/3/1 3/4/1
f 1/1/1 4/5/1 5/6/1 2/2/1
