# Blender v3.4.0 OBJ File: 'apple_tree1_sapling_05_8_2_2.blend'
# www.blender.org
o leaves.179
v -0.178412 -0.025119 1.605251
v -0.234490 -0.084165 1.602618
v -0.211843 -0.030766 1.603535
v -0.182367 -0.058835 1.605212
v -0.201059 -0.078517 1.604334
v -0.230535 -0.050448 1.602657
vt 0.500000 0.000000
vt 0.500000 1.000000
vt 0.750000 0.666667
vt 0.750000 0.333333
vt 0.250000 0.333333
vt 0.250000 0.666667
vn -0.0521 0.0050 0.9986
s off
mtllib leafwood.mtl
usemtl Leaves
f 1/1/1 2/2/1 5/3/1 4/4/1
f 1/1/1 3/5/1 6/6/1 2/2/1
