# Blender v3.4.0 OBJ File: 'apple_tree1_sapling_05_8_2_2.blend'
# www.blender.org
o leaves.266
v -0.004326 0.116269 2.278352
v -0.017025 0.157934 2.403990
v 0.023937 0.125180 2.325166
v -0.041055 0.135134 2.315296
v -0.045288 0.149022 2.357175
v 0.019704 0.139069 2.367046
vt 0.500000 0.000000
vt 0.500000 1.000000
vt 0.750000 0.666667
vt 0.750000 0.333333
vt 0.250000 0.333333
vt 0.250000 0.666667
vn -0.1880 -0.9378 0.2920
s off
mtllib leafwood.mtl
usemtl Leaves
f 1/1/1 2/2/1 5/3/1 4/4/1
f 1/1/1 3/5/1 6/6/1 2/2/1
