# Blender v3.4.0 OBJ File: 'apple_tree1_sapling_05_8_2_2.blend'
# www.blender.org
o leaves.193
v 0.258679 -0.024835 1.593576
v 0.291486 -0.004118 1.599016
v 0.269213 -0.030564 1.630876
v 0.323691 -0.002353 1.657685
v 0.313157 0.003376 1.620386
v 0.290884 -0.023070 1.652245
vt 0.500000 0.000000
vt 0.500000 1.000000
vt 0.750000 0.666667
vt 0.750000 0.333333
vt 0.250000 0.333333
vt 0.250000 0.666667
vn -0.5455 0.7915 0.2756
s off
mtllib leafwood.mtl
usemtl Leaves
f 1/1/1 4/2/1 5/3/1 2/4/1
f 1/1/1 3/5/1 6/6/1 4/2/1
