# Blender v3.4.0 OBJ File: 'apple_tree1_sapling_05_8_2_2.blend'
# www.blender.org
o leaves.012
v 0.210531 0.211878 0.856354
v 0.189655 0.233488 0.853459
v 0.150067 0.238416 0.886158
v 0.191099 0.207961 0.879118
v 0.170944 0.216807 0.889053
v 0.169500 0.242334 0.863394
vt 0.500000 0.000000
vt 0.250000 0.333333
vt 0.250000 0.666667
vt 0.500000 1.000000
vt 0.750000 0.666667
vt 0.750000 0.333333
vn 0.5494 0.6076 0.5736
s off
mtllib leafwood.mtl
usemtl Leaves
f 1/1/1 2/2/1 6/3/1 3/4/1
f 1/1/1 3/4/1 5/5/1 4/6/1
