# Blender v3.4.0 OBJ File: 'apple_tree1_sapling_05_8_2_2.blend'
# www.blender.org
o leaves.151
v 0.136388 0.350222 1.360445
v 0.159601 0.327068 1.361217
v 0.214235 0.339202 1.364135
v 0.165073 0.366030 1.362133
v 0.191022 0.362356 1.363363
v 0.185550 0.323395 1.362447
vt 0.500000 0.000000
vt 0.250000 0.333333
vt 0.250000 0.666667
vt 0.500000 1.000000
vt 0.750000 0.666667
vt 0.750000 0.333333
vn -0.0497 -0.0165 0.9986
s off
mtllib leafwood.mtl
usemtl Leaves
f 1/1/1 2/2/1 6/3/1 3/4/1
f 1/1/1 3/4/1 5/5/1 4/6/1
