# Blender v3.4.0 OBJ File: 'apple_tree1_sapling_05_8_2_2.blend'
# www.blender.org
o leaves.109
v 0.154186 0.239471 1.094833
v 0.182257 0.267287 1.092870
v 0.168721 0.333197 1.099518
v 0.135805 0.274139 1.099919
v 0.140650 0.305381 1.101481
v 0.187102 0.298529 1.094432
vt 0.500000 0.000000
vt 0.250000 0.333333
vt 0.250000 0.666667
vt 0.500000 1.000000
vt 0.750000 0.666667
vt 0.750000 0.333333
vn 0.1394 -0.0710 0.9877
s off
mtllib leafwood.mtl
usemtl Leaves
f 1/1/1 2/2/1 6/3/1 3/4/1
f 1/1/1 3/4/1 5/5/1 4/6/1
