# Blender v3.4.0 OBJ File: 'apple_tree1_sapling_05_8_2_2.blend'
# www.blender.org
o leaves.155
v 0.186449 0.162278 1.424963
v 0.182841 0.138507 1.454760
v 0.167162 0.159360 1.514760
v 0.177199 0.184104 1.455030
v 0.170770 0.183131 1.484962
v 0.176412 0.137534 1.484693
vt 0.500000 0.000000
vt 0.250000 0.333333
vt 0.250000 0.666667
vt 0.500000 1.000000
vt 0.750000 0.666667
vt 0.750000 0.333333
vn -0.9700 -0.1188 -0.2122
s off
mtllib leafwood.mtl
usemtl Leaves
f 1/1/1 2/2/1 6/3/1 3/4/1
f 1/1/1 3/4/1 5/5/1 4/6/1
