# Blender v3.4.0 OBJ File: 'apple_tree1_sapling_05_8_2_2.blend'
# www.blender.org
o leaves.189
v 0.081914 0.003826 1.536907
v 0.123324 -0.017961 1.517862
v 0.175071 -0.068536 1.564945
v 0.102609 -0.022629 1.574644
v 0.133661 -0.046749 1.583990
v 0.154376 -0.042082 1.527208
vt 0.500000 0.000000
vt 0.250000 0.333333
vt 0.250000 0.666667
vt 0.500000 1.000000
vt 0.750000 0.666667
vt 0.750000 0.333333
vn -0.5412 -0.7987 -0.2631
s off
mtllib leafwood.mtl
usemtl Leaves
f 1/1/1 2/2/1 6/3/1 3/4/1
f 1/1/1 3/4/1 5/5/1 4/6/1
