# Blender v3.4.0 OBJ File: 'apple_tree1_sapling_05_8_2_2.blend'
# www.blender.org
o leaves.171
v -0.138400 0.207356 1.533991
v -0.107233 0.207035 1.541535
v -0.133687 0.180952 1.551570
v -0.084582 0.167270 1.571676
v -0.089294 0.193674 1.554097
v -0.115748 0.167590 1.564132
vt 0.500000 0.000000
vt 0.250000 0.333333
vt 0.250000 0.666667
vt 0.500000 1.000000
vt 0.750000 0.666667
vt 0.750000 0.333333
vn 0.1961 -0.5189 -0.8320
s off
mtllib leafwood.mtl
usemtl Leaves
f 1/1/1 2/2/1 5/3/1 4/4/1
f 1/1/1 4/4/1 6/5/1 3/6/1
