# Blender v3.4.0 OBJ File: 'apple_tree1_sapling_05_8_2_2.blend'
# www.blender.org
o leaves.183
v -0.067702 -0.133809 1.453613
v -0.035522 -0.172850 1.459080
v -0.047794 -0.235762 1.517844
v -0.086610 -0.162737 1.490967
v -0.079974 -0.196721 1.512377
v -0.028886 -0.206835 1.480490
vt 0.500000 0.000000
vt 0.500000 1.000000
vt 0.750000 0.666667
vt 0.750000 0.333333
vt 0.250000 0.333333
vt 0.250000 0.666667
vn 0.5230 0.5251 0.6714
s off
mtllib leafwood.mtl
usemtl Leaves
f 1/1/1 3/2/1 6/3/1 2/4/1
f 1/1/1 4/5/1 5/6/1 3/2/1
