# Blender v3.4.0 OBJ File: 'apple_tree1_sapling_05_8_2_2.blend'
# www.blender.org
o leaves.202
v -0.036032 0.046349 1.607623
v -0.037426 0.107218 1.610752
v -0.125273 0.161984 1.599067
v -0.094132 0.062570 1.598790
v -0.123879 0.101115 1.595938
v -0.067173 0.145763 1.607900
vt 0.500000 0.000000
vt 0.250000 0.333333
vt 0.250000 0.666667
vt 0.500000 1.000000
vt 0.750000 0.666667
vt 0.750000 0.333333
vn -0.1649 -0.0544 0.9848
s off
mtllib leafwood.mtl
usemtl Leaves
f 1/1/1 2/2/1 6/3/1 3/4/1
f 1/1/1 3/4/1 5/5/1 4/6/1
