# Blender v3.4.0 OBJ File: 'apple_tree1_sapling_05_8_2_2.blend'
# www.blender.org
o leaves.107
v 0.376685 0.186278 1.127360
v 0.394187 0.159116 1.128146
v 0.449418 0.159306 1.127703
v 0.407671 0.195459 1.126803
v 0.431915 0.186469 1.126917
v 0.418432 0.150126 1.128260
vt 0.500000 0.000000
vt 0.250000 0.333333
vt 0.250000 0.666667
vt 0.500000 1.000000
vt 0.750000 0.666667
vt 0.750000 0.333333
vn 0.0079 0.0340 0.9994
s off
mtllib leafwood.mtl
usemtl Leaves
f 1/1/1 2/2/1 6/3/1 3/4/1
f 1/1/1 3/4/1 5/5/1 4/6/1
