# Blender v3.4.0 OBJ File: 'apple_tree1_sapling_05_8_2_2.blend'
# www.blender.org
o leaves.114
v -0.070591 -0.025014 1.141133
v -0.179578 -0.089586 1.101306
v -0.125841 -0.024614 1.144088
v -0.087999 -0.068463 1.111626
v -0.124328 -0.089986 1.098350
v -0.162170 -0.046138 1.130812
vt 0.500000 0.000000
vt 0.500000 1.000000
vt 0.750000 0.666667
vt 0.750000 0.333333
vt 0.250000 0.333333
vt 0.250000 0.666667
vn 0.0397 -0.5722 0.8192
s off
mtllib leafwood.mtl
usemtl Leaves
f 1/1/1 2/2/1 5/3/1 4/4/1
f 1/1/1 3/5/1 6/6/1 2/2/1
