# Blender v3.4.0 OBJ File: 'apple_tree1_sapling_05_8_2_2.blend'
# www.blender.org
o leaves.145
v 0.081854 0.123702 1.324966
v 0.124507 0.138451 1.301977
v 0.150664 0.220943 1.300772
v 0.085075 0.173780 1.331826
v 0.108011 0.206194 1.323761
v 0.147443 0.170865 1.293912
vt 0.500000 0.000000
vt 0.250000 0.333333
vt 0.250000 0.666667
vt 0.500000 1.000000
vt 0.750000 0.666667
vt 0.750000 0.333333
vn 0.5086 -0.1489 0.8480
s off
mtllib leafwood.mtl
usemtl Leaves
f 1/1/1 2/2/1 6/3/1 3/4/1
f 1/1/1 3/4/1 5/5/1 4/6/1
