# Blender v3.4.0 OBJ File: 'apple_tree1_sapling_05_8_2_2.blend'
# www.blender.org
o leaves.086
v 0.092840 -0.011781 1.034009
v 0.099008 -0.068135 1.028981
v 0.106931 -0.127017 1.105977
v 0.096066 -0.032251 1.087016
v 0.100763 -0.070663 1.111005
v 0.103705 -0.106547 1.052971
vt 0.500000 0.000000
vt 0.250000 0.333333
vt 0.250000 0.666667
vt 0.500000 1.000000
vt 0.750000 0.666667
vt 0.750000 0.333333
vn -0.9937 -0.1104 0.0179
s off
mtllib leafwood.mtl
usemtl Leaves
f 1/1/1 2/2/1 6/3/1 3/4/1
f 1/1/1 3/4/1 5/5/1 4/6/1
