# Blender v3.4.0 OBJ File: 'apple_tree1_sapling_05_8_2_2.blend'
# www.blender.org
o leaves.069
v -0.355626 0.100163 0.926212
v -0.378011 0.105460 0.903037
v -0.414688 0.066493 0.887229
v -0.372615 0.072419 0.923398
v -0.392302 0.061196 0.910404
v -0.397699 0.094237 0.890042
vt 0.500000 0.000000
vt 0.250000 0.333333
vt 0.250000 0.666667
vt 0.500000 1.000000
vt 0.750000 0.666667
vt 0.750000 0.333333
vn -0.6427 0.3231 0.6947
s off
mtllib leafwood.mtl
usemtl Leaves
f 1/1/1 2/2/1 6/3/1 3/4/1
f 1/1/1 3/4/1 5/5/1 4/6/1
