# Blender v3.4.0 OBJ File: 'apple_tree1_sapling_05_8_2_2.blend'
# www.blender.org
o leaves.039
v -0.327655 -0.258939 0.905029
v -0.360636 -0.265211 0.905847
v -0.382768 -0.310717 0.932912
v -0.331416 -0.287185 0.922799
v -0.349787 -0.304444 0.932093
v -0.379007 -0.282471 0.915142
vt 0.500000 0.000000
vt 0.250000 0.333333
vt 0.250000 0.666667
vt 0.500000 1.000000
vt 0.750000 0.666667
vt 0.750000 0.333333
vn -0.0816 0.5385 0.8387
s off
mtllib leafwood.mtl
usemtl Leaves
f 1/1/1 2/2/1 6/3/1 3/4/1
f 1/1/1 3/4/1 5/5/1 4/6/1
