# Blender v3.4.0 OBJ File: 'apple_tree1_sapling_05_8_2_2.blend'
# www.blender.org
o leaves.014
v -0.047505 0.045879 0.834679
v -0.083469 0.074379 0.794471
v -0.100918 0.177113 0.797727
v -0.047150 0.104868 0.850252
v -0.064954 0.148613 0.837935
v -0.101274 0.118124 0.782153
vt 0.500000 0.000000
vt 0.250000 0.333333
vt 0.250000 0.666667
vt 0.500000 1.000000
vt 0.750000 0.666667
vt 0.750000 0.333333
vn 0.7879 0.1527 -0.5965
s off
mtllib leafwood.mtl
usemtl Leaves
f 1/1/1 2/2/1 6/3/1 3/4/1
f 1/1/1 3/4/1 5/5/1 4/6/1
