# Blender v3.4.0 OBJ File: 'apple_tree1_sapling_05_8_2_2.blend'
# www.blender.org
o leaves.095
v 0.290066 0.118113 1.012815
v 0.266439 0.150298 1.004037
v 0.196666 0.146964 1.004468
v 0.251425 0.105162 1.016028
v 0.220292 0.114779 1.013246
v 0.235306 0.159915 1.001255
vt 0.500000 0.000000
vt 0.250000 0.333333
vt 0.250000 0.666667
vt 0.500000 1.000000
vt 0.750000 0.666667
vt 0.750000 0.333333
vn -0.0064 0.2587 0.9659
s off
mtllib leafwood.mtl
usemtl Leaves
f 1/1/1 2/2/1 6/3/1 3/4/1
f 1/1/1 3/4/1 5/5/1 4/6/1
