# Blender v3.4.0 OBJ File: 'apple_tree1_sapling_05_8_2_2.blend'
# www.blender.org
o leaves.083
v -0.131128 -0.361639 1.052230
v -0.147895 -0.378964 1.077528
v -0.119293 -0.411634 1.118523
v -0.106472 -0.377644 1.071128
v -0.102527 -0.394309 1.093225
v -0.143950 -0.395629 1.099625
vt 0.500000 0.000000
vt 0.250000 0.333333
vt 0.250000 0.666667
vt 0.500000 1.000000
vt 0.750000 0.666667
vt 0.750000 0.333333
vn 0.0661 0.8023 0.5933
s off
mtllib leafwood.mtl
usemtl Leaves
f 1/1/1 2/2/1 6/3/1 3/4/1
f 1/1/1 3/4/1 5/5/1 4/6/1
