# Blender v3.4.0 OBJ File: 'apple_tree1_sapling_05_8_2_2.blend'
# www.blender.org
o leaves.152
v 0.102087 0.157067 1.337473
v 0.120072 0.143721 1.297108
v 0.178023 0.183431 1.261233
v 0.134725 0.187989 1.327010
v 0.160037 0.196777 1.301597
v 0.145384 0.152509 1.271695
vt 0.500000 0.000000
vt 0.250000 0.333333
vt 0.250000 0.666667
vt 0.500000 1.000000
vt 0.750000 0.666667
vt 0.750000 0.333333
vn 0.6784 -0.5520 0.4848
s off
mtllib leafwood.mtl
usemtl Leaves
f 1/1/1 2/2/1 6/3/1 3/4/1
f 1/1/1 3/4/1 5/5/1 4/6/1
