# Blender v3.4.0 OBJ File: 'apple_tree1_sapling_05_8_2_2.blend'
# www.blender.org
o leaves.188
v 0.034194 0.000842 1.515889
v 0.076526 0.038697 1.500634
v 0.077588 -0.031419 1.492785
v 0.162784 0.009232 1.458350
v 0.120452 -0.028623 1.473605
v 0.119389 0.041494 1.481454
vt 0.500000 0.000000
vt 0.500000 1.000000
vt 0.750000 0.666667
vt 0.750000 0.333333
vt 0.250000 0.333333
vt 0.250000 0.666667
vn 0.4118 -0.0952 0.9063
s off
mtllib leafwood.mtl
usemtl Leaves
f 1/1/1 4/2/1 6/3/1 2/4/1
f 1/1/1 3/5/1 5/6/1 4/2/1
