# Blender v3.4.0 OBJ File: 'apple_tree1_sapling_05_8_2_2.blend'
# www.blender.org
o leaves.093
v 0.185464 0.084205 1.011365
v 0.210301 0.111244 1.044355
v 0.266292 0.170173 1.021847
v 0.214512 0.114478 0.985362
v 0.241455 0.143134 0.988856
v 0.237244 0.139900 1.047849
vt 0.500000 0.000000
vt 0.250000 0.333333
vt 0.250000 0.666667
vt 0.500000 1.000000
vt 0.750000 0.666667
vt 0.750000 0.333333
vn -0.7276 0.6859 -0.0143
s off
mtllib leafwood.mtl
usemtl Leaves
f 1/1/1 2/2/1 6/3/1 3/4/1
f 1/1/1 3/4/1 5/5/1 4/6/1
