# Blender v3.4.0 OBJ File: 'apple_tree1_sapling_05_8_2_2.blend'
# www.blender.org
o leaves.065
v -0.148793 0.055419 0.924643
v -0.176647 0.094191 0.925694
v -0.257579 0.090417 0.916012
v -0.193464 0.039979 0.917838
v -0.229726 0.051645 0.914961
v -0.212908 0.105857 0.922818
vt 0.500000 0.000000
vt 0.250000 0.333333
vt 0.250000 0.666667
vt 0.500000 1.000000
vt 0.750000 0.666667
vt 0.750000 0.333333
vn -0.1131 -0.1081 0.9877
s off
mtllib leafwood.mtl
usemtl Leaves
f 1/1/1 2/2/1 6/3/1 3/4/1
f 1/1/1 3/4/1 5/5/1 4/6/1
