# Blender v3.4.0 OBJ File: 'apple_tree1_sapling_05_8_2_2.blend'
# www.blender.org
o leaves.236
v 0.209095 0.229577 2.016029
v 0.236704 0.228196 2.034218
v 0.232677 0.244466 1.998219
v 0.285882 0.249840 2.016598
v 0.262300 0.234951 2.034407
v 0.258273 0.251221 1.998409
vt 0.500000 0.000000
vt 0.500000 1.000000
vt 0.750000 0.666667
vt 0.750000 0.333333
vt 0.250000 0.333333
vt 0.250000 0.666667
vn 0.2342 -0.8758 -0.4220
s off
mtllib leafwood.mtl
usemtl Leaves
f 1/1/1 4/2/1 5/3/1 2/4/1
f 1/1/1 3/5/1 6/6/1 4/2/1
