# Blender v3.4.0 OBJ File: 'apple_tree1_sapling_05_8_2_2.blend'
# www.blender.org
o leaves.157
v 0.217355 0.166314 1.481099
v 0.233304 0.154186 1.455368
v 0.281754 0.175133 1.437499
v 0.244340 0.184321 1.477764
v 0.265806 0.187261 1.463230
v 0.254770 0.157126 1.440834
vt 0.500000 0.000000
vt 0.250000 0.333333
vt 0.250000 0.666667
vt 0.500000 1.000000
vt 0.750000 0.666667
vt 0.750000 0.333333
vn 0.4935 -0.6279 0.6018
s off
mtllib leafwood.mtl
usemtl Leaves
f 1/1/1 2/2/1 6/3/1 3/4/1
f 1/1/1 3/4/1 5/5/1 4/6/1
