# Blender v3.4.0 OBJ File: 'apple_tree1_sapling_05_8_2_2.blend'
# www.blender.org
o leaves.255
v -0.093881 -0.179858 2.173191
v -0.130263 -0.206280 2.185780
v -0.077357 -0.211249 2.203553
v -0.123669 -0.266578 2.237618
v -0.140193 -0.235187 2.207256
v -0.087287 -0.240156 2.225029
vt 0.500000 0.000000
vt 0.500000 1.000000
vt 0.750000 0.666667
vt 0.750000 0.333333
vt 0.250000 0.333333
vt 0.250000 0.666667
vn 0.1945 -0.6271 -0.7542
s off
mtllib leafwood.mtl
usemtl Leaves
f 1/1/1 4/2/1 5/3/1 2/4/1
f 1/1/1 3/5/1 6/6/1 4/2/1
