# Blender v3.4.0 OBJ File: 'apple_tree1_sapling_05_8_2_2.blend'
# www.blender.org
o leaves.234
v 0.115805 0.137095 1.919887
v 0.120757 0.182653 1.921123
v 0.186979 0.217257 1.944656
v 0.158303 0.144978 1.935163
v 0.182028 0.171699 1.943420
v 0.144482 0.209374 1.929379
vt 0.500000 0.000000
vt 0.250000 0.333333
vt 0.250000 0.666667
vt 0.500000 1.000000
vt 0.750000 0.666667
vt 0.750000 0.333333
vn 0.3401 -0.0115 -0.9403
s off
mtllib leafwood.mtl
usemtl Leaves
f 1/1/1 2/2/1 6/3/1 3/4/1
f 1/1/1 3/4/1 5/5/1 4/6/1
