# Blender v3.4.0 OBJ File: 'apple_tree1_sapling_05_8_2_2.blend'
# www.blender.org
o leaves.186
v -0.084171 -0.252449 1.463636
v -0.113137 -0.260699 1.444228
v -0.123873 -0.317279 1.423448
v -0.081674 -0.287420 1.456252
v -0.094907 -0.309030 1.442856
v -0.126371 -0.282309 1.430832
vt 0.500000 0.000000
vt 0.250000 0.333333
vt 0.250000 0.666667
vt 0.500000 1.000000
vt 0.750000 0.666667
vt 0.750000 0.333333
vn -0.5013 -0.2129 0.8387
s off
mtllib leafwood.mtl
usemtl Leaves
f 1/1/1 2/2/1 6/3/1 3/4/1
f 1/1/1 3/4/1 5/5/1 4/6/1
