# Blender v3.4.0 OBJ File: 'apple_tree1_sapling_05_8_2_2.blend'
# www.blender.org
o leaves.168
v -0.158641 0.150858 1.435846
v -0.082997 0.232156 1.461436
v -0.129211 0.166005 1.469891
v -0.137641 0.189910 1.418861
v -0.112426 0.217009 1.427391
v -0.103997 0.193104 1.478420
vt 0.500000 0.000000
vt 0.500000 1.000000
vt 0.750000 0.666667
vt 0.750000 0.333333
vt 0.250000 0.333333
vt 0.250000 0.666667
vn 0.7331 -0.5613 -0.3840
s off
mtllib leafwood.mtl
usemtl Leaves
f 1/1/1 2/2/1 6/3/1 3/4/1
f 1/1/1 4/5/1 5/6/1 2/2/1
