# Blender v3.4.0 OBJ File: 'apple_tree1_sapling_05_8_2_2.blend'
# www.blender.org
o leaves.271
v -0.058593 0.172448 2.568492
v -0.069439 0.248831 2.557507
v -0.081425 0.194990 2.563509
v -0.042992 0.200827 2.566152
v -0.046607 0.226288 2.562490
v -0.085040 0.220451 2.559847
vt 0.500000 0.000000
vt 0.500000 1.000000
vt 0.750000 0.666667
vt 0.750000 0.333333
vt 0.250000 0.333333
vt 0.250000 0.666667
vn -0.0876 0.1296 0.9877
s off
mtllib leafwood.mtl
usemtl Leaves
f 1/1/1 2/2/1 6/3/1 3/4/1
f 1/1/1 4/5/1 5/6/1 2/2/1
