# Blender v3.4.0 OBJ File: 'apple_tree1_sapling_05_8_2_2.blend'
# www.blender.org
o leaves.249
v 0.099806 0.279144 2.104314
v 0.113820 0.281316 2.073864
v 0.167689 0.299448 2.065860
v 0.131046 0.290509 2.109128
v 0.153674 0.297277 2.096310
v 0.136448 0.288084 2.061046
vt 0.500000 0.000000
vt 0.250000 0.333333
vt 0.250000 0.666667
vt 0.500000 1.000000
vt 0.750000 0.666667
vt 0.750000 0.333333
vn 0.3291 -0.9405 0.0844
s off
mtllib leafwood.mtl
usemtl Leaves
f 1/1/1 2/2/1 6/3/1 3/4/1
f 1/1/1 3/4/1 5/5/1 4/6/1
