# Blender v3.4.0 OBJ File: 'apple_tree1_sapling_05_8_2_2.blend'
# www.blender.org
o leaves.178
v -0.150723 -0.038971 1.579554
v -0.177671 -0.007252 1.580798
v -0.248173 -0.016861 1.580860
v -0.188742 -0.055950 1.579181
v -0.221225 -0.048580 1.579616
v -0.210155 0.000118 1.581233
vt 0.500000 0.000000
vt 0.250000 0.333333
vt 0.250000 0.666667
vt 0.500000 1.000000
vt 0.750000 0.666667
vt 0.750000 0.333333
vn 0.0056 -0.0345 0.9994
s off
mtllib leafwood.mtl
usemtl Leaves
f 1/1/1 2/2/1 6/3/1 3/4/1
f 1/1/1 3/4/1 5/5/1 4/6/1
