# Blender v3.4.0 OBJ File: 'apple_tree1_sapling_05_8_2_2.blend'
# www.blender.org
o leaves.238
v 0.341223 0.047347 1.868677
v 0.376000 0.054652 1.866859
v 0.407249 0.077064 1.913958
v 0.350463 0.059853 1.900682
v 0.372472 0.069759 1.915776
v 0.398009 0.064558 1.881953
vt 0.500000 0.000000
vt 0.250000 0.333333
vt 0.250000 0.666667
vt 0.500000 1.000000
vt 0.750000 0.666667
vt 0.750000 0.333333
vn 0.2111 -0.9296 0.3023
s off
mtllib leafwood.mtl
usemtl Leaves
f 1/1/1 2/2/1 6/3/1 3/4/1
f 1/1/1 3/4/1 5/5/1 4/6/1
