# Blender v3.4.0 OBJ File: 'apple_tree1_sapling_05_8_2_2.blend'
# www.blender.org
o leaves.231
v 0.366117 0.005206 1.854727
v 0.424074 -0.043133 1.820897
v 0.389032 -0.019511 1.861905
v 0.381841 -0.002302 1.824996
v 0.401160 -0.018416 1.813720
v 0.408351 -0.035624 1.850628
vt 0.500000 0.000000
vt 0.500000 1.000000
vt 0.750000 0.666667
vt 0.750000 0.333333
vt 0.250000 0.333333
vt 0.250000 0.666667
vn -0.6919 -0.6966 -0.1900
s off
mtllib leafwood.mtl
usemtl Leaves
f 1/1/1 2/2/1 6/3/1 3/4/1
f 1/1/1 4/5/1 5/6/1 2/2/1
