# Blender v3.4.0 OBJ File: 'apple_tree1_sapling_05_8_2_2.blend'
# www.blender.org
o leaves.232
v 0.441026 -0.002759 1.832104
v 0.456217 -0.000594 1.802209
v 0.466744 0.018490 1.836135
v 0.502389 0.032363 1.793308
v 0.476672 0.011114 1.789277
v 0.487198 0.030198 1.823203
vt 0.500000 0.000000
vt 0.500000 1.000000
vt 0.750000 0.666667
vt 0.750000 0.333333
vt 0.250000 0.333333
vt 0.250000 0.666667
vn -0.5941 0.7657 -0.2464
s off
mtllib leafwood.mtl
usemtl Leaves
f 1/1/1 4/2/1 5/3/1 2/4/1
f 1/1/1 3/5/1 6/6/1 4/2/1
