# Blender v3.4.0 OBJ File: 'apple_tree1_sapling_05_8_2_2.blend'
# www.blender.org
o leaves.048
v 0.249128 0.102046 0.932730
v 0.261771 0.137712 0.935086
v 0.226200 0.185751 0.960077
v 0.221199 0.122182 0.948605
v 0.213556 0.150084 0.957721
v 0.254129 0.165614 0.944202
vt 0.500000 0.000000
vt 0.250000 0.333333
vt 0.250000 0.666667
vt 0.500000 1.000000
vt 0.750000 0.666667
vt 0.750000 0.333333
vn 0.3759 -0.1931 0.9063
s off
mtllib leafwood.mtl
usemtl Leaves
f 1/1/1 2/2/1 6/3/1 3/4/1
f 1/1/1 3/4/1 5/5/1 4/6/1
