# Blender v3.4.0 OBJ File: 'apple_tree1_sapling_05_8_2_2.blend'
# www.blender.org
o leaves.126
v -0.324325 -0.169188 1.266946
v -0.357290 -0.175579 1.275059
v -0.378851 -0.230340 1.279633
v -0.327711 -0.203564 1.267291
v -0.345886 -0.223948 1.271520
v -0.375465 -0.195963 1.279287
vt 0.500000 0.000000
vt 0.250000 0.333333
vt 0.250000 0.666667
vt 0.500000 1.000000
vt 0.750000 0.666667
vt 0.750000 0.333333
vn 0.2415 -0.0140 0.9703
s off
mtllib leafwood.mtl
usemtl Leaves
f 1/1/1 2/2/1 6/3/1 3/4/1
f 1/1/1 3/4/1 5/5/1 4/6/1
