# Blender v3.4.0 OBJ File: 'apple_tree1_sapling_05_8_2_2.blend'
# www.blender.org
o leaves.173
v -0.034944 -0.026753 1.431923
v -0.097927 -0.029867 1.430905
v -0.151787 -0.121484 1.448792
v -0.049857 -0.086792 1.444188
v -0.088804 -0.118369 1.449811
v -0.136874 -0.061444 1.436528
vt 0.500000 0.000000
vt 0.250000 0.333333
vt 0.250000 0.666667
vt 0.500000 1.000000
vt 0.750000 0.666667
vt 0.750000 0.333333
vn -0.0260 0.2063 0.9781
s off
mtllib leafwood.mtl
usemtl Leaves
f 1/1/1 2/2/1 6/3/1 3/4/1
f 1/1/1 3/4/1 5/5/1 4/6/1
