# Blender v3.4.0 OBJ File: 'apple_tree1_sapling_05_8_2_2.blend'
# www.blender.org
o leaves.160
v -0.109053 0.067761 1.388202
v -0.214975 0.147077 1.367898
v -0.164203 0.071367 1.395756
v -0.124517 0.117032 1.367113
v -0.159825 0.143471 1.360344
v -0.199511 0.097806 1.388987
vt 0.500000 0.000000
vt 0.500000 1.000000
vt 0.750000 0.666667
vt 0.750000 0.333333
vt 0.250000 0.333333
vt 0.250000 0.666667
vn 0.1500 0.4285 0.8910
vn 0.1501 0.4285 0.8910
s off
mtllib leafwood.mtl
usemtl Leaves
f 1/1/1 2/2/1 6/3/1 3/4/1
f 1/1/2 4/5/2 5/6/2 2/2/2
