# Blender v3.4.0 OBJ File: 'apple_tree1_sapling_05_8_2_2.blend'
# www.blender.org
o leaves.226
v 0.049711 -0.247826 1.837916
v 0.065790 -0.269382 1.826495
v 0.067190 -0.315222 1.846224
v 0.045285 -0.271201 1.854876
v 0.051112 -0.293666 1.857645
v 0.071616 -0.291847 1.829264
vt 0.500000 0.000000
vt 0.250000 0.333333
vt 0.250000 0.666667
vt 0.500000 1.000000
vt 0.750000 0.666667
vt 0.750000 0.333333
vn -0.7719 -0.2711 -0.5751
s off
mtllib leafwood.mtl
usemtl Leaves
f 1/1/1 2/2/1 6/3/1 3/4/1
f 1/1/1 3/4/1 5/5/1 4/6/1
