# Blender v3.4.0 OBJ File: 'apple_tree1_sapling_05_8_2_2.blend'
# www.blender.org
o leaves.021
v -0.391379 0.032277 0.894941
v -0.415999 0.043890 0.902846
v -0.458489 0.021338 0.897157
v -0.411498 0.013372 0.888513
v -0.433868 0.009725 0.889252
v -0.438369 0.040244 0.903585
vt 0.500000 0.000000
vt 0.250000 0.333333
vt 0.250000 0.666667
vt 0.500000 1.000000
vt 0.750000 0.666667
vt 0.750000 0.333333
vn 0.0970 -0.4113 0.9063
s off
mtllib leafwood.mtl
usemtl Leaves
f 1/1/1 2/2/1 6/3/1 3/4/1
f 1/1/1 3/4/1 5/5/1 4/6/1
