# Blender v3.4.0 OBJ File: 'apple_tree1_sapling_05_8_2_2.blend'
# www.blender.org
o leaves.175
v -0.098045 -0.059444 1.473017
v -0.109749 -0.079588 1.515268
v -0.152864 -0.039620 1.573069
v -0.122888 -0.026085 1.497468
v -0.141161 -0.019477 1.530818
v -0.128022 -0.072980 1.548618
vt 0.500000 0.000000
vt 0.500000 1.000000
vt 0.750000 0.666667
vt 0.750000 0.333333
vt 0.250000 0.333333
vt 0.250000 0.666667
vn 0.8511 0.3416 0.3986
s off
mtllib leafwood.mtl
usemtl Leaves
f 1/1/1 3/2/1 6/3/1 2/4/1
f 1/1/1 4/5/1 5/6/1 3/2/1
