# Blender v3.4.0 OBJ File: 'apple_tree1_sapling_05_8_2_2.blend'
# www.blender.org
o leaves.046
v 0.157603 0.117227 0.906085
v 0.169297 0.156640 0.937261
v 0.206439 0.231003 0.907875
v 0.178466 0.153666 0.876103
v 0.194745 0.191591 0.876699
v 0.185575 0.194565 0.937857
vt 0.500000 0.000000
vt 0.250000 0.333333
vt 0.250000 0.666667
vt 0.500000 1.000000
vt 0.750000 0.666667
vt 0.750000 0.333333
vn -0.9069 0.3917 -0.1550
s off
mtllib leafwood.mtl
usemtl Leaves
f 1/1/1 2/2/1 6/3/1 3/4/1
f 1/1/1 3/4/1 5/5/1 4/6/1
