# Blender v3.4.0 OBJ File: 'apple_tree1_sapling_05_8_2_2.blend'
# www.blender.org
o leaves.009
v 0.163624 0.158733 0.853154
v 0.123984 0.140360 0.853154
v 0.113972 0.066375 0.853154
v 0.170163 0.115534 0.853154
v 0.153612 0.084748 0.853154
v 0.107433 0.109574 0.853154
vt 0.500000 0.000000
vt 0.250000 0.333333
vt 0.250000 0.666667
vt 0.500000 1.000000
vt 0.750000 0.666667
vt 0.750000 0.333333
vn 0.0000 0.0000 1.0000
s off
mtllib leafwood.mtl
usemtl Leaves
f 1/1/1 2/2/1 6/3/1 3/4/1
f 1/1/1 3/4/1 5/5/1 4/6/1
