# Blender v3.4.0 OBJ File: 'apple_tree1_sapling_05_8_2_2.blend'
# www.blender.org
o leaves.150
v 0.133678 0.309173 1.364864
v 0.122328 0.397517 1.376837
v 0.109525 0.337276 1.359472
v 0.150265 0.339966 1.378238
v 0.146482 0.369414 1.382229
v 0.105741 0.366724 1.363463
vt 0.500000 0.000000
vt 0.500000 1.000000
vt 0.750000 0.666667
vt 0.750000 0.333333
vt 0.250000 0.333333
vt 0.250000 0.666667
vn -0.4026 -0.1735 0.8988
s off
mtllib leafwood.mtl
usemtl Leaves
f 1/1/1 2/2/1 6/3/1 3/4/1
f 1/1/1 4/5/1 5/6/1 2/2/1
