# Blender v3.4.0 OBJ File: 'apple_tree1_sapling_05_8_2_2.blend'
# www.blender.org
o leaves.100
v 0.087611 0.113321 1.092782
v 0.127733 0.210138 1.013185
v 0.130056 0.130609 1.062677
v 0.071914 0.160578 1.069822
v 0.085288 0.192850 1.043290
v 0.143430 0.162881 1.036145
vt 0.500000 0.000000
vt 0.500000 1.000000
vt 0.750000 0.666667
vt 0.750000 0.333333
vt 0.250000 0.333333
vt 0.250000 0.666667
vn -0.3554 -0.5013 -0.7889
s off
mtllib leafwood.mtl
usemtl Leaves
f 1/1/1 2/2/1 6/3/1 3/4/1
f 1/1/1 4/5/1 5/6/1 2/2/1
