# Blender v3.4.0 OBJ File: 'apple_tree1_sapling_05_8_2_2.blend'
# www.blender.org
o leaves.062
v -0.175038 0.248310 1.080270
v -0.185069 0.280683 1.081437
v -0.240944 0.296023 1.082219
v -0.208945 0.247746 1.080403
v -0.230913 0.263650 1.081053
v -0.207038 0.296587 1.082086
vt 0.500000 0.000000
vt 0.250000 0.333333
vt 0.250000 0.666667
vt 0.500000 1.000000
vt 0.750000 0.666667
vt 0.750000 0.333333
vn 0.0045 -0.0346 0.9994
s off
mtllib leafwood.mtl
usemtl Leaves
f 1/1/1 2/2/1 6/3/1 3/4/1
f 1/1/1 3/4/1 5/5/1 4/6/1
