# Blender v3.4.0 OBJ File: 'apple_tree1_sapling_05_8_2_2.blend'
# www.blender.org
o leaves.081
v -0.132181 -0.308040 1.040029
v -0.157677 -0.329035 1.030088
v -0.193099 -0.356331 1.068482
v -0.147296 -0.319239 1.068939
v -0.167602 -0.335336 1.078424
v -0.177983 -0.345132 1.039572
vt 0.500000 0.000000
vt 0.250000 0.333333
vt 0.250000 0.666667
vt 0.500000 1.000000
vt 0.750000 0.666667
vt 0.750000 0.333333
vn -0.6289 0.7770 -0.0279
s off
mtllib leafwood.mtl
usemtl Leaves
f 1/1/1 2/2/1 6/3/1 3/4/1
f 1/1/1 3/4/1 5/5/1 4/6/1
