# Blender v3.4.0 OBJ File: 'apple_tree1_sapling_05_8_2_2.blend'
# www.blender.org
o leaves.156
v 0.204446 0.164650 1.457894
v 0.191074 0.242432 1.455786
v 0.180560 0.187213 1.456303
v 0.219418 0.193941 1.458080
v 0.214961 0.219869 1.457377
v 0.176103 0.213141 1.455600
vt 0.500000 0.000000
vt 0.500000 1.000000
vt 0.750000 0.666667
vt 0.750000 0.333333
vt 0.250000 0.333333
vt 0.250000 0.666667
vn -0.0489 0.0187 0.9986
s off
mtllib leafwood.mtl
usemtl Leaves
f 1/1/1 2/2/1 6/3/1 3/4/1
f 1/1/1 4/5/1 5/6/1 2/2/1
