# Blender v3.4.0 OBJ File: 'apple_tree1_sapling_05_8_2_2.blend'
# www.blender.org
o leaves.270
v 0.149503 0.218487 2.423040
v 0.142055 0.192234 2.436126
v 0.165338 0.217063 2.448793
v 0.162082 0.176970 2.481300
v 0.146248 0.178395 2.455546
v 0.169530 0.203224 2.468213
vt 0.500000 0.000000
vt 0.250000 0.333333
vt 0.250000 0.666667
vt 0.500000 1.000000
vt 0.750000 0.666667
vt 0.750000 0.333333
vn -0.7477 0.4538 0.4848
s off
mtllib leafwood.mtl
usemtl Leaves
f 1/1/1 2/2/1 5/3/1 4/4/1
f 1/1/1 4/4/1 6/5/1 3/6/1
