# Blender v3.4.0 OBJ File: 'apple_tree1_sapling_05_8_2_2.blend'
# www.blender.org
o leaves.036
v -0.249187 -0.173094 0.941091
v -0.284670 -0.175331 0.933651
v -0.309573 -0.223734 0.903821
v -0.253961 -0.204616 0.923685
v -0.274089 -0.221496 0.911262
v -0.304799 -0.192211 0.921227
vt 0.500000 0.000000
vt 0.250000 0.333333
vt 0.250000 0.666667
vt 0.500000 1.000000
vt 0.750000 0.666667
vt 0.750000 0.333333
vn -0.1544 -0.4596 0.8746
s off
mtllib leafwood.mtl
usemtl Leaves
f 1/1/1 2/2/1 6/3/1 3/4/1
f 1/1/1 3/4/1 5/5/1 4/6/1
