# Blender v3.4.0 OBJ File: 'apple_tree1_sapling_05_8_2_2.blend'
# www.blender.org
o leaves.033
v -0.152273 -0.134274 0.876999
v -0.191547 -0.158914 0.877422
v -0.192198 -0.238097 0.880060
v -0.139616 -0.178849 0.878617
v -0.152924 -0.213457 0.879637
v -0.204855 -0.193522 0.878442
vt 0.500000 0.000000
vt 0.250000 0.333333
vt 0.250000 0.666667
vt 0.500000 1.000000
vt 0.750000 0.666667
vt 0.750000 0.333333
vn -0.0102 0.0334 0.9994
s off
mtllib leafwood.mtl
usemtl Leaves
f 1/1/1 2/2/1 6/3/1 3/4/1
f 1/1/1 3/4/1 5/5/1 4/6/1
