# Blender v3.4.0 OBJ File: 'apple_tree1_sapling_05_8_2_2.blend'
# www.blender.org
o leaves.053
v 0.209016 0.176830 0.958693
v 0.219854 0.216698 0.959320
v 0.285636 0.237989 0.973623
v 0.249259 0.177735 0.968020
v 0.274799 0.198121 0.972997
v 0.245394 0.237084 0.964296
vt 0.500000 0.000000
vt 0.250000 0.333333
vt 0.250000 0.666667
vt 0.500000 1.000000
vt 0.750000 0.666667
vt 0.750000 0.333333
vn 0.2265 -0.0463 -0.9729
s off
mtllib leafwood.mtl
usemtl Leaves
f 1/1/1 2/2/1 6/3/1 3/4/1
f 1/1/1 3/4/1 5/5/1 4/6/1
