# Blender v3.4.0 OBJ File: 'apple_tree1_sapling_05_8_2_2.blend'
# www.blender.org
o leaves.097
v 0.354702 0.193805 0.964109
v 0.348711 0.166231 0.982635
v 0.386907 0.123304 0.987678
v 0.382163 0.174378 0.961295
v 0.392897 0.150878 0.969151
v 0.359446 0.142731 0.990491
vt 0.500000 0.000000
vt 0.250000 0.333333
vt 0.250000 0.666667
vt 0.500000 1.000000
vt 0.750000 0.666667
vt 0.750000 0.333333
vn 0.4000 0.4497 0.7986
s off
mtllib leafwood.mtl
usemtl Leaves
f 1/1/1 2/2/1 6/3/1 3/4/1
f 1/1/1 3/4/1 5/5/1 4/6/1
