# Blender v3.4.0 OBJ File: 'apple_tree1_sapling_05_8_2_2.blend'
# www.blender.org
o leaves.262
v 0.171203 -0.220749 2.464948
v 0.193518 -0.203489 2.477347
v 0.183786 -0.157946 2.501926
v 0.157276 -0.196141 2.477201
v 0.161471 -0.175207 2.489527
v 0.197713 -0.182554 2.489673
vt 0.500000 0.000000
vt 0.250000 0.333333
vt 0.250000 0.666667
vt 0.500000 1.000000
vt 0.750000 0.666667
vt 0.750000 0.333333
vn -0.1027 -0.4893 0.8660
s off
mtllib leafwood.mtl
usemtl Leaves
f 1/1/1 2/2/1 6/3/1 3/4/1
f 1/1/1 3/4/1 5/5/1 4/6/1
