# Blender v3.4.0 OBJ File: 'apple_tree1_sapling_05_8_2_2.blend'
# www.blender.org
o leaves.158
v -0.041421 0.024875 1.360130
v -0.065890 0.145062 1.435682
v -0.046516 0.046289 1.415971
v -0.052639 0.083586 1.354657
v -0.060795 0.123648 1.379840
v -0.054672 0.086352 1.441155
vt 0.500000 0.000000
vt 0.500000 1.000000
vt 0.750000 0.666667
vt 0.750000 0.333333
vt 0.250000 0.333333
vt 0.250000 0.666667
vn 0.9818 0.1892 0.0170
s off
mtllib leafwood.mtl
usemtl Leaves
f 1/1/1 2/2/1 6/3/1 3/4/1
f 1/1/1 4/5/1 5/6/1 2/2/1
