# Blender v3.4.0 OBJ File: 'apple_tree1_sapling_05_8_2_2.blend'
# www.blender.org
o leaves.090
v 0.196332 -0.143538 1.145774
v 0.225885 -0.137297 1.136550
v 0.262289 -0.176086 1.127457
v 0.210750 -0.171478 1.142787
v 0.232736 -0.182327 1.136681
v 0.247871 -0.148146 1.130445
vt 0.500000 0.000000
vt 0.500000 1.000000
vt 0.750000 0.666667
vt 0.750000 0.333333
vt 0.250000 0.333333
vt 0.250000 0.666667
vn 0.2886 0.0467 0.9563
s off
mtllib leafwood.mtl
usemtl Leaves
f 1/1/1 3/2/1 6/3/1 2/4/1
f 1/1/1 4/5/1 5/6/1 3/2/1
