# Blender v3.4.0 OBJ File: 'apple_tree1_sapling_05_8_2_2.blend'
# www.blender.org
o leaves.230
v 0.283893 0.020296 1.856367
v 0.309683 -0.009727 1.860983
v 0.376622 -0.002433 1.850880
v 0.319923 0.035165 1.848092
v 0.350833 0.027589 1.846263
v 0.340592 -0.017303 1.859155
vt 0.500000 0.000000
vt 0.250000 0.333333
vt 0.250000 0.666667
vt 0.500000 1.000000
vt 0.750000 0.666667
vt 0.750000 0.333333
vn 0.1179 0.2491 0.9613
s off
mtllib leafwood.mtl
usemtl Leaves
f 1/1/1 2/2/1 6/3/1 3/4/1
f 1/1/1 3/4/1 5/5/1 4/6/1
