# Blender v3.4.0 OBJ File: 'apple_tree1_sapling_05_8_2_2.blend'
# www.blender.org
o leaves.049
v 0.300267 0.087337 0.937671
v 0.324776 0.069101 0.954796
v 0.374766 0.094287 0.975966
v 0.325424 0.110207 0.946076
v 0.350256 0.112524 0.958841
v 0.349609 0.071417 0.967561
vt 0.500000 0.000000
vt 0.250000 0.333333
vt 0.250000 0.666667
vt 0.500000 1.000000
vt 0.750000 0.666667
vt 0.750000 0.333333
vn -0.4628 0.1909 0.8657
s off
mtllib leafwood.mtl
usemtl Leaves
f 1/1/1 2/2/1 6/3/1 3/4/1
f 1/1/1 3/4/1 5/5/1 4/6/1
