# Blender v3.4.0 OBJ File: 'apple_tree1_sapling_05_8_2_2.blend'
# www.blender.org
o leaves.016
v -0.159623 0.059015 0.847690
v -0.199977 0.085969 0.846315
v -0.252318 0.091326 0.910455
v -0.181066 0.053601 0.890908
v -0.211964 0.064371 0.911830
v -0.230875 0.096740 0.867237
vt 0.500000 0.000000
vt 0.250000 0.333333
vt 0.250000 0.666667
vt 0.500000 1.000000
vt 0.750000 0.666667
vt 0.750000 0.333333
vn 0.5116 0.7838 0.3520
s off
mtllib leafwood.mtl
usemtl Leaves
f 1/1/1 2/2/1 6/3/1 3/4/1
f 1/1/1 3/4/1 5/5/1 4/6/1
