# Blender v3.4.0 OBJ File: 'apple_tree1_sapling_05_8_2_2.blend'
# www.blender.org
o leaves.220
v 0.006900 -0.143513 1.744059
v 0.032134 -0.181740 1.725029
v -0.019807 -0.184111 1.753997
v 0.004691 -0.261750 1.730421
v 0.031398 -0.221152 1.720483
v -0.020544 -0.223523 1.749451
vt 0.500000 0.000000
vt 0.500000 1.000000
vt 0.750000 0.666667
vt 0.750000 0.333333
vt 0.250000 0.333333
vt 0.250000 0.666667
vn 0.4880 -0.1090 0.8660
s off
mtllib leafwood.mtl
usemtl Leaves
f 1/1/1 4/2/1 5/3/1 2/4/1
f 1/1/1 3/5/1 6/6/1 4/2/1
