# Blender v3.4.0 OBJ File: 'apple_tree1_sapling_05_8_2_2.blend'
# www.blender.org
o leaves.174
v -0.063960 -0.051376 1.450783
v -0.102565 -0.057215 1.419214
v -0.125705 -0.133794 1.388205
v -0.066518 -0.100483 1.440633
v -0.087100 -0.127956 1.419774
v -0.123147 -0.084687 1.398355
vt 0.500000 0.000000
vt 0.250000 0.333333
vt 0.250000 0.666667
vt 0.500000 1.000000
vt 0.750000 0.666667
vt 0.750000 0.333333
vn -0.6161 -0.1285 0.7771
s off
mtllib leafwood.mtl
usemtl Leaves
f 1/1/1 2/2/1 6/3/1 3/4/1
f 1/1/1 3/4/1 5/5/1 4/6/1
