# Blender v3.4.0 OBJ File: 'apple_tree1_sapling_05_8_2_2.blend'
# www.blender.org
o leaves.142
v 0.009758 0.033824 1.284983
v 0.056430 0.069844 1.304136
v 0.044720 0.173561 1.322190
v -0.013606 0.090962 1.290635
v -0.001952 0.137541 1.303037
v 0.068084 0.116423 1.316538
vt 0.500000 0.000000
vt 0.250000 0.333333
vt 0.250000 0.666667
vt 0.500000 1.000000
vt 0.750000 0.666667
vt 0.750000 0.333333
vn -0.2415 -0.1928 0.9511
s off
mtllib leafwood.mtl
usemtl Leaves
f 1/1/1 2/2/1 6/3/1 3/4/1
f 1/1/1 3/4/1 5/5/1 4/6/1
