# Blender v3.4.0 OBJ File: 'apple_tree1_sapling_05_8_2_2.blend'
# www.blender.org
o leaves.267
v -0.024258 0.188351 2.388631
v -0.058080 0.214455 2.397486
v -0.009104 0.219344 2.415345
v -0.052261 0.273996 2.441983
v -0.018439 0.247892 2.433129
v -0.067415 0.243003 2.415270
vt 0.500000 0.000000
vt 0.250000 0.333333
vt 0.250000 0.666667
vt 0.500000 1.000000
vt 0.750000 0.666667
vt 0.750000 0.333333
vn 0.2314 0.5678 -0.7900
s off
mtllib leafwood.mtl
usemtl Leaves
f 1/1/1 2/2/1 6/3/1 4/4/1
f 1/1/1 4/4/1 5/5/1 3/6/1
