# Blender v3.4.0 OBJ File: 'apple_tree1_sapling_05_8_2_2.blend'
# www.blender.org
o leaves.060
v -0.148213 0.184679 1.004400
v -0.110302 0.209932 1.014180
v -0.078112 0.212505 1.086950
v -0.139390 0.177976 1.049654
v -0.116023 0.187252 1.077170
v -0.086935 0.219208 1.041697
vt 0.500000 0.000000
vt 0.250000 0.333333
vt 0.250000 0.666667
vt 0.500000 1.000000
vt 0.750000 0.666667
vt 0.750000 0.333333
vn 0.5799 -0.7819 -0.2289
s off
mtllib leafwood.mtl
usemtl Leaves
f 1/1/1 2/2/1 6/3/1 3/4/1
f 1/1/1 3/4/1 5/5/1 4/6/1
