# Blender v3.4.0 OBJ File: 'apple_tree1_sapling_05_8_2_2.blend'
# www.blender.org
o leaves
v 0.011625 0.018290 0.819861
v 0.053985 0.010580 0.855600
v 0.074352 0.028237 0.891339
v 0.072727 0.071262 0.927078
v 0.030367 0.078972 0.891339
v 0.010000 0.061315 0.855600
vt 0.500000 0.000000
vt 0.250000 0.333333
vt 0.250000 0.666667
vt 0.500000 1.000000
vt 0.750000 0.666667
vt 0.750000 0.333333
vn -0.6032 -0.5230 0.6022
s off
mtllib leafwood.mtl
usemtl Leaves
f 1/1/1 2/2/1 3/3/1 4/4/1
f 1/1/1 4/4/1 5/5/1 6/6/1
