# Blender v3.4.0 OBJ File: 'apple_tree1_sapling_05_8_2_2.blend'
# www.blender.org
o leaves.034
v -0.185814 -0.156669 0.894296
v -0.221480 -0.134715 0.914628
v -0.244916 -0.150779 0.988936
v -0.189549 -0.174696 0.937057
v -0.209250 -0.172733 0.968604
v -0.241181 -0.132752 0.946175
vt 0.500000 0.000000
vt 0.250000 0.333333
vt 0.250000 0.666667
vt 0.500000 1.000000
vt 0.750000 0.666667
vt 0.750000 0.333333
vn 0.6273 0.6965 0.3484
s off
mtllib leafwood.mtl
usemtl Leaves
f 1/1/1 2/2/1 6/3/1 3/4/1
f 1/1/1 3/4/1 5/5/1 4/6/1
