# Blender v3.4.0 OBJ File: 'apple_tree1_sapling_05_8_2_2.blend'
# www.blender.org
o leaves.084
v -0.130280 -0.391885 1.059007
v -0.127752 -0.413366 1.039862
v -0.162646 -0.447734 1.033719
v -0.154386 -0.407636 1.061294
v -0.165175 -0.426252 1.052864
v -0.138540 -0.431983 1.031432
vt 0.500000 0.000000
vt 0.250000 0.333333
vt 0.250000 0.666667
vt 0.500000 1.000000
vt 0.750000 0.666667
vt 0.750000 0.333333
vn -0.4378 0.5689 -0.6962
s off
mtllib leafwood.mtl
usemtl Leaves
f 1/1/1 2/2/1 6/3/1 3/4/1
f 1/1/1 3/4/1 5/5/1 4/6/1
