# Blender v3.4.0 OBJ File: 'apple_tree1_sapling_05_8_2_2.blend'
# www.blender.org
o leaves.094
v 0.237973 0.095103 1.018103
v 0.255978 0.104811 1.056568
v 0.303199 0.059011 1.091420
v 0.263451 0.061333 1.028516
v 0.285194 0.049302 1.052955
v 0.277721 0.092781 1.081007
vt 0.500000 0.000000
vt 0.500000 1.000000
vt 0.750000 0.666667
vt 0.750000 0.333333
vt 0.250000 0.333333
vt 0.250000 0.666667
vn -0.7684 -0.4350 0.4695
s off
mtllib leafwood.mtl
usemtl Leaves
f 1/1/1 3/2/1 6/3/1 2/4/1
f 1/1/1 4/5/1 5/6/1 3/2/1
