# Blender v3.4.0 OBJ File: 'apple_tree1_sapling_05_8_2_2.blend'
# www.blender.org
o leaves.257
v -0.126517 -0.211873 2.277684
v -0.143319 -0.239504 2.284341
v -0.191359 -0.239461 2.313925
v -0.152944 -0.202634 2.295187
v -0.174558 -0.211830 2.307268
v -0.164932 -0.248700 2.296422
vt 0.500000 0.000000
vt 0.250000 0.333333
vt 0.250000 0.666667
vt 0.500000 1.000000
vt 0.750000 0.666667
vt 0.750000 0.333333
vn -0.5209 0.1129 -0.8461
s off
mtllib leafwood.mtl
usemtl Leaves
f 1/1/1 2/2/1 6/3/1 3/4/1
f 1/1/1 3/4/1 5/5/1 4/6/1
