# Blender v3.4.0 OBJ File: 'apple_tree1_sapling_05_8_2_2.blend'
# www.blender.org
o leaves.118
v -0.192673 -0.091942 1.180894
v -0.210425 -0.131866 1.166441
v -0.284276 -0.138334 1.140199
v -0.235989 -0.082946 1.168217
v -0.266524 -0.098410 1.154652
v -0.240959 -0.147330 1.152876
vt 0.500000 0.000000
vt 0.250000 0.333333
vt 0.250000 0.666667
vt 0.500000 1.000000
vt 0.750000 0.666667
vt 0.750000 0.333333
vn 0.3129 0.1972 -0.9291
s off
mtllib leafwood.mtl
usemtl Leaves
f 1/1/1 2/2/1 6/3/1 3/4/1
f 1/1/1 3/4/1 5/5/1 4/6/1
