# Blender v3.4.0 OBJ File: 'apple_tree1_sapling_05_8_2_2.blend'
# www.blender.org
o leaves.227
v 0.047899 0.031398 1.828453
v 0.044459 0.067203 1.869187
v 0.080820 0.072591 1.815324
v 0.092121 0.146895 1.869859
v 0.095561 0.111090 1.829126
v 0.059199 0.105702 1.882989
vt 0.500000 0.000000
vt 0.250000 0.333333
vt 0.250000 0.666667
vt 0.500000 1.000000
vt 0.750000 0.666667
vt 0.750000 0.333333
vn -0.7577 0.4571 -0.4658
s off
mtllib leafwood.mtl
usemtl Leaves
f 1/1/1 2/2/1 6/3/1 4/4/1
f 1/1/1 4/4/1 5/5/1 3/6/1
