# Blender v3.4.0 OBJ File: 'apple_tree1_sapling_05_8_2_2.blend'
# www.blender.org
o leaves.245
v 0.182567 0.272387 2.201537
v 0.180379 0.284603 2.232490
v 0.207560 0.331967 2.248771
v 0.201416 0.299891 2.202075
v 0.209747 0.319751 2.217819
v 0.188710 0.304463 2.248234
vt 0.500000 0.000000
vt 0.250000 0.333333
vt 0.250000 0.666667
vt 0.500000 1.000000
vt 0.750000 0.666667
vt 0.750000 0.333333
vn -0.7913 0.5476 -0.2721
s off
mtllib leafwood.mtl
usemtl Leaves
f 1/1/1 2/2/1 6/3/1 3/4/1
f 1/1/1 3/4/1 5/5/1 4/6/1
