# Blender v3.4.0 OBJ File: 'apple_tree1_sapling_05_8_2_2.blend'
# www.blender.org
o leaves.239
v 0.377276 0.119254 1.884840
v 0.362974 0.116979 1.915420
v 0.335387 0.161306 1.940259
v 0.363651 0.149564 1.891206
v 0.349689 0.163581 1.909679
v 0.349011 0.130996 1.933893
vt 0.500000 0.000000
vt 0.500000 1.000000
vt 0.750000 0.666667
vt 0.750000 0.333333
vt 0.250000 0.333333
vt 0.250000 0.666667
vn 0.8565 0.2962 0.4226
s off
mtllib leafwood.mtl
usemtl Leaves
f 1/1/1 3/2/1 6/3/1 2/4/1
f 1/1/1 4/5/1 5/6/1 3/2/1
