# Blender v3.4.0 OBJ File: 'apple_tree1_sapling_05_8_2_2.blend'
# www.blender.org
o leaves.219
v 0.005366 -0.119894 1.730356
v 0.046490 -0.218167 1.708321
v -0.004514 -0.159969 1.711622
v 0.042662 -0.145334 1.734399
v 0.056370 -0.178092 1.727055
v 0.009194 -0.192727 1.704278
vt 0.500000 0.000000
vt 0.500000 1.000000
vt 0.750000 0.666667
vt 0.750000 0.333333
vt 0.250000 0.333333
vt 0.250000 0.666667
vn 0.3238 0.3340 -0.8852
s off
mtllib leafwood.mtl
usemtl Leaves
f 1/1/1 2/2/1 6/3/1 3/4/1
f 1/1/1 4/5/1 5/6/1 2/2/1
