# Blender v3.4.0 OBJ File: 'apple_tree1_sapling_05_8_2_2.blend'
# www.blender.org
o leaves.058
v -0.130066 0.101275 0.944398
v -0.102352 0.056896 0.942619
v -0.012904 0.055981 0.941581
v -0.079672 0.115457 0.944299
v -0.040618 0.100359 0.943360
v -0.063298 0.041798 0.941680
vt 0.500000 0.000000
vt 0.250000 0.333333
vt 0.250000 0.666667
vt 0.500000 1.000000
vt 0.750000 0.666667
vt 0.750000 0.333333
vn 0.0113 -0.0330 0.9994
s off
mtllib leafwood.mtl
usemtl Leaves
f 1/1/1 2/2/1 6/3/1 3/4/1
f 1/1/1 3/4/1 5/5/1 4/6/1
