# Blender v3.4.0 OBJ File: 'apple_tree1_sapling_05_8_2_2.blend'
# www.blender.org
o leaves.184
v -0.074312 -0.173059 1.464815
v -0.128093 -0.222493 1.532087
v -0.103176 -0.168326 1.494082
v -0.081302 -0.210748 1.480396
v -0.099229 -0.227226 1.502820
v -0.121103 -0.184804 1.516506
vt 0.500000 0.000000
vt 0.500000 1.000000
vt 0.750000 0.666667
vt 0.750000 0.333333
vt 0.250000 0.333333
vt 0.250000 0.666667
vn 0.7160 0.1492 0.6820
s off
mtllib leafwood.mtl
usemtl Leaves
f 1/1/1 2/2/1 5/3/1 4/4/1
f 1/1/1 3/5/1 6/6/1 2/2/1
