# Blender v3.4.0 OBJ File: 'apple_tree1_sapling_05_8_2_2.blend'
# www.blender.org
o leaves.264
v 0.013514 -0.259546 2.284754
v -0.009155 -0.207234 2.360234
v -0.014439 -0.236053 2.299592
v 0.026354 -0.248164 2.320236
v 0.018797 -0.230727 2.345396
v -0.021996 -0.218616 2.324752
vt 0.500000 0.000000
vt 0.500000 1.000000
vt 0.750000 0.666667
vt 0.750000 0.333333
vt 0.250000 0.333333
vt 0.250000 0.666667
vn 0.4457 0.7928 -0.4156
s off
mtllib leafwood.mtl
usemtl Leaves
f 1/1/1 2/2/1 5/3/1 4/4/1
f 1/1/1 3/5/1 6/6/1 2/2/1
