# Blender v3.4.0 OBJ File: 'apple_tree1_sapling_05_8_2_2.blend'
# www.blender.org
o leaves.091
v 0.089964 0.022680 1.018510
v 0.139411 0.021033 1.019971
v 0.187806 0.087273 0.999391
v 0.105745 0.067389 1.004303
v 0.138359 0.088920 0.997930
v 0.172024 0.042564 1.013598
vt 0.500000 0.000000
vt 0.250000 0.333333
vt 0.250000 0.666667
vt 0.500000 1.000000
vt 0.750000 0.666667
vt 0.750000 0.333333
vn -0.0178 0.3085 0.9511
s off
mtllib leafwood.mtl
usemtl Leaves
f 1/1/1 2/2/1 6/3/1 3/4/1
f 1/1/1 3/4/1 5/5/1 4/6/1
