# Blender v3.4.0 OBJ File: 'apple_tree1_sapling_05_8_2_2.blend'
# www.blender.org
o leaves.240
v 0.000656 0.067751 1.929836
v 0.014983 0.074703 1.980536
v -0.032317 0.126710 2.038017
v -0.035653 0.100106 1.951257
v -0.046644 0.119759 1.987317
v 0.003992 0.094356 2.016596
vt 0.500000 0.000000
vt 0.250000 0.333333
vt 0.250000 0.666667
vt 0.500000 1.000000
vt 0.750000 0.666667
vt 0.750000 0.333333
vn -0.5501 -0.7922 0.2641
s off
mtllib leafwood.mtl
usemtl Leaves
f 1/1/1 2/2/1 6/3/1 3/4/1
f 1/1/1 3/4/1 5/5/1 4/6/1
