# Blender v3.4.0 OBJ File: 'apple_tree1_sapling_05_8_2_2.blend'
# www.blender.org
o leaves.054
v 0.242943 0.193589 0.994279
v 0.243258 0.187024 1.035439
v 0.265610 0.236133 1.081933
v 0.257738 0.228516 1.011556
v 0.265294 0.242698 1.040774
v 0.250814 0.201205 1.064657
vt 0.500000 0.000000
vt 0.250000 0.333333
vt 0.250000 0.666667
vt 0.500000 1.000000
vt 0.750000 0.666667
vt 0.750000 0.333333
vn -0.9300 0.3619 0.0649
s off
mtllib leafwood.mtl
usemtl Leaves
f 1/1/1 2/2/1 6/3/1 3/4/1
f 1/1/1 3/4/1 5/5/1 4/6/1
