# Blender v3.4.0 OBJ File: 'apple_tree1_sapling_05_8_2_2.blend'
# www.blender.org
o leaves.246
v -0.002968 0.209975 2.032709
v 0.024033 0.246800 2.033655
v 0.044620 0.282113 2.100141
v 0.001756 0.221242 2.076717
v 0.017619 0.245288 2.099195
v 0.039896 0.270846 2.056132
vt 0.500000 0.000000
vt 0.250000 0.333333
vt 0.250000 0.666667
vt 0.500000 1.000000
vt 0.750000 0.666667
vt 0.750000 0.333333
vn 0.8039 -0.5911 0.0650
s off
mtllib leafwood.mtl
usemtl Leaves
f 1/1/1 2/2/1 6/3/1 3/4/1
f 1/1/1 3/4/1 5/5/1 4/6/1
