# Blender v3.4.0 OBJ File: 'apple_tree1_sapling_05_8_2_2.blend'
# www.blender.org
o leaves.135
v 0.252685 -0.263220 1.368953
v 0.259996 -0.292393 1.384928
v 0.312270 -0.303169 1.408112
v 0.285097 -0.260680 1.379085
v 0.304959 -0.273996 1.392138
v 0.279858 -0.305709 1.397980
vt 0.500000 0.000000
vt 0.250000 0.333333
vt 0.250000 0.666667
vt 0.500000 1.000000
vt 0.750000 0.666667
vt 0.750000 0.333333
vn -0.3019 0.3985 0.8660
s off
mtllib leafwood.mtl
usemtl Leaves
f 1/1/1 2/2/1 6/3/1 3/4/1
f 1/1/1 3/4/1 5/5/1 4/6/1
