# Blender v3.4.0 OBJ File: 'apple_tree1_sapling_05_8_2_2.blend'
# www.blender.org
o leaves.169
v -0.158606 0.184367 1.460701
v -0.116899 0.191161 1.466162
v -0.087955 0.257947 1.467857
v -0.153212 0.226626 1.460011
v -0.129662 0.251153 1.462396
v -0.093349 0.215688 1.468547
vt 0.500000 0.000000
vt 0.250000 0.333333
vt 0.250000 0.666667
vt 0.500000 1.000000
vt 0.750000 0.666667
vt 0.750000 0.333333
vn -0.1351 0.0334 0.9903
s off
mtllib leafwood.mtl
usemtl Leaves
f 1/1/1 2/2/1 6/3/1 3/4/1
f 1/1/1 3/4/1 5/5/1 4/6/1
