# Blender v3.4.0 OBJ File: 'apple_tree1_sapling_05_8_2_2.blend'
# www.blender.org
o leaves.085
v 0.042292 0.007579 1.014443
v 0.166421 0.071749 1.061037
v 0.093474 0.035354 0.995058
v 0.073863 0.022584 1.064890
v 0.115239 0.043974 1.080422
v 0.134850 0.056744 1.010589
vt 0.500000 0.000000
vt 0.500000 1.000000
vt 0.750000 0.666667
vt 0.750000 0.333333
vt 0.250000 0.333333
vt 0.250000 0.666667
vn -0.4679 0.8833 0.0301
s off
mtllib leafwood.mtl
usemtl Leaves
f 1/1/1 2/2/1 6/3/1 3/4/1
f 1/1/1 4/5/1 5/6/1 2/2/1
