# Blender v3.4.0 OBJ File: 'apple_tree1_sapling_05_8_2_2.blend'
# www.blender.org
o leaves.131
v 0.142867 -0.115782 1.273864
v 0.109804 -0.151247 1.271665
v 0.129725 -0.229850 1.254241
v 0.167169 -0.156362 1.262982
v 0.162788 -0.194385 1.256440
v 0.105423 -0.189270 1.265123
vt 0.500000 0.000000
vt 0.250000 0.333333
vt 0.250000 0.666667
vt 0.500000 1.000000
vt 0.750000 0.666667
vt 0.750000 0.333333
vn 0.1312 -0.1827 0.9744
s off
mtllib leafwood.mtl
usemtl Leaves
f 1/1/1 2/2/1 6/3/1 3/4/1
f 1/1/1 3/4/1 5/5/1 4/6/1
