# Blender v3.4.0 OBJ File: 'apple_tree1_sapling_05_8_2_2.blend'
# www.blender.org
o leaves.103
v 0.186068 0.196766 1.122442
v 0.216630 0.227700 1.139096
v 0.293491 0.227333 1.118511
v 0.227121 0.186211 1.103167
v 0.262929 0.196400 1.101857
v 0.252438 0.237889 1.137786
vt 0.500000 0.000000
vt 0.250000 0.333333
vt 0.250000 0.666667
vt 0.500000 1.000000
vt 0.750000 0.666667
vt 0.750000 0.333333
vn -0.2020 0.6115 -0.7651
s off
mtllib leafwood.mtl
usemtl Leaves
f 1/1/1 2/2/1 6/3/1 3/4/1
f 1/1/1 3/4/1 5/5/1 4/6/1
