# Blender v3.4.0 OBJ File: 'apple_tree1_sapling_05_8_2_2.blend'
# www.blender.org
o leaves.026
v -0.141855 0.311502 0.814548
v -0.122584 0.345497 0.823608
v -0.153260 0.398003 0.855243
v -0.168730 0.335175 0.832618
v -0.172531 0.364008 0.846183
v -0.126385 0.374331 0.837173
vt 0.500000 0.000000
vt 0.250000 0.333333
vt 0.250000 0.666667
vt 0.500000 1.000000
vt 0.750000 0.666667
vt 0.750000 0.333333
vn 0.2588 -0.3831 0.8867
vn 0.2588 -0.3830 0.8867
s off
mtllib leafwood.mtl
usemtl Leaves
f 1/1/1 2/2/1 6/3/1 3/4/1
f 1/1/2 3/4/2 5/5/2 4/6/2
