# Blender v3.4.0 OBJ File: 'apple_tree1_sapling_05_8_2_2.blend'
# www.blender.org
o leaves.274
v 0.158659 -0.099375 2.612136
v 0.186129 -0.086840 2.620463
v 0.226041 -0.115968 2.641039
v 0.176110 -0.122972 2.623077
v 0.198571 -0.128503 2.632712
v 0.208590 -0.092371 2.630097
vt 0.500000 0.000000
vt 0.500000 1.000000
vt 0.750000 0.666667
vt 0.750000 0.333333
vt 0.250000 0.333333
vt 0.250000 0.666667
vn -0.3543 0.1648 0.9205
s off
mtllib leafwood.mtl
usemtl Leaves
f 1/1/1 3/2/1 6/3/1 2/4/1
f 1/1/1 4/5/1 5/6/1 3/2/1
