# Blender v3.4.0 OBJ File: 'apple_tree1_sapling_05_8_2_2.blend'
# www.blender.org
o leaves.010
v 0.182706 0.175949 0.858186
v 0.196409 0.193314 0.890292
v 0.198003 0.259543 0.897349
v 0.179201 0.214314 0.852189
v 0.184300 0.242178 0.865243
v 0.201508 0.221179 0.903346
vt 0.500000 0.000000
vt 0.250000 0.333333
vt 0.250000 0.666667
vt 0.500000 1.000000
vt 0.750000 0.666667
vt 0.750000 0.333333
vn -0.9154 -0.0208 0.4020
s off
mtllib leafwood.mtl
usemtl Leaves
f 1/1/1 2/2/1 6/3/1 3/4/1
f 1/1/1 3/4/1 5/5/1 4/6/1
