# Blender v3.4.0 OBJ File: 'apple_tree1_sapling_05_8_2_2.blend'
# www.blender.org
o leaves.149
v 0.130625 0.271539 1.367763
v 0.107927 0.304312 1.376058
v 0.039171 0.300691 1.386127
v 0.092355 0.258200 1.371711
v 0.061870 0.267917 1.377832
v 0.077442 0.314030 1.382180
vt 0.500000 0.000000
vt 0.250000 0.333333
vt 0.250000 0.666667
vt 0.500000 1.000000
vt 0.750000 0.666667
vt 0.750000 0.333333
vn 0.1508 -0.1431 0.9781
s off
mtllib leafwood.mtl
usemtl Leaves
f 1/1/1 2/2/1 6/3/1 3/4/1
f 1/1/1 3/4/1 5/5/1 4/6/1
