# Blender v3.4.0 OBJ File: 'apple_tree1_sapling_05_8_2_2.blend'
# www.blender.org
o leaves.076
v -0.076187 -0.181668 0.988362
v -0.087062 -0.217377 0.952045
v -0.167014 -0.255840 0.945093
v -0.125864 -0.195406 0.995833
v -0.156140 -0.220130 0.981411
v -0.117337 -0.242101 0.937622
vt 0.500000 0.000000
vt 0.250000 0.333333
vt 0.250000 0.666667
vt 0.500000 1.000000
vt 0.750000 0.666667
vt 0.750000 0.333333
vn -0.2941 0.7241 -0.6239
s off
mtllib leafwood.mtl
usemtl Leaves
f 1/1/1 2/2/1 6/3/1 3/4/1
f 1/1/1 3/4/1 5/5/1 4/6/1
