# Blender v3.4.0 OBJ File: 'apple_tree1_sapling_05_8_2_2.blend'
# www.blender.org
o leaves.248
v 0.004995 0.310953 2.137906
v 0.014644 0.315907 2.166021
v 0.034300 0.361074 2.181031
v 0.014882 0.339412 2.138541
v 0.024650 0.356119 2.152916
v 0.024413 0.332615 2.180396
vt 0.500000 0.000000
vt 0.250000 0.333333
vt 0.250000 0.666667
vt 0.500000 1.000000
vt 0.750000 0.666667
vt 0.750000 0.333333
vn -0.9142 0.3118 0.2588
s off
mtllib leafwood.mtl
usemtl Leaves
f 1/1/1 2/2/1 6/3/1 3/4/1
f 1/1/1 3/4/1 5/5/1 4/6/1
