# Blender v3.4.0 OBJ File: 'apple_tree1_sapling_05_8_2_2.blend'
# www.blender.org
o leaves.229
v 0.207586 0.037999 1.838447
v 0.240276 0.073334 1.832147
v 0.298663 0.070189 1.773297
v 0.235613 0.024125 1.801314
v 0.265972 0.034855 1.779597
v 0.270636 0.084064 1.810430
vt 0.500000 0.000000
vt 0.250000 0.333333
vt 0.250000 0.666667
vt 0.500000 1.000000
vt 0.750000 0.666667
vt 0.750000 0.333333
vn -0.6185 0.4585 -0.6382
s off
mtllib leafwood.mtl
usemtl Leaves
f 1/1/1 2/2/1 6/3/1 3/4/1
f 1/1/1 3/4/1 5/5/1 4/6/1
