# Blender v3.4.0 OBJ File: 'apple_tree1_sapling_05_8_2_2.blend'
# www.blender.org
o leaves.059
v -0.148896 0.145253 0.968571
v -0.155486 0.144092 1.016675
v -0.226795 0.166775 1.052566
v -0.194239 0.160762 0.976464
v -0.220205 0.167935 1.004462
v -0.181452 0.151266 1.044673
vt 0.500000 0.000000
vt 0.250000 0.333333
vt 0.250000 0.666667
vt 0.500000 1.000000
vt 0.750000 0.666667
vt 0.750000 0.333333
vn -0.3335 -0.9403 -0.0684
s off
mtllib leafwood.mtl
usemtl Leaves
f 1/1/1 2/2/1 6/3/1 3/4/1
f 1/1/1 3/4/1 5/5/1 4/6/1
