# Blender v3.4.0 OBJ File: 'apple_tree1_sapling_05_8_2_2.blend'
# www.blender.org
o leaves.038
v -0.303997 -0.227417 0.924288
v -0.283427 -0.250156 0.928596
v -0.231179 -0.242031 0.926737
v -0.276021 -0.214422 0.921613
v -0.251749 -0.219293 0.922429
v -0.259155 -0.255027 0.929412
vt 0.500000 0.000000
vt 0.250000 0.333333
vt 0.250000 0.666667
vt 0.500000 1.000000
vt 0.750000 0.666667
vt 0.750000 0.333333
vn 0.0053 0.1907 0.9816
s off
mtllib leafwood.mtl
usemtl Leaves
f 1/1/1 2/2/1 6/3/1 3/4/1
f 1/1/1 3/4/1 5/5/1 4/6/1
