# Blender v3.4.0 OBJ File: 'apple_tree1_sapling_05_8_2_2.blend'
# www.blender.org
o leaves.102
v 0.142017 0.192272 1.101374
v 0.241961 0.156947 1.116525
v 0.169577 0.175196 1.132026
v 0.181086 0.185799 1.080823
v 0.214401 0.174024 1.085873
v 0.202892 0.163421 1.137076
vt 0.500000 0.000000
vt 0.500000 1.000000
vt 0.750000 0.666667
vt 0.750000 0.333333
vt 0.250000 0.333333
vt 0.250000 0.666667
vn -0.2875 -0.9230 -0.2558
s off
mtllib leafwood.mtl
usemtl Leaves
f 1/1/1 2/2/1 6/3/1 3/4/1
f 1/1/1 4/5/1 5/6/1 2/2/1
