# Blender v3.4.0 OBJ File: 'apple_tree1_sapling_05_8_2_2.blend'
# www.blender.org
o leaves.167
v -0.153997 0.113354 1.421073
v -0.155732 0.132013 1.468019
v -0.216807 0.187370 1.493831
v -0.194135 0.144039 1.422633
v -0.215072 0.168711 1.446886
v -0.176669 0.156685 1.492272
vt 0.500000 0.000000
vt 0.250000 0.333333
vt 0.250000 0.666667
vt 0.500000 1.000000
vt 0.750000 0.666667
vt 0.750000 0.333333
vn -0.5754 -0.7671 0.2836
s off
mtllib leafwood.mtl
usemtl Leaves
f 1/1/1 2/2/1 6/3/1 3/4/1
f 1/1/1 3/4/1 5/5/1 4/6/1
