# Blender v3.4.0 OBJ File: 'apple_tree1_sapling_05_8_2_2.blend'
# www.blender.org
o leaves.265
v -0.005980 -0.266486 2.318947
v 0.000623 -0.237865 2.317245
v -0.031302 -0.203782 2.298622
v -0.029464 -0.253304 2.307099
v -0.037904 -0.232403 2.300324
v -0.007818 -0.216964 2.310470
vt 0.500000 0.000000
vt 0.250000 0.333333
vt 0.250000 0.666667
vt 0.500000 1.000000
vt 0.750000 0.666667
vt 0.750000 0.333333
vn -0.3811 0.1422 0.9135
s off
mtllib leafwood.mtl
usemtl Leaves
f 1/1/1 2/2/1 6/3/1 3/4/1
f 1/1/1 3/4/1 5/5/1 4/6/1
