# Blender v3.4.0 OBJ File: 'apple_tree1_sapling_05_8_2_2.blend'
# www.blender.org
o leaves.070
v -0.021199 -0.019466 0.960865
v -0.086484 -0.030457 0.960865
v -0.130719 -0.134578 0.960865
v -0.028927 -0.085217 0.960865
v -0.065434 -0.123587 0.960865
v -0.122990 -0.068827 0.960865
vt 0.500000 0.000000
vt 0.250000 0.333333
vt 0.250000 0.666667
vt 0.500000 1.000000
vt 0.750000 0.666667
vt 0.750000 0.333333
vn -0.0000 0.0000 1.0000
s off
mtllib leafwood.mtl
usemtl Leaves
f 1/1/1 2/2/1 6/3/1 3/4/1
f 1/1/1 3/4/1 5/5/1 4/6/1
