# Blender v3.4.0 OBJ File: 'apple_tree1_sapling_05_8_2_2.blend'
# www.blender.org
o leaves.017
v -0.218730 0.051876 0.868755
v -0.262571 0.026951 0.870799
v -0.338735 0.067217 0.874836
v -0.254892 0.087029 0.870764
v -0.294894 0.092143 0.872791
v -0.302572 0.032065 0.872826
vt 0.500000 0.000000
vt 0.250000 0.333333
vt 0.250000 0.666667
vt 0.500000 1.000000
vt 0.750000 0.666667
vt 0.750000 0.333333
vn -0.0499 0.0058 -0.9987
s off
mtllib leafwood.mtl
usemtl Leaves
f 1/1/1 2/2/1 6/3/1 3/4/1
f 1/1/1 3/4/1 5/5/1 4/6/1
