# Blender v3.4.0 OBJ File: 'apple_tree1_sapling_05_8_2_2.blend'
# www.blender.org
o leaves.140
v 0.282712 -0.058942 1.246165
v 0.352080 -0.009955 1.286885
v 0.300803 -0.024119 1.246063
v 0.310867 -0.061106 1.273414
v 0.333989 -0.044778 1.286988
v 0.323925 -0.007790 1.259636
vt 0.500000 0.000000
vt 0.500000 1.000000
vt 0.750000 0.666667
vt 0.750000 0.333333
vt 0.250000 0.333333
vt 0.250000 0.666667
vn -0.6417 0.3354 0.6897
s off
mtllib leafwood.mtl
usemtl Leaves
f 1/1/1 2/2/1 6/3/1 3/4/1
f 1/1/1 4/5/1 5/6/1 2/2/1
