# Blender v3.4.0 OBJ File: 'apple_tree1_sapling_05_8_2_2.blend'
# www.blender.org
o leaves.212
v -0.095548 0.337146 1.659489
v -0.125944 0.350641 1.665306
v -0.089959 0.367292 1.673625
v -0.132757 0.402607 1.689419
v -0.102362 0.389112 1.683602
v -0.138346 0.372461 1.675283
vt 0.500000 0.000000
vt 0.500000 1.000000
vt 0.750000 0.666667
vt 0.750000 0.333333
vt 0.250000 0.333333
vt 0.250000 0.666667
vn -0.0141 -0.4224 0.9063
s off
mtllib leafwood.mtl
usemtl Leaves
f 1/1/1 4/2/1 6/3/1 2/4/1
f 1/1/1 3/5/1 5/6/1 4/2/1
