# Blender v3.4.0 OBJ File: 'apple_tree1_sapling_05_8_2_2.blend'
# www.blender.org
o leaves.043
v 0.035554 0.025172 0.889024
v 0.043387 0.082586 0.895100
v 0.104955 0.134754 0.836787
v 0.073988 0.040813 0.848123
v 0.097122 0.077340 0.830711
v 0.066521 0.119114 0.877688
vt 0.500000 0.000000
vt 0.250000 0.333333
vt 0.250000 0.666667
vt 0.500000 1.000000
vt 0.750000 0.666667
vt 0.750000 0.333333
vn -0.7497 0.1700 -0.6395
s off
mtllib leafwood.mtl
usemtl Leaves
f 1/1/1 2/2/1 6/3/1 3/4/1
f 1/1/1 3/4/1 5/5/1 4/6/1
