# Blender v3.4.0 OBJ File: 'apple_tree1_sapling_05_8_2_2.blend'
# www.blender.org
o leaves.194
v 0.306084 -0.042374 1.583724
v 0.291519 -0.075637 1.584120
v 0.326019 -0.127205 1.585197
v 0.333939 -0.065665 1.584310
v 0.340584 -0.093942 1.584801
v 0.298164 -0.103914 1.584611
vt 0.500000 0.000000
vt 0.250000 0.333333
vt 0.250000 0.666667
vt 0.500000 1.000000
vt 0.750000 0.666667
vt 0.750000 0.333333
vn -0.0081 0.0155 0.9998
s off
mtllib leafwood.mtl
usemtl Leaves
f 1/1/1 2/2/1 6/3/1 3/4/1
f 1/1/1 3/4/1 5/5/1 4/6/1
