# Blender v3.4.0 OBJ File: 'apple_tree1_sapling_05_8_2_2.blend'
# www.blender.org
o leaves.260
v 0.071506 -0.169038 2.241232
v 0.081015 -0.201610 2.212118
v 0.052169 -0.272079 2.218368
v 0.049105 -0.205160 2.255103
v 0.042660 -0.239507 2.247482
v 0.074569 -0.235957 2.204496
vt 0.500000 0.000000
vt 0.500000 1.000000
vt 0.750000 0.666667
vt 0.750000 0.333333
vt 0.250000 0.333333
vt 0.250000 0.666667
vn 0.7835 -0.2711 0.5592
s off
mtllib leafwood.mtl
usemtl Leaves
f 1/1/1 3/2/1 6/3/1 2/4/1
f 1/1/1 4/5/1 5/6/1 3/2/1
