# Blender v3.4.0 OBJ File: 'apple_tree1_sapling_05_8_2_2.blend'
# www.blender.org
o leaves.023
v -0.120177 0.131434 0.822208
v -0.129025 0.177448 0.851097
v -0.211501 0.222672 0.850303
v -0.172211 0.146245 0.812049
v -0.202653 0.176658 0.821414
v -0.159466 0.207860 0.860462
vt 0.500000 0.000000
vt 0.250000 0.333333
vt 0.250000 0.666667
vt 0.500000 1.000000
vt 0.750000 0.666667
vt 0.750000 0.333333
vn -0.3078 -0.5477 0.7780
s off
mtllib leafwood.mtl
usemtl Leaves
f 1/1/1 2/2/1 6/3/1 3/4/1
f 1/1/1 3/4/1 5/5/1 4/6/1
