# Blender v3.4.0 OBJ File: 'apple_tree1_sapling_05_8_2_2.blend'
# www.blender.org
o leaves.105
v 0.281742 0.179235 1.149544
v 0.303395 0.196835 1.119556
v 0.350080 0.161596 1.081107
v 0.305648 0.149876 1.133908
v 0.328427 0.143996 1.111096
v 0.326175 0.190956 1.096743
vt 0.500000 0.000000
vt 0.250000 0.333333
vt 0.250000 0.666667
vt 0.500000 1.000000
vt 0.750000 0.666667
vt 0.750000 0.333333
vn -0.7174 -0.2349 -0.6558
s off
mtllib leafwood.mtl
usemtl Leaves
f 1/1/1 2/2/1 6/3/1 3/4/1
f 1/1/1 3/4/1 5/5/1 4/6/1
