# Blender v3.4.0 OBJ File: 'apple_tree1_sapling_05_8_2_2.blend'
# www.blender.org
o leaves.191
v 0.177100 0.025950 1.563153
v 0.296821 -0.013973 1.578727
v 0.216632 0.000119 1.539128
v 0.217383 0.025165 1.597561
v 0.257289 0.011858 1.602753
v 0.256539 -0.013189 1.544319
vt 0.500000 0.000000
vt 0.500000 1.000000
vt 0.750000 0.666667
vt 0.750000 0.333333
vt 0.250000 0.333333
vt 0.250000 0.666667
vn -0.3368 -0.8639 0.3746
s off
mtllib leafwood.mtl
usemtl Leaves
f 1/1/1 2/2/1 5/3/1 4/4/1
f 1/1/1 3/5/1 6/6/1 2/2/1
