# Blender v3.4.0 OBJ File: 'apple_tree1_sapling_05_8_2_2.blend'
# www.blender.org
o leaves.056
v -0.053742 0.029013 0.919691
v -0.109178 0.049585 0.904760
v -0.191638 0.039357 0.967656
v -0.090237 0.015337 0.966598
v -0.136203 0.018785 0.982586
v -0.155143 0.053033 0.920748
vt 0.500000 0.000000
vt 0.250000 0.333333
vt 0.250000 0.666667
vt 0.500000 1.000000
vt 0.750000 0.666667
vt 0.750000 0.333333
vn 0.2131 0.8809 0.4226
s off
mtllib leafwood.mtl
usemtl Leaves
f 1/1/1 2/2/1 6/3/1 3/4/1
f 1/1/1 3/4/1 5/5/1 4/6/1
