# Blender v2.69 (sub 0) OBJ File: 'reflector.blend'
# www.blender.org
mtllib reflector.mtl
o Pole.007_Cylinder.009
v 0.000000 0.016000 -1.300000
v 0.000000 0.016000 -1.050000
v 0.011314 0.011314 -1.300000
v 0.011314 0.011314 -1.050000
v 0.016000 -0.000000 -1.300000
v 0.016000 -0.000000 -1.050000
v 0.011314 -0.011314 -1.300000
v 0.011314 -0.011314 -1.050000
v -0.000000 -0.016000 -1.300000
v -0.000000 -0.016000 -1.050000
v -0.011314 -0.011314 -1.300000
v -0.011314 -0.011314 -1.050000
v -0.016000 0.000000 -1.300000
v -0.016000 0.000000 -1.050000
v -0.011314 0.011314 -1.300000
v -0.011314 0.011314 -1.050000
vn 0.000000 1.000000 0.000000
vn 0.707107 0.707107 0.000000
vn 1.000000 -0.000000 0.000000
vn 0.707106 -0.707107 0.000000
vn 0.707107 -0.707106 0.000000
vn -0.000000 -1.000000 0.000000
vn -0.707107 -0.707107 0.000000
vn -1.000000 0.000000 0.000000
vn -0.707107 0.707107 0.000000
vn -0.707107 0.707106 0.000000
usemtl Pole_White
s 1
f 1//1 2//1 3//2
f 3//2 4//2 5//3
f 5//3 6//3 7//4
f 7//4 8//5 9//6
f 9//6 10//6 11//7
f 11//7 12//7 13//8
f 15//9 16//10 1//1
f 13//8 14//8 15//9
f 2//1 4//2 3//2
f 4//2 6//3 5//3
f 6//3 8//5 7//4
f 8//5 10//6 9//6
f 10//6 12//7 11//7
f 12//7 14//8 13//8
f 16//10 2//1 1//1
f 14//8 16//10 15//9
o Pole.006_Cylinder.008
v 0.000000 0.016000 -1.550000
v 0.000000 0.016000 -1.300000
v 0.011314 0.011314 -1.550000
v 0.011314 0.011314 -1.300000
v 0.016000 -0.000000 -1.550000
v 0.016000 -0.000000 -1.300000
v 0.011314 -0.011314 -1.550000
v 0.011314 -0.011314 -1.300000
v -0.000000 -0.016000 -1.550000
v -0.000000 -0.016000 -1.300000
v -0.011314 -0.011314 -1.550000
v -0.011314 -0.011314 -1.300000
v -0.016000 0.000000 -1.550000
v -0.016000 0.000000 -1.300000
v -0.011314 0.011314 -1.550000
v -0.011314 0.011314 -1.300000
vn 0.000000 1.000000 0.000000
vn 0.707107 0.707107 0.000000
vn 1.000000 0.000000 0.000000
vn 0.707107 -0.707107 0.000000
vn -0.000000 -1.000000 0.000000
vn -0.707107 -0.707107 0.000000
vn -1.000000 0.000000 0.000000
vn -0.707106 0.707107 0.000000
vn -0.707107 0.707106 0.000000
usemtl Pole_Red
s 1
f 17//11 18//11 19//12
f 19//12 20//12 21//13
f 21//13 22//13 23//14
f 23//14 24//14 25//15
f 25//15 26//15 27//16
f 27//16 28//16 29//17
f 31//18 32//19 17//11
f 29//17 30//17 31//18
f 18//11 20//12 19//12
f 20//12 22//13 21//13
f 22//13 24//14 23//14
f 24//14 26//15 25//15
f 26//15 28//16 27//16
f 28//16 30//17 29//17
f 32//19 18//11 17//11
f 30//17 32//19 31//18
o Pole.005_Cylinder.007
v 0.000000 0.016000 -1.800000
v 0.000000 0.016000 -1.550000
v 0.011314 0.011314 -1.800000
v 0.011314 0.011314 -1.550000
v 0.016000 -0.000000 -1.800000
v 0.016000 -0.000000 -1.550000
v 0.011314 -0.011314 -1.800000
v 0.011314 -0.011314 -1.550000
v -0.000000 -0.016000 -1.800000
v -0.000000 -0.016000 -1.550000
v -0.011314 -0.011314 -1.800000
v -0.011314 -0.011314 -1.550000
v -0.016000 0.000000 -1.800000
v -0.016000 0.000000 -1.550000
v -0.011314 0.011314 -1.800000
v -0.011314 0.011314 -1.550000
vn 0.000000 1.000000 0.000000
vn 0.707107 0.707107 0.000000
vn 1.000000 -0.000000 0.000000
vn 0.707106 -0.707107 0.000000
vn 0.707107 -0.707106 0.000000
vn -0.000000 -1.000000 0.000000
vn -0.707107 -0.707107 0.000000
vn -1.000000 0.000000 0.000000
vn -0.707106 0.707107 0.000000
vn -0.707107 0.707106 0.000000
usemtl Pole_White
s 1
f 33//20 34//20 35//21
f 35//21 36//21 37//22
f 37//22 38//22 39//23
f 39//23 40//24 41//25
f 41//25 42//25 43//26
f 43//26 44//26 45//27
f 47//28 48//29 33//20
f 45//27 46//27 47//28
f 34//20 36//21 35//21
f 36//21 38//22 37//22
f 38//22 40//24 39//23
f 40//24 42//25 41//25
f 42//25 44//26 43//26
f 44//26 46//27 45//27
f 48//29 34//20 33//20
f 46//27 48//29 47//28
o Pole.004_Cylinder.006
v 0.000000 0.016000 -2.050000
v 0.000000 0.016000 -1.800000
v 0.011314 0.011314 -2.050000
v 0.011314 0.011314 -1.800000
v 0.016000 -0.000000 -2.050000
v 0.016000 -0.000000 -1.800000
v 0.011314 -0.011314 -2.050000
v 0.011314 -0.011314 -1.800000
v -0.000000 -0.016000 -2.050000
v -0.000000 -0.016000 -1.800000
v -0.011314 -0.011314 -2.050000
v -0.011314 -0.011314 -1.800000
v -0.016000 0.000000 -2.050000
v -0.016000 0.000000 -1.800000
v -0.011314 0.011314 -2.050000
v -0.011314 0.011314 -1.800000
vn 0.000000 1.000000 0.000000
vn 0.707107 0.707106 0.000000
vn 0.707106 0.707107 0.000000
vn 1.000000 -0.000000 0.000000
vn 0.707107 -0.707107 0.000000
vn -0.000000 -1.000000 0.000000
vn -0.707107 -0.707106 0.000000
vn -0.707106 -0.707107 0.000000
vn -1.000000 0.000000 0.000000
vn -0.707107 0.707107 0.000000
usemtl Pole_Red
s 1
f 49//30 50//30 51//31
f 51//31 52//32 53//33
f 53//33 54//33 55//34
f 55//34 56//34 57//35
f 57//35 58//35 59//36
f 59//36 60//37 61//38
f 63//39 64//39 49//30
f 61//38 62//38 63//39
f 50//30 52//32 51//31
f 52//32 54//33 53//33
f 54//33 56//34 55//34
f 56//34 58//35 57//35
f 58//35 60//37 59//36
f 60//37 62//38 61//38
f 64//39 50//30 49//30
f 62//38 64//39 63//39
o Pole.003_Cylinder.005
v 0.000000 0.016000 -1.050000
v 0.000000 0.016000 -0.800000
v 0.011314 0.011314 -1.050000
v 0.011314 0.011314 -0.800000
v 0.016000 -0.000000 -1.050000
v 0.016000 -0.000000 -0.800000
v 0.011314 -0.011314 -1.050000
v 0.011314 -0.011314 -0.800000
v -0.000000 -0.016000 -1.050000
v -0.000000 -0.016000 -0.800000
v -0.011314 -0.011314 -1.050000
v -0.011314 -0.011314 -0.800000
v -0.016000 0.000000 -1.050000
v -0.016000 0.000000 -0.800000
v -0.011314 0.011314 -1.050000
v -0.011314 0.011314 -0.800000
vn 0.000000 1.000000 0.000000
vn 0.707107 0.707107 0.000000
vn 1.000000 -0.000000 0.000000
vn 0.707106 -0.707107 0.000000
vn 0.707107 -0.707107 0.000000
vn -0.000000 -1.000000 0.000000
vn -0.707107 -0.707107 0.000000
vn -1.000000 0.000000 0.000000
vn -0.707107 0.707107 0.000000
usemtl Pole_Red
s 1
f 65//40 66//40 67//41
f 67//41 68//41 69//42
f 69//42 70//42 71//43
f 71//43 72//44 73//45
f 73//45 74//45 75//46
f 75//46 76//46 77//47
f 79//48 80//48 65//40
f 77//47 78//47 79//48
f 66//40 68//41 67//41
f 68//41 70//42 69//42
f 70//42 72//44 71//43
f 72//44 74//45 73//45
f 74//45 76//46 75//46
f 76//46 78//47 77//47
f 80//48 66//40 65//40
f 78//47 80//48 79//48
o Pole.002_Cylinder.004
v 0.000000 0.016000 -0.800000
v 0.000000 0.016000 -0.550000
v 0.011314 0.011314 -0.800000
v 0.011314 0.011314 -0.550000
v 0.016000 -0.000000 -0.800000
v 0.016000 -0.000000 -0.550000
v 0.011314 -0.011314 -0.800000
v 0.011314 -0.011314 -0.550000
v -0.000000 -0.016000 -0.800000
v -0.000000 -0.016000 -0.550000
v -0.011314 -0.011314 -0.800000
v -0.011314 -0.011314 -0.550000
v -0.016000 0.000000 -0.800000
v -0.016000 0.000000 -0.550000
v -0.011314 0.011314 -0.800000
v -0.011314 0.011314 -0.550000
vn 0.000000 1.000000 0.000000
vn 0.707107 0.707107 0.000000
vn 1.000000 -0.000000 0.000000
vn 0.707107 -0.707107 0.000000
vn -0.000000 -1.000000 0.000000
vn -0.707107 -0.707106 0.000000
vn -0.707107 -0.707107 0.000000
vn -1.000000 0.000000 0.000000
vn -0.707107 0.707107 0.000000
usemtl Pole_White
s 1
f 81//49 82//49 83//50
f 83//50 84//50 85//51
f 85//51 86//51 87//52
f 87//52 88//52 89//53
f 89//53 90//53 91//54
f 91//54 92//55 93//56
f 95//57 96//57 81//49
f 93//56 94//56 95//57
f 82//49 84//50 83//50
f 84//50 86//51 85//51
f 86//51 88//52 87//52
f 88//52 90//53 89//53
f 90//53 92//55 91//54
f 92//55 94//56 93//56
f 96//57 82//49 81//49
f 94//56 96//57 95//57
o Pole.001_Cylinder.003
v 0.000000 0.016000 -0.550000
v 0.000000 0.016000 -0.300000
v 0.011314 0.011314 -0.550000
v 0.011314 0.011314 -0.300000
v 0.016000 -0.000000 -0.550000
v 0.016000 -0.000000 -0.300000
v 0.011314 -0.011314 -0.550000
v 0.011314 -0.011314 -0.300000
v -0.000000 -0.016000 -0.550000
v -0.000000 -0.016000 -0.300000
v -0.011314 -0.011314 -0.550000
v -0.011314 -0.011314 -0.300000
v -0.016000 0.000000 -0.550000
v -0.016000 0.000000 -0.300000
v -0.011314 0.011314 -0.550000
v -0.011314 0.011314 -0.300000
vn 0.000000 1.000000 0.000000
vn 0.707107 0.707107 0.000000
vn 1.000000 -0.000000 0.000000
vn 0.707107 -0.707107 0.000000
vn -0.000000 -1.000000 0.000000
vn -0.707107 -0.707106 0.000000
vn -0.707107 -0.707107 0.000000
vn -1.000000 0.000000 0.000000
vn -0.707107 0.707107 0.000000
usemtl Pole_Red
s 1
f 97//58 98//58 99//59
f 99//59 100//59 101//60
f 101//60 102//60 103//61
f 103//61 104//61 105//62
f 105//62 106//62 107//63
f 107//63 108//64 109//65
f 111//66 112//66 97//58
f 109//65 110//65 111//66
f 98//58 100//59 99//59
f 100//59 102//60 101//60
f 102//60 104//61 103//61
f 104//61 106//62 105//62
f 106//62 108//64 107//63
f 108//64 110//65 109//65
f 112//66 98//58 97//58
f 110//65 112//66 111//66
o Reflector_Cylinder.002
v 0.000000 0.000000 -0.168000
v 0.000000 0.000000 0.173000
v 0.000000 0.055000 -0.168000
v 0.000000 0.055000 0.173000
v 0.038891 0.038891 -0.168000
v 0.038891 0.038891 0.173000
v 0.055000 -0.000000 -0.168000
v 0.055000 -0.000000 0.173000
v 0.038891 -0.038891 -0.168000
v 0.038891 -0.038891 0.173000
v -0.000000 -0.055000 -0.168000
v -0.000000 -0.055000 0.173000
v -0.038891 -0.038891 -0.168000
v -0.038891 -0.038891 0.173000
v -0.055000 0.000000 -0.168000
v -0.055000 0.000000 0.173000
v -0.038891 0.038891 -0.168000
v -0.038891 0.038891 0.173000
vn 0.000000 0.000000 -0.999969
vn 0.000000 0.776360 -0.630238
vn 0.548967 0.548967 -0.630238
vn 0.000000 0.000000 0.999969
vn 0.548967 0.548967 0.630238
vn 0.000000 0.776360 0.630238
vn 0.776360 0.000000 -0.630238
vn 0.776360 0.000000 0.630238
vn 0.548967 -0.548967 -0.630238
vn 0.548967 -0.548967 0.630238
vn 0.000000 -0.776360 -0.630238
vn 0.000000 -0.776360 0.630238
vn -0.548967 -0.548967 -0.630238
vn -0.548967 -0.548967 0.630238
vn -0.776360 0.000000 -0.630238
vn -0.776360 0.000000 0.630238
vn -0.548967 0.548967 -0.630238
vn -0.548967 0.548967 0.630238
usemtl Reflector
s 1
f 113//67 115//68 117//69
f 114//70 118//71 116//72
f 115//68 116//72 117//69
f 113//67 117//69 119//73
f 114//70 120//74 118//71
f 117//69 118//71 119//73
f 113//67 119//73 121//75
f 114//70 122//76 120//74
f 119//73 120//74 121//75
f 113//67 121//75 123//77
f 114//70 124//78 122//76
f 121//75 122//76 123//77
f 113//67 123//77 125//79
f 114//70 126//80 124//78
f 123//77 124//78 125//79
f 113//67 125//79 127//81
f 114//70 128//82 126//80
f 125//79 126//80 127//81
f 113//67 127//81 129//83
f 114//70 130//84 128//82
f 127//81 128//82 129//83
f 113//67 129//83 115//68
f 114//70 116//72 130//84
f 129//83 130//84 115//68
f 116//72 118//71 117//69
f 118//71 120//74 119//73
f 120//74 122//76 121//75
f 122//76 124//78 123//77
f 124//78 126//80 125//79
f 126//80 128//82 127//81
f 128//82 130//84 129//83
f 130//84 116//72 115//68
o Pole_Cylinder.001
v 0.000000 0.016000 -0.300000
v 0.000000 0.016000 -0.050000
v 0.011314 0.011314 -0.300000
v 0.011314 0.011314 -0.050000
v 0.016000 -0.000000 -0.300000
v 0.016000 -0.000000 -0.050000
v 0.011314 -0.011314 -0.300000
v 0.011314 -0.011314 -0.050000
v -0.000000 -0.016000 -0.300000
v -0.000000 -0.016000 -0.050000
v -0.011314 -0.011314 -0.300000
v -0.011314 -0.011314 -0.050000
v -0.016000 0.000000 -0.300000
v -0.016000 0.000000 -0.050000
v -0.011314 0.011314 -0.300000
v -0.011314 0.011314 -0.050000
vn 0.000000 1.000000 0.000000
vn 0.707107 0.707107 0.000000
vn 1.000000 -0.000000 0.000000
vn 0.707107 -0.707107 0.000000
vn -0.000000 -1.000000 0.000000
vn -0.707107 -0.707107 0.000000
vn -1.000000 0.000000 0.000000
vn -0.707107 0.707107 0.000000
usemtl Pole_White
s 1
f 131//85 132//85 133//86
f 133//86 134//86 135//87
f 135//87 136//87 137//88
f 137//88 138//88 139//89
f 139//89 140//89 141//90
f 141//90 142//90 143//91
f 145//92 146//92 131//85
f 143//91 144//91 145//92
f 132//85 134//86 133//86
f 134//86 136//87 135//87
f 136//87 138//88 137//88
f 138//88 140//89 139//89
f 140//89 142//90 141//90
f 142//90 144//91 143//91
f 146//92 132//85 131//85
f 144//91 146//92 145//92
