# Blender v3.4.0 OBJ File: 'urban_dyn_4.blend'
# www.blender.org
mtllib Building.mtl
o element.033_element.511
usemtl building
v -20.959024 172.255371 6.488880
v -21.748636 188.708405 6.488880
v -31.681152 188.240906 6.488880
v -30.891571 171.787888 6.488880
v -30.891571 171.787888 17.274212
v -20.959024 172.255371 17.274212
v -25.925297 172.021637 20.355736
v -21.748636 188.708405 17.274212
v -31.681152 188.240906 17.274212
v -26.714893 188.474655 20.355736
vn 0.0470 -0.9989 -0.0000
vn 0.9989 0.0479 0.0000
vn -0.0470 0.9989 0.0000
vn -0.9989 -0.0479 0.0000
vn -0.5262 -0.0253 0.8500
vn 0.5262 0.0253 0.8500
s off
f 4//1 1//1 6//1 7//1 5//1
f 1//2 2//2 8//2 6//2
f 2//3 3//3 9//3 10//3 8//3
f 3//4 4//4 5//4 9//4
f 10//5 9//5 5//5 7//5
f 7//6 6//6 8//6 10//6
