# Blender v3.4.0 OBJ File: 'urban_dyn_4.blend'
# www.blender.org
mtllib Building.mtl
o element.006_element.484
usemtl building
v -34.333679 35.488319 4.240079
v -34.819096 34.542107 4.240079
v -34.703190 32.827785 4.240079
v -34.109108 32.048546 4.240079
v -33.913513 29.098577 4.240079
v -34.326481 28.486322 4.240079
v -34.261280 27.528975 4.240079
v -33.775875 26.983505 4.240079
v -33.754143 26.638416 4.240079
v -34.167107 25.948236 4.240079
v -34.094666 24.835041 4.240079
v -33.594769 24.233913 4.240079
v -33.420906 21.629036 4.240079
v -33.855606 20.671692 4.240079
v -33.710724 18.478697 4.240079
v -33.174599 17.944359 4.240079
v -33.065937 16.207775 4.240079
v -18.184805 17.198448 4.240079
v -19.583004 38.404816 4.240079
v -34.456833 37.414146 4.240079
v -34.819096 34.542107 17.905046
v -34.703190 32.827785 17.905046
v -34.109108 32.048546 18.118946
v -33.913513 29.098577 18.119375
v -34.326481 28.486322 17.941641
v -34.261280 27.528975 17.942457
v -33.775875 26.983505 18.118664
v -33.754143 26.638416 18.118263
v -34.167107 25.948236 17.938517
v -34.094666 24.835041 17.938143
v -33.594769 24.233913 18.118593
v -33.420906 21.629036 18.119423
v -33.855606 20.671692 17.924246
v -33.710724 18.478697 17.924360
v -33.174599 17.944359 18.120741
v -33.065937 16.207775 18.118454
v -18.184805 17.198448 17.905046
v -25.896343 16.685072 20.941706
v -19.583004 38.404816 17.905046
v -34.456833 37.414146 18.121317
v -27.294525 37.891190 20.941706
v -34.333679 35.488319 18.119818
vn -0.9977 -0.0675 0.0000
vn -0.7952 -0.6063 0.0000
vn -0.9978 -0.0662 0.0000
vn -0.8290 0.5592 0.0000
vn -0.9977 -0.0679 0.0000
vn -0.7470 -0.6648 0.0000
vn -0.9980 -0.0628 0.0000
vn -0.8581 0.5134 0.0000
vn -0.9979 -0.0649 0.0000
vn -0.7689 -0.6394 0.0000
vn -0.9978 -0.0666 0.0000
vn -0.9105 0.4134 0.0000
vn -0.9978 -0.0659 0.0000
vn -0.7059 -0.7083 0.0000
vn -0.9980 -0.0624 0.0000
vn 0.0664 -0.9978 -0.0000
vn 0.9978 0.0658 0.0000
vn -0.0665 0.9978 0.0000
vn -0.9980 -0.0638 0.0000
vn -0.8897 0.4564 0.0000
vn -0.3649 -0.0241 0.9307
vn 0.3649 0.0241 0.9307
s off
f 2//1 3//1 22//1 21//1
f 3//2 4//2 23//2 22//2
f 4//3 5//3 24//3 23//3
f 5//4 6//4 25//4 24//4
f 6//5 7//5 26//5 25//5
f 7//6 8//6 27//6 26//6
f 8//7 9//7 28//7 27//7
f 9//8 10//8 29//8 28//8
f 10//9 11//9 30//9 29//9
f 11//10 12//10 31//10 30//10
f 12//11 13//11 32//11 31//11
f 13//12 14//12 33//12 32//12
f 14//13 15//13 34//13 33//13
f 15//14 16//14 35//14 34//14
f 16//15 17//15 36//15 35//15
f 17//16 18//16 37//16 38//16 36//16
f 18//17 19//17 39//17 37//17
f 19//18 20//18 40//18 41//18 39//18
f 20//19 1//19 42//19 40//19
f 1//20 2//20 21//20 42//20
f 41//21 40//21 42//21 21//21 22//21 23//21 24//21 25//21 26//21 27//21 28//21 29//21 30//21 31//21 32//21 33//21 34//21 35//21 36//21 38//21
f 38//22 37//22 39//22 41//22
