# Blender v3.4.0 OBJ File: 'urban_dyn_4.blend'
# www.blender.org
mtllib Building.mtl
o element.020_element.498
usemtl building
v -37.405155 90.335449 7.000000
v -37.158859 85.971725 7.000000
v -35.818558 86.049644 7.000000
v -35.340454 77.478035 7.000000
v -23.429886 78.145889 7.000000
v -24.147070 91.081215 7.000000
v -23.429886 78.145889 20.240570
v -24.147070 91.081215 20.240570
v -23.788479 84.613556 23.182920
v -37.405155 90.335449 20.240570
v -37.158859 85.971725 22.225880
v -35.818558 86.049644 22.224735
v -35.340454 77.478035 20.240570
v -35.701111 83.943985 23.182920
vn 0.9985 0.0554 0.0000
vn -0.0562 0.9984 0.0000
vn -0.9984 -0.0564 0.0000
vn 0.0580 -0.9983 0.0000
vn -0.9984 -0.0557 -0.0000
vn 0.0560 -0.9984 0.0000
vn 0.0232 -0.4130 0.9105
vn -0.0232 0.4129 0.9105
s off
f 5//1 6//1 8//1 9//1 7//1
f 6//2 1//2 10//2 8//2
f 1//3 2//3 11//3 10//3
f 2//4 3//4 12//4 11//4
f 3//5 4//5 13//5 14//5 12//5
f 4//6 5//6 7//6 13//6
f 14//7 13//7 7//7 9//7
f 9//8 8//8 10//8 11//8 12//8 14//8
