# Blender v3.4.0 OBJ File: 'urban_dyn_3.blend'
# www.blender.org
mtllib Building.mtl
o element.014_element.492
usemtl building
v -26.582111 -67.571312 4.131199
v -18.416925 -66.914558 4.131199
v -18.887835 -61.036888 4.131199
v -27.053013 -61.693638 4.131199
v -27.053013 -61.693638 8.438372
v -26.582111 -67.571312 8.438372
v -26.817562 -64.632477 11.438372
v -18.416925 -66.914558 8.438372
v -18.887835 -61.036888 8.438372
v -18.652380 -63.975723 11.438372
vn -0.9968 -0.0799 0.0000
vn 0.0802 -0.9968 0.0000
vn 0.9968 0.0799 0.0000
vn -0.0802 0.9968 0.0000
vn -0.0572 0.7109 0.7009
vn 0.0572 -0.7109 0.7009
s off
f 4//1 1//1 6//1 7//1 5//1
f 1//2 2//2 8//2 6//2
f 2//3 3//3 9//3 10//3 8//3
f 3//4 4//4 5//4 9//4
f 10//5 9//5 5//5 7//5
f 7//6 6//6 8//6 10//6
