# Blender v3.4.0 OBJ File: 'urban_dyn_4.blend'
# www.blender.org
mtllib Building.mtl
o element.016_element.494
usemtl building
v -38.151947 8.226200 4.861840
v -37.499969 -1.681238 4.861840
v -19.119465 -0.467952 4.861840
v -19.771477 9.439486 4.861840
v -19.771477 9.439486 11.738108
v -38.151947 8.226200 11.738108
v -37.499969 -1.681238 11.738108
v -37.825958 3.272481 14.738109
v -19.119465 -0.467952 11.738108
v -19.445471 4.485767 14.738109
vn -0.0659 0.9978 0.0000
vn -0.9978 -0.0657 0.0000
vn 0.0659 -0.9978 0.0000
vn 0.9978 0.0657 -0.0000
vn -0.0341 0.5161 0.8559
vn 0.0341 -0.5161 0.8559
s off
f 4//1 1//1 6//1 5//1
f 1//2 2//2 7//2 8//2 6//2
f 2//3 3//3 9//3 7//3
f 3//4 4//4 5//4 10//4 9//4
f 10//5 5//5 6//5 8//5
f 8//6 7//6 9//6 10//6
