# Blender v3.4.0 OBJ File: 'urban_dyn_4.blend'
# www.blender.org
mtllib Building.mtl
o element.031_element.509
usemtl building
v -70.188133 88.242966 5.198040
v -47.127750 89.801193 5.198040
v -47.939068 101.745781 5.198040
v -70.738586 100.265480 5.198040
v -70.738586 100.265480 21.660423
v -70.188133 88.242966 21.660423
v -70.463364 94.254227 24.660423
v -47.127750 89.801193 21.660423
v -47.939068 101.745781 21.690424
v -47.535446 95.803497 24.660423
vn -0.9990 -0.0457 -0.0000
vn 0.0674 -0.9977 0.0000
vn 0.9977 0.0678 -0.0000
vn -0.0648 0.9979 0.0000
vn -0.0301 0.4452 0.8949
vn 0.0301 -0.4452 0.8949
s off
f 4//1 1//1 6//1 7//1 5//1
f 1//2 2//2 8//2 6//2
f 2//3 3//3 9//3 10//3 8//3
f 3//4 4//4 5//4 9//4
f 10//5 9//5 5//5 7//5
f 7//6 6//6 8//6 10//6
