# Blender v3.4.0 OBJ File: 'urban_dyn_4.blend'
# www.blender.org
mtllib Building.mtl
o element.019_element.497
usemtl building
v -33.804615 65.488914 6.477839
v -33.080204 52.497929 6.477839
v -39.745518 52.130619 6.477839
v -39.238441 43.002419 6.477839
v -21.524620 43.993061 6.477839
v -22.756163 66.112251 6.477839
v -39.238441 43.002419 13.946989
v -21.524620 43.993061 13.946989
v -25.067385 43.794933 17.532181
v -30.381531 43.497742 19.922310
v -35.695679 43.200546 17.532181
v -22.756163 66.112251 13.946989
v -33.804615 65.488914 18.936489
v -31.612831 65.612572 19.922310
v -26.298830 65.912376 17.532181
v -33.080204 52.497929 18.936985
v -39.745518 52.130619 13.946989
v -36.203209 52.325829 17.532181
vn 0.0558 -0.9984 0.0000
vn 0.9985 0.0556 0.0000
vn -0.0563 0.9984 0.0000
vn -0.9984 -0.0557 0.0000
vn -0.0550 0.9985 -0.0000
vn -0.9985 -0.0555 0.0000
vn -0.7097 -0.0394 0.7034
vn -0.4090 -0.0228 0.9122
vn 0.4090 0.0228 0.9122
vn 0.7097 0.0395 0.7034
s off
f 4//1 5//1 8//1 9//1 10//1 11//1 7//1
f 5//2 6//2 12//2 8//2
f 6//3 1//3 13//3 14//3 15//3 12//3
f 1//4 2//4 16//4 13//4
f 2//5 3//5 17//5 18//5 16//5
f 3//6 4//6 7//6 17//6
f 18//7 17//7 7//7 11//7
f 11//8 10//8 14//8 13//8 16//8 18//8
f 10//9 9//9 15//9 14//9
f 9//10 8//10 12//10 15//10
