# Blender v3.4.0 OBJ File: 'urban_dyn_4.blend'
# www.blender.org
mtllib Building.mtl
o element_element.478
usemtl building
v -30.891571 171.787888 6.494561
v -30.239618 158.251434 6.494561
v -19.785425 158.763443 6.494561
v -20.437403 172.288773 6.494561
v -30.891571 171.787888 14.442497
v -30.239618 158.251434 14.442497
v -19.785425 158.763443 14.442497
v -20.437403 172.288773 14.442497
v -28.797649 169.885910 17.621672
v -28.338226 160.346954 17.621672
v -21.879328 160.663284 17.621672
v -22.338816 170.195374 17.621672
v -25.412621 166.811081 20.800846
v -25.264389 163.734695 20.800846
vn -0.0479 0.9989 0.0000
vn -0.9988 -0.0481 0.0000
vn 0.0489 -0.9988 0.0000
vn 0.9988 0.0481 0.0000
vn -0.0405 0.8455 0.5325
vn -0.8455 -0.0407 0.5325
vn 0.0414 -0.8454 0.5325
vn 0.8455 0.0408 0.5325
vn 0.7003 0.0338 0.7130
vn -0.7003 -0.0337 0.7130
vn -0.0336 0.7003 0.7131
vn 0.0343 -0.7003 0.7131
s off
f 4//1 1//1 5//1 8//1
f 1//2 2//2 6//2 5//2
f 2//3 3//3 7//3 6//3
f 3//4 4//4 8//4 7//4
f 8//5 5//5 9//5 12//5
f 5//6 6//6 10//6 9//6
f 6//7 7//7 11//7 10//7
f 7//8 8//8 12//8 11//8
f 14//9 11//9 12//9 13//9
f 13//10 9//10 10//10 14//10
f 12//11 9//11 13//11
f 10//12 11//12 14//12
