# Blender v3.4.0 OBJ File: 'urban_dyn_4.blend'
# www.blender.org
o Inliner-Bahn_Inliner-Bahn.003
v 25.524261 -44.461388 6.032240
v 46.955055 -43.592953 6.032240
v 45.382561 -4.475298 6.032240
v 23.951918 -5.343726 6.032240
v 46.955055 -43.592953 25.365503
v 45.382561 -4.475298 25.365503
v 23.951918 -5.343726 25.365503
v 34.667240 -4.909513 28.365503
v 25.524261 -44.461388 25.365503
v 36.239658 -44.027168 28.365503
vn 0.9992 0.0402 0.0000
vn -0.0405 0.9992 0.0000
vn -0.9992 -0.0402 0.0000
vn 0.0405 -0.9992 0.0000
vn 0.2692 0.0108 0.9630
vn -0.2692 -0.0108 0.9630
s off
f 2//1 3//1 6//1 5//1
f 3//2 4//2 7//2 8//2 6//2
f 4//3 1//3 9//3 7//3
f 1//4 2//4 5//4 10//4 9//4
f 10//5 5//5 6//5 8//5
f 8//6 7//6 9//6 10//6
